STARTFONT 2.1
FONT -Galmuri11-Bold-R-Bold--16-16-75-75-c-80-iso10646-1
SIZE 16 75 75
FONTBOUNDINGBOX 18 17 0 -3
STARTPROPERTIES 10
FAMILY_NAME Galmuri11
WEIGHT_NAME Bold
FONT_VERSION Version 2.0.2
COPYRIGHT Copyright (c) 2019-2022 Lee Minseo (itoupluk427@gmail.com)
FOUNDRY Made with Bits'n'Picas by Kreative Software
FONT_ASCENT 14
FONT_DESCENT 2
CAP_HEIGHT 12
POINT_SIZE 12
X_HEIGHT 8
ENDPROPERTIES
CHARS 3522
STARTCHAR U+0000
ENCODING 0
SWIDTH 0 0
DWIDTH 0 0
BBX 0 0 0 0
BITMAP
ENDCHAR
STARTCHAR U+0020
ENCODING 32
SWIDTH 277 0
DWIDTH 5 0
BBX 0 0 0 0
BITMAP
ENDCHAR
STARTCHAR U+0021
ENCODING 33
SWIDTH 166 0
DWIDTH 3 0
BBX 2 11 0 0
BITMAP
C0
C0
C0
C0
C0
C0
C0
C0
00
C0
C0
ENDCHAR
STARTCHAR U+0022
ENCODING 34
SWIDTH 333 0
DWIDTH 6 0
BBX 5 4 0 7
BITMAP
D8
D8
D8
D8
ENDCHAR
STARTCHAR U+0023
ENCODING 35
SWIDTH 555 0
DWIDTH 10 0
BBX 9 11 0 0
BITMAP
1B00
1B00
7F80
7F80
3600
3600
FF00
FF00
6C00
6C00
6C00
ENDCHAR
STARTCHAR U+0024
ENCODING 36
SWIDTH 500 0
DWIDTH 9 0
BBX 8 11 0 0
BITMAP
18
7E
FF
DB
F8
7E
1F
DB
FF
7E
18
ENDCHAR
STARTCHAR U+0025
ENCODING 37
SWIDTH 666 0
DWIDTH 12 0
BBX 11 11 0 0
BITMAP
7000
F8C0
D9C0
FB80
7700
0E00
1DC0
3BE0
7360
63E0
01C0
ENDCHAR
STARTCHAR U+0026
ENCODING 38
SWIDTH 500 0
DWIDTH 9 0
BBX 8 11 0 0
BITMAP
78
F8
C0
C6
FF
FF
C6
C6
C6
FE
7C
ENDCHAR
STARTCHAR U+0027
ENCODING 39
SWIDTH 166 0
DWIDTH 3 0
BBX 2 4 0 7
BITMAP
C0
C0
C0
C0
ENDCHAR
STARTCHAR U+0028
ENCODING 40
SWIDTH 277 0
DWIDTH 5 0
BBX 4 11 0 0
BITMAP
30
70
60
E0
C0
C0
C0
E0
60
70
30
ENDCHAR
STARTCHAR U+0029
ENCODING 41
SWIDTH 277 0
DWIDTH 5 0
BBX 4 11 0 0
BITMAP
C0
E0
60
70
30
30
30
70
60
E0
C0
ENDCHAR
STARTCHAR U+002A
ENCODING 42
SWIDTH 388 0
DWIDTH 7 0
BBX 6 7 0 1
BITMAP
30
B4
FC
78
FC
B4
30
ENDCHAR
STARTCHAR U+002B
ENCODING 43
SWIDTH 500 0
DWIDTH 9 0
BBX 8 8 0 1
BITMAP
18
18
18
FF
FF
18
18
18
ENDCHAR
STARTCHAR U+002C
ENCODING 44
SWIDTH 166 0
DWIDTH 3 0
BBX 2 4 0 -2
BITMAP
C0
C0
40
80
ENDCHAR
STARTCHAR U+002D
ENCODING 45
SWIDTH 333 0
DWIDTH 6 0
BBX 5 2 0 4
BITMAP
F8
F8
ENDCHAR
STARTCHAR U+002E
ENCODING 46
SWIDTH 166 0
DWIDTH 3 0
BBX 2 2 0 0
BITMAP
C0
C0
ENDCHAR
STARTCHAR U+002F
ENCODING 47
SWIDTH 388 0
DWIDTH 7 0
BBX 6 11 0 0
BITMAP
0C
0C
1C
18
38
30
70
60
E0
C0
C0
ENDCHAR
STARTCHAR U+0030
ENCODING 48
SWIDTH 444 0
DWIDTH 8 0
BBX 7 11 0 0
BITMAP
7C
FE
C6
CE
DE
FE
F6
E6
C6
FE
7C
ENDCHAR
STARTCHAR U+0031
ENCODING 49
SWIDTH 277 0
DWIDTH 5 0
BBX 4 11 0 0
BITMAP
60
E0
E0
60
60
60
60
60
60
F0
F0
ENDCHAR
STARTCHAR U+0032
ENCODING 50
SWIDTH 444 0
DWIDTH 8 0
BBX 7 11 0 0
BITMAP
7C
FE
C6
C6
0E
1C
38
70
E0
FE
FE
ENDCHAR
STARTCHAR U+0033
ENCODING 51
SWIDTH 444 0
DWIDTH 8 0
BBX 7 11 0 0
BITMAP
7C
FE
C6
06
3E
3C
06
06
C6
FE
7C
ENDCHAR
STARTCHAR U+0034
ENCODING 52
SWIDTH 444 0
DWIDTH 8 0
BBX 7 11 0 0
BITMAP
1C
3C
3C
6C
6C
CC
CC
FE
FE
0C
0C
ENDCHAR
STARTCHAR U+0035
ENCODING 53
SWIDTH 444 0
DWIDTH 8 0
BBX 7 11 0 0
BITMAP
FE
FE
C0
C0
FC
FE
C6
06
C6
FE
7C
ENDCHAR
STARTCHAR U+0036
ENCODING 54
SWIDTH 444 0
DWIDTH 8 0
BBX 7 11 0 0
BITMAP
7C
FC
C0
C0
FC
FE
C6
C6
C6
FE
7C
ENDCHAR
STARTCHAR U+0037
ENCODING 55
SWIDTH 444 0
DWIDTH 8 0
BBX 7 11 0 0
BITMAP
FE
FE
06
0E
0C
1C
18
38
30
30
30
ENDCHAR
STARTCHAR U+0038
ENCODING 56
SWIDTH 444 0
DWIDTH 8 0
BBX 7 11 0 0
BITMAP
7C
FE
C6
C6
FE
7C
C6
C6
C6
FE
7C
ENDCHAR
STARTCHAR U+0039
ENCODING 57
SWIDTH 444 0
DWIDTH 8 0
BBX 7 11 0 0
BITMAP
7C
FE
C6
C6
C6
FE
7E
06
06
7E
7C
ENDCHAR
STARTCHAR U+003A
ENCODING 58
SWIDTH 166 0
DWIDTH 3 0
BBX 2 6 0 2
BITMAP
C0
C0
00
00
C0
C0
ENDCHAR
STARTCHAR U+003B
ENCODING 59
SWIDTH 166 0
DWIDTH 3 0
BBX 2 8 0 0
BITMAP
C0
C0
00
00
C0
C0
40
80
ENDCHAR
STARTCHAR U+003C
ENCODING 60
SWIDTH 388 0
DWIDTH 7 0
BBX 6 7 0 1
BITMAP
1C
38
70
E0
70
38
1C
ENDCHAR
STARTCHAR U+003D
ENCODING 61
SWIDTH 333 0
DWIDTH 6 0
BBX 5 5 0 2
BITMAP
F8
F8
00
F8
F8
ENDCHAR
STARTCHAR U+003E
ENCODING 62
SWIDTH 388 0
DWIDTH 7 0
BBX 6 7 0 1
BITMAP
E0
70
38
1C
38
70
E0
ENDCHAR
STARTCHAR U+003F
ENCODING 63
SWIDTH 388 0
DWIDTH 7 0
BBX 6 11 0 0
BITMAP
78
FC
CC
CC
1C
38
30
30
00
30
30
ENDCHAR
STARTCHAR U+0040
ENCODING 64
SWIDTH 500 0
DWIDTH 9 0
BBX 8 11 0 0
BITMAP
3E
7F
E3
CF
DF
DB
DF
CF
E0
7E
3E
ENDCHAR
STARTCHAR U+0041
ENCODING 65
SWIDTH 444 0
DWIDTH 8 0
BBX 7 11 0 0
BITMAP
7C
FE
C6
C6
C6
C6
FE
FE
C6
C6
C6
ENDCHAR
STARTCHAR U+0042
ENCODING 66
SWIDTH 444 0
DWIDTH 8 0
BBX 7 11 0 0
BITMAP
FC
FE
C6
C6
FE
FC
C6
C6
C6
FE
FC
ENDCHAR
STARTCHAR U+0043
ENCODING 67
SWIDTH 444 0
DWIDTH 8 0
BBX 7 11 0 0
BITMAP
7C
FE
C6
C0
C0
C0
C0
C0
C6
FE
7C
ENDCHAR
STARTCHAR U+0044
ENCODING 68
SWIDTH 444 0
DWIDTH 8 0
BBX 7 11 0 0
BITMAP
FC
FE
C6
C6
C6
C6
C6
C6
C6
FE
FC
ENDCHAR
STARTCHAR U+0045
ENCODING 69
SWIDTH 388 0
DWIDTH 7 0
BBX 6 11 0 0
BITMAP
FC
FC
C0
C0
FC
FC
C0
C0
C0
FC
FC
ENDCHAR
STARTCHAR U+0046
ENCODING 70
SWIDTH 388 0
DWIDTH 7 0
BBX 6 11 0 0
BITMAP
FC
FC
C0
C0
C0
FC
FC
C0
C0
C0
C0
ENDCHAR
STARTCHAR U+0047
ENCODING 71
SWIDTH 444 0
DWIDTH 8 0
BBX 7 11 0 0
BITMAP
7C
FE
C6
C0
DE
DE
C6
C6
C6
FE
7C
ENDCHAR
STARTCHAR U+0048
ENCODING 72
SWIDTH 444 0
DWIDTH 8 0
BBX 7 11 0 0
BITMAP
C6
C6
C6
C6
FE
FE
C6
C6
C6
C6
C6
ENDCHAR
STARTCHAR U+0049
ENCODING 73
SWIDTH 277 0
DWIDTH 5 0
BBX 4 11 0 0
BITMAP
F0
F0
60
60
60
60
60
60
60
F0
F0
ENDCHAR
STARTCHAR U+004A
ENCODING 74
SWIDTH 444 0
DWIDTH 8 0
BBX 7 11 0 0
BITMAP
06
06
06
06
06
06
06
06
C6
FE
7C
ENDCHAR
STARTCHAR U+004B
ENCODING 75
SWIDTH 500 0
DWIDTH 9 0
BBX 8 11 0 0
BITMAP
C3
C7
CE
DC
F8
F0
F8
DC
CE
C7
C3
ENDCHAR
STARTCHAR U+004C
ENCODING 76
SWIDTH 444 0
DWIDTH 8 0
BBX 7 11 0 0
BITMAP
C0
C0
C0
C0
C0
C0
C0
C0
C0
FE
FE
ENDCHAR
STARTCHAR U+004D
ENCODING 77
SWIDTH 555 0
DWIDTH 10 0
BBX 9 11 0 0
BITMAP
C180
C180
E380
E380
F780
F780
FF80
DD80
DD80
C980
C980
ENDCHAR
STARTCHAR U+004E
ENCODING 78
SWIDTH 444 0
DWIDTH 8 0
BBX 7 11 0 0
BITMAP
C6
E6
E6
F6
F6
FE
DE
DE
CE
CE
C6
ENDCHAR
STARTCHAR U+004F
ENCODING 79
SWIDTH 444 0
DWIDTH 8 0
BBX 7 11 0 0
BITMAP
7C
FE
C6
C6
C6
C6
C6
C6
C6
FE
7C
ENDCHAR
STARTCHAR U+0050
ENCODING 80
SWIDTH 444 0
DWIDTH 8 0
BBX 7 11 0 0
BITMAP
FC
FE
C6
C6
C6
FE
FC
C0
C0
C0
C0
ENDCHAR
STARTCHAR U+0051
ENCODING 81
SWIDTH 444 0
DWIDTH 8 0
BBX 7 11 0 0
BITMAP
7C
FE
C6
C6
C6
C6
C6
DE
DC
FE
76
ENDCHAR
STARTCHAR U+0052
ENCODING 82
SWIDTH 444 0
DWIDTH 8 0
BBX 7 11 0 0
BITMAP
FC
FE
C6
C6
C6
FE
FC
CC
CE
C6
C6
ENDCHAR
STARTCHAR U+0053
ENCODING 83
SWIDTH 444 0
DWIDTH 8 0
BBX 7 11 0 0
BITMAP
7C
FE
C6
C0
F0
7C
1E
06
C6
FE
7C
ENDCHAR
STARTCHAR U+0054
ENCODING 84
SWIDTH 500 0
DWIDTH 9 0
BBX 8 11 0 0
BITMAP
FF
FF
18
18
18
18
18
18
18
18
18
ENDCHAR
STARTCHAR U+0055
ENCODING 85
SWIDTH 444 0
DWIDTH 8 0
BBX 7 11 0 0
BITMAP
C6
C6
C6
C6
C6
C6
C6
C6
C6
FE
7C
ENDCHAR
STARTCHAR U+0056
ENCODING 86
SWIDTH 444 0
DWIDTH 8 0
BBX 7 11 0 0
BITMAP
C6
C6
C6
C6
C6
C6
C6
EE
7C
38
10
ENDCHAR
STARTCHAR U+0057
ENCODING 87
SWIDTH 555 0
DWIDTH 10 0
BBX 9 11 0 0
BITMAP
C180
C180
C980
C980
DD80
DD80
FF80
F780
7700
6300
6300
ENDCHAR
STARTCHAR U+0058
ENCODING 88
SWIDTH 444 0
DWIDTH 8 0
BBX 7 11 0 0
BITMAP
C6
C6
EE
6C
7C
38
7C
6C
EE
C6
C6
ENDCHAR
STARTCHAR U+0059
ENCODING 89
SWIDTH 500 0
DWIDTH 9 0
BBX 8 11 0 0
BITMAP
C3
C3
E7
66
7E
3C
3C
18
18
18
18
ENDCHAR
STARTCHAR U+005A
ENCODING 90
SWIDTH 444 0
DWIDTH 8 0
BBX 7 11 0 0
BITMAP
FE
FE
06
0E
1C
38
70
E0
C0
FE
FE
ENDCHAR
STARTCHAR U+005B
ENCODING 91
SWIDTH 277 0
DWIDTH 5 0
BBX 4 11 0 0
BITMAP
F0
F0
C0
C0
C0
C0
C0
C0
C0
F0
F0
ENDCHAR
STARTCHAR U+005C
ENCODING 92
SWIDTH 388 0
DWIDTH 7 0
BBX 6 11 0 0
BITMAP
C0
C0
E0
60
70
30
38
18
1C
0C
0C
ENDCHAR
STARTCHAR U+005D
ENCODING 93
SWIDTH 277 0
DWIDTH 5 0
BBX 4 11 0 0
BITMAP
F0
F0
30
30
30
30
30
30
30
F0
F0
ENDCHAR
STARTCHAR U+005E
ENCODING 94
SWIDTH 333 0
DWIDTH 6 0
BBX 5 4 0 7
BITMAP
20
70
F8
D8
ENDCHAR
STARTCHAR U+005F
ENCODING 95
SWIDTH 333 0
DWIDTH 6 0
BBX 5 2 0 0
BITMAP
F8
F8
ENDCHAR
STARTCHAR U+0060
ENCODING 96
SWIDTH 277 0
DWIDTH 5 0
BBX 4 4 0 7
BITMAP
C0
E0
70
30
ENDCHAR
STARTCHAR U+0061
ENCODING 97
SWIDTH 388 0
DWIDTH 7 0
BBX 6 8 0 0
BITMAP
F8
FC
0C
7C
FC
CC
FC
7C
ENDCHAR
STARTCHAR U+0062
ENCODING 98
SWIDTH 444 0
DWIDTH 8 0
BBX 7 11 0 0
BITMAP
C0
C0
C0
FC
FE
C6
C6
C6
C6
FE
FC
ENDCHAR
STARTCHAR U+0063
ENCODING 99
SWIDTH 388 0
DWIDTH 7 0
BBX 6 8 0 0
BITMAP
7C
FC
C0
C0
C0
C0
FC
7C
ENDCHAR
STARTCHAR U+0064
ENCODING 100
SWIDTH 444 0
DWIDTH 8 0
BBX 7 11 0 0
BITMAP
06
06
06
7E
FE
C6
C6
C6
C6
FE
7E
ENDCHAR
STARTCHAR U+0065
ENCODING 101
SWIDTH 444 0
DWIDTH 8 0
BBX 7 8 0 0
BITMAP
7C
FE
C6
FE
FE
C0
FE
7E
ENDCHAR
STARTCHAR U+0066
ENCODING 102
SWIDTH 333 0
DWIDTH 6 0
BBX 5 11 0 0
BITMAP
38
78
60
F8
F8
60
60
60
60
60
60
ENDCHAR
STARTCHAR U+0067
ENCODING 103
SWIDTH 444 0
DWIDTH 8 0
BBX 7 10 0 -2
BITMAP
7E
FE
C6
C6
C6
FE
7E
06
7E
7C
ENDCHAR
STARTCHAR U+0068
ENCODING 104
SWIDTH 444 0
DWIDTH 8 0
BBX 7 11 0 0
BITMAP
C0
C0
C0
FC
FE
C6
C6
C6
C6
C6
C6
ENDCHAR
STARTCHAR U+0069
ENCODING 105
SWIDTH 166 0
DWIDTH 3 0
BBX 2 11 0 0
BITMAP
C0
C0
00
C0
C0
C0
C0
C0
C0
C0
C0
ENDCHAR
STARTCHAR U+006A
ENCODING 106
SWIDTH 277 0
DWIDTH 5 0
BBX 4 13 0 -2
BITMAP
30
30
00
30
30
30
30
30
30
30
30
F0
E0
ENDCHAR
STARTCHAR U+006B
ENCODING 107
SWIDTH 444 0
DWIDTH 8 0
BBX 7 11 0 0
BITMAP
C0
C0
C0
C6
CE
DC
F8
FC
CE
C6
C6
ENDCHAR
STARTCHAR U+006C
ENCODING 108
SWIDTH 166 0
DWIDTH 3 0
BBX 2 11 0 0
BITMAP
C0
C0
C0
C0
C0
C0
C0
C0
C0
C0
C0
ENDCHAR
STARTCHAR U+006D
ENCODING 109
SWIDTH 500 0
DWIDTH 9 0
BBX 8 8 0 0
BITMAP
FE
FF
DB
DB
DB
DB
DB
DB
ENDCHAR
STARTCHAR U+006E
ENCODING 110
SWIDTH 444 0
DWIDTH 8 0
BBX 7 8 0 0
BITMAP
FC
FE
C6
C6
C6
C6
C6
C6
ENDCHAR
STARTCHAR U+006F
ENCODING 111
SWIDTH 444 0
DWIDTH 8 0
BBX 7 8 0 0
BITMAP
7C
FE
C6
C6
C6
C6
FE
7C
ENDCHAR
STARTCHAR U+0070
ENCODING 112
SWIDTH 444 0
DWIDTH 8 0
BBX 7 10 0 -2
BITMAP
FC
FE
C6
C6
C6
FE
FC
C0
C0
C0
ENDCHAR
STARTCHAR U+0071
ENCODING 113
SWIDTH 444 0
DWIDTH 8 0
BBX 7 10 0 -2
BITMAP
7E
FE
C6
C6
C6
FE
7E
06
06
06
ENDCHAR
STARTCHAR U+0072
ENCODING 114
SWIDTH 333 0
DWIDTH 6 0
BBX 5 8 0 0
BITMAP
D8
F8
E0
C0
C0
C0
C0
C0
ENDCHAR
STARTCHAR U+0073
ENCODING 115
SWIDTH 388 0
DWIDTH 7 0
BBX 6 8 0 0
BITMAP
7C
FC
C0
F8
7C
0C
FC
F8
ENDCHAR
STARTCHAR U+0074
ENCODING 116
SWIDTH 333 0
DWIDTH 6 0
BBX 5 10 0 0
BITMAP
60
60
F8
F8
60
60
60
60
78
38
ENDCHAR
STARTCHAR U+0075
ENCODING 117
SWIDTH 444 0
DWIDTH 8 0
BBX 7 8 0 0
BITMAP
C6
C6
C6
C6
C6
C6
FE
7E
ENDCHAR
STARTCHAR U+0076
ENCODING 118
SWIDTH 444 0
DWIDTH 8 0
BBX 7 8 0 0
BITMAP
C6
C6
C6
C6
EE
7C
38
10
ENDCHAR
STARTCHAR U+0077
ENCODING 119
SWIDTH 500 0
DWIDTH 9 0
BBX 8 8 0 0
BITMAP
DB
DB
DB
DB
DB
DB
FF
7E
ENDCHAR
STARTCHAR U+0078
ENCODING 120
SWIDTH 444 0
DWIDTH 8 0
BBX 7 8 0 0
BITMAP
C6
EE
7C
38
38
7C
EE
C6
ENDCHAR
STARTCHAR U+0079
ENCODING 121
SWIDTH 444 0
DWIDTH 8 0
BBX 7 10 0 -2
BITMAP
C6
C6
C6
C6
C6
FE
7E
06
7E
7C
ENDCHAR
STARTCHAR U+007A
ENCODING 122
SWIDTH 388 0
DWIDTH 7 0
BBX 6 8 0 0
BITMAP
FC
FC
1C
38
70
E0
FC
FC
ENDCHAR
STARTCHAR U+007B
ENCODING 123
SWIDTH 333 0
DWIDTH 6 0
BBX 5 11 0 0
BITMAP
38
78
60
60
60
C0
60
60
60
78
38
ENDCHAR
STARTCHAR U+007C
ENCODING 124
SWIDTH 166 0
DWIDTH 3 0
BBX 2 11 0 0
BITMAP
C0
C0
C0
C0
C0
C0
C0
C0
C0
C0
C0
ENDCHAR
STARTCHAR U+007D
ENCODING 125
SWIDTH 333 0
DWIDTH 6 0
BBX 5 11 0 0
BITMAP
E0
F0
30
30
30
18
30
30
30
F0
E0
ENDCHAR
STARTCHAR U+007E
ENCODING 126
SWIDTH 555 0
DWIDTH 10 0
BBX 9 3 0 4
BITMAP
7980
FF80
CF00
ENDCHAR
STARTCHAR U+00A0
ENCODING 160
SWIDTH 277 0
DWIDTH 5 0
BBX 0 0 0 0
BITMAP
ENDCHAR
STARTCHAR U+00A1
ENCODING 161
SWIDTH 166 0
DWIDTH 3 0
BBX 2 11 0 -3
BITMAP
C0
C0
00
C0
C0
C0
C0
C0
C0
C0
C0
ENDCHAR
STARTCHAR U+00A2
ENCODING 162
SWIDTH 444 0
DWIDTH 8 0
BBX 7 11 0 0
BITMAP
18
18
7E
FE
D8
D8
D8
FE
7E
18
18
ENDCHAR
STARTCHAR U+00A3
ENCODING 163
SWIDTH 555 0
DWIDTH 10 0
BBX 9 11 0 0
BITMAP
0F00
1F00
1800
3E00
3E00
1800
7800
F980
D980
FF80
7700
ENDCHAR
STARTCHAR U+00A4
ENCODING 164
SWIDTH 500 0
DWIDTH 9 0
BBX 8 8 0 1
BITMAP
BD
7E
E7
C3
C3
E7
7E
BD
ENDCHAR
STARTCHAR U+00A5
ENCODING 165
SWIDTH 500 0
DWIDTH 9 0
BBX 8 10 0 0
BITMAP
C3
E7
7E
3C
FF
18
FF
FF
18
18
ENDCHAR
STARTCHAR U+00A6
ENCODING 166
SWIDTH 166 0
DWIDTH 3 0
BBX 2 11 0 0
BITMAP
C0
C0
C0
C0
C0
00
C0
C0
C0
C0
C0
ENDCHAR
STARTCHAR U+00A7
ENCODING 167
SWIDTH 333 0
DWIDTH 6 0
BBX 5 11 0 0
BITMAP
78
F8
C0
F0
78
D8
F0
78
18
F8
F0
ENDCHAR
STARTCHAR U+00A8
ENCODING 168
SWIDTH 333 0
DWIDTH 6 0
BBX 5 2 0 9
BITMAP
D8
D8
ENDCHAR
STARTCHAR U+00A9
ENCODING 169
SWIDTH 666 0
DWIDTH 12 0
BBX 11 11 0 0
BITMAP
3F80
7FC0
E0E0
CE60
DE60
D860
DE60
CE60
E0E0
7FC0
3F80
ENDCHAR
STARTCHAR U+00AB
ENCODING 171
SWIDTH 444 0
DWIDTH 8 0
BBX 7 5 0 2
BITMAP
36
6C
D8
6C
36
ENDCHAR
STARTCHAR U+00AC
ENCODING 172
SWIDTH 555 0
DWIDTH 10 0
BBX 9 6 0 0
BITMAP
FF80
FF80
0180
0180
0180
0180
ENDCHAR
STARTCHAR U+00AE
ENCODING 174
SWIDTH 666 0
DWIDTH 12 0
BBX 11 11 0 0
BITMAP
3F80
7FC0
E0E0
DE60
DB60
DB60
DE60
DB60
E0E0
7FC0
3F80
ENDCHAR
STARTCHAR U+00AF
ENCODING 175
SWIDTH 333 0
DWIDTH 6 0
BBX 5 2 0 9
BITMAP
F8
F8
ENDCHAR
STARTCHAR U+00B0
ENCODING 176
SWIDTH 333 0
DWIDTH 6 0
BBX 5 5 0 6
BITMAP
70
F8
D8
F8
70
ENDCHAR
STARTCHAR U+00B1
ENCODING 177
SWIDTH 500 0
DWIDTH 9 0
BBX 8 10 0 0
BITMAP
18
18
18
FF
FF
18
18
18
FF
FF
ENDCHAR
STARTCHAR U+00B4
ENCODING 180
SWIDTH 277 0
DWIDTH 5 0
BBX 4 3 0 10
BITMAP
30
60
C0
ENDCHAR
STARTCHAR U+00B5
ENCODING 181
SWIDTH 444 0
DWIDTH 8 0
BBX 7 10 0 -2
BITMAP
C6
C6
C6
C6
C6
C6
FE
FE
C0
C0
ENDCHAR
STARTCHAR U+00B6
ENCODING 182
SWIDTH 388 0
DWIDTH 7 0
BBX 6 11 0 0
BITMAP
7C
F4
F4
F4
74
14
14
14
14
14
14
ENDCHAR
STARTCHAR U+00B7
ENCODING 183
SWIDTH 166 0
DWIDTH 3 0
BBX 2 2 0 5
BITMAP
C0
C0
ENDCHAR
STARTCHAR U+00B8
ENCODING 184
SWIDTH 222 0
DWIDTH 4 0
BBX 3 3 0 -2
BITMAP
40
20
C0
ENDCHAR
STARTCHAR U+00BB
ENCODING 187
SWIDTH 444 0
DWIDTH 8 0
BBX 7 5 0 2
BITMAP
D8
6C
36
6C
D8
ENDCHAR
STARTCHAR U+00BF
ENCODING 191
SWIDTH 333 0
DWIDTH 6 0
BBX 6 11 0 -3
BITMAP
30
30
00
30
30
70
E0
CC
CC
FC
78
ENDCHAR
STARTCHAR U+00C0
ENCODING 192
SWIDTH 444 0
DWIDTH 8 0
BBX 7 14 0 0
BITMAP
30
18
00
7C
FE
C6
C6
C6
C6
FE
FE
C6
C6
C6
ENDCHAR
STARTCHAR U+00C1
ENCODING 193
SWIDTH 444 0
DWIDTH 8 0
BBX 7 14 0 0
BITMAP
18
30
00
7C
FE
C6
C6
C6
C6
FE
FE
C6
C6
C6
ENDCHAR
STARTCHAR U+00C2
ENCODING 194
SWIDTH 444 0
DWIDTH 8 0
BBX 7 14 0 0
BITMAP
38
6C
00
7C
FE
C6
C6
C6
C6
FE
FE
C6
C6
C6
ENDCHAR
STARTCHAR U+00C3
ENCODING 195
SWIDTH 444 0
DWIDTH 8 0
BBX 7 14 0 0
BITMAP
34
58
00
7C
FE
C6
C6
C6
C6
FE
FE
C6
C6
C6
ENDCHAR
STARTCHAR U+00C4
ENCODING 196
SWIDTH 444 0
DWIDTH 8 0
BBX 7 14 0 0
BITMAP
6C
6C
00
7C
FE
C6
C6
C6
C6
FE
FE
C6
C6
C6
ENDCHAR
STARTCHAR U+00C5
ENCODING 197
SWIDTH 444 0
DWIDTH 8 0
BBX 7 14 0 0
BITMAP
10
28
10
7C
FE
C6
C6
C6
C6
FE
FE
C6
C6
C6
ENDCHAR
STARTCHAR U+00C6
ENCODING 198
SWIDTH 555 0
DWIDTH 10 0
BBX 9 11 0 0
BITMAP
7F80
FF80
CC00
CC00
CF80
CF80
FC00
FC00
CC00
CF80
CF80
ENDCHAR
STARTCHAR U+00C7
ENCODING 199
SWIDTH 444 0
DWIDTH 8 0
BBX 7 13 0 -2
BITMAP
7C
FE
C6
C0
C0
C0
C0
C0
C6
FE
7C
08
30
ENDCHAR
STARTCHAR U+00C8
ENCODING 200
SWIDTH 388 0
DWIDTH 7 0
BBX 6 14 0 0
BITMAP
60
30
00
FC
FC
C0
C0
FC
FC
C0
C0
C0
FC
FC
ENDCHAR
STARTCHAR U+00C9
ENCODING 201
SWIDTH 388 0
DWIDTH 7 0
BBX 6 14 0 0
BITMAP
18
30
00
FC
FC
C0
C0
FC
FC
C0
C0
C0
FC
FC
ENDCHAR
STARTCHAR U+00CA
ENCODING 202
SWIDTH 388 0
DWIDTH 7 0
BBX 6 14 0 0
BITMAP
38
6C
00
FC
FC
C0
C0
FC
FC
C0
C0
C0
FC
FC
ENDCHAR
STARTCHAR U+00CB
ENCODING 203
SWIDTH 388 0
DWIDTH 7 0
BBX 6 14 0 0
BITMAP
6C
6C
00
FC
FC
C0
C0
FC
FC
C0
C0
C0
FC
FC
ENDCHAR
STARTCHAR U+00CC
ENCODING 204
SWIDTH 277 0
DWIDTH 5 0
BBX 4 14 0 0
BITMAP
C0
60
00
F0
F0
60
60
60
60
60
60
60
F0
F0
ENDCHAR
STARTCHAR U+00CD
ENCODING 205
SWIDTH 277 0
DWIDTH 5 0
BBX 4 14 0 0
BITMAP
30
60
00
F0
F0
60
60
60
60
60
60
60
F0
F0
ENDCHAR
STARTCHAR U+00CE
ENCODING 206
SWIDTH 277 0
DWIDTH 5 0
BBX 5 14 0 0
BITMAP
70
D8
00
F0
F0
60
60
60
60
60
60
60
F0
F0
ENDCHAR
STARTCHAR U+00CF
ENCODING 207
SWIDTH 277 0
DWIDTH 5 0
BBX 5 14 0 0
BITMAP
D8
D8
00
F0
F0
60
60
60
60
60
60
60
F0
F0
ENDCHAR
STARTCHAR U+00D0
ENCODING 208
SWIDTH 500 0
DWIDTH 9 0
BBX 8 11 0 0
BITMAP
7E
7F
63
63
FB
FB
63
63
63
7F
7E
ENDCHAR
STARTCHAR U+00D1
ENCODING 209
SWIDTH 444 0
DWIDTH 8 0
BBX 7 14 0 0
BITMAP
34
58
00
C6
E6
E6
F6
F6
FE
DE
DE
CE
CE
C6
ENDCHAR
STARTCHAR U+00D2
ENCODING 210
SWIDTH 444 0
DWIDTH 8 0
BBX 7 14 0 0
BITMAP
30
18
00
7C
FE
C6
C6
C6
C6
C6
C6
C6
FE
7C
ENDCHAR
STARTCHAR U+00D3
ENCODING 211
SWIDTH 444 0
DWIDTH 8 0
BBX 7 14 0 0
BITMAP
18
30
00
7C
FE
C6
C6
C6
C6
C6
C6
C6
FE
7C
ENDCHAR
STARTCHAR U+00D4
ENCODING 212
SWIDTH 444 0
DWIDTH 8 0
BBX 7 14 0 0
BITMAP
38
6C
00
7C
FE
C6
C6
C6
C6
C6
C6
C6
FE
7C
ENDCHAR
STARTCHAR U+00D5
ENCODING 213
SWIDTH 444 0
DWIDTH 8 0
BBX 7 14 0 0
BITMAP
34
58
00
7C
FE
C6
C6
C6
C6
C6
C6
C6
FE
7C
ENDCHAR
STARTCHAR U+00D6
ENCODING 214
SWIDTH 444 0
DWIDTH 8 0
BBX 7 14 0 0
BITMAP
6C
6C
00
7C
FE
C6
C6
C6
C6
C6
C6
C6
FE
7C
ENDCHAR
STARTCHAR U+00D7
ENCODING 215
SWIDTH 500 0
DWIDTH 9 0
BBX 8 8 0 1
BITMAP
C3
E7
7E
3C
3C
7E
E7
C3
ENDCHAR
STARTCHAR U+00D8
ENCODING 216
SWIDTH 555 0
DWIDTH 10 0
BBX 9 11 0 0
BITMAP
3E80
7F80
6380
6700
6F00
7F00
7B00
7300
E300
FF00
BE00
ENDCHAR
STARTCHAR U+00D9
ENCODING 217
SWIDTH 444 0
DWIDTH 8 0
BBX 7 14 0 0
BITMAP
30
18
00
C6
C6
C6
C6
C6
C6
C6
C6
C6
FE
7C
ENDCHAR
STARTCHAR U+00DA
ENCODING 218
SWIDTH 444 0
DWIDTH 8 0
BBX 7 14 0 0
BITMAP
18
30
00
C6
C6
C6
C6
C6
C6
C6
C6
C6
FE
7C
ENDCHAR
STARTCHAR U+00DB
ENCODING 219
SWIDTH 444 0
DWIDTH 8 0
BBX 7 14 0 0
BITMAP
38
6C
00
C6
C6
C6
C6
C6
C6
C6
C6
C6
FE
7C
ENDCHAR
STARTCHAR U+00DC
ENCODING 220
SWIDTH 444 0
DWIDTH 8 0
BBX 7 14 0 0
BITMAP
6C
6C
00
C6
C6
C6
C6
C6
C6
C6
C6
C6
FE
7C
ENDCHAR
STARTCHAR U+00DD
ENCODING 221
SWIDTH 500 0
DWIDTH 9 0
BBX 8 14 0 0
BITMAP
0C
18
00
C3
C3
E7
66
7E
3C
3C
18
18
18
18
ENDCHAR
STARTCHAR U+00DE
ENCODING 222
SWIDTH 444 0
DWIDTH 8 0
BBX 7 14 0 0
BITMAP
C0
C0
C0
FC
FE
C6
C6
C6
FE
FC
C0
C0
C0
C0
ENDCHAR
STARTCHAR U+00DF
ENCODING 223
SWIDTH 444 0
DWIDTH 8 0
BBX 7 11 0 0
BITMAP
7C
FE
C6
C6
DE
DC
C6
C6
C6
DE
DC
ENDCHAR
STARTCHAR U+00E0
ENCODING 224
SWIDTH 388 0
DWIDTH 7 0
BBX 6 11 0 0
BITMAP
60
30
00
F8
FC
0C
7C
FC
CC
FC
7C
ENDCHAR
STARTCHAR U+00E1
ENCODING 225
SWIDTH 388 0
DWIDTH 7 0
BBX 6 11 0 0
BITMAP
18
30
00
F8
FC
0C
7C
FC
CC
FC
7C
ENDCHAR
STARTCHAR U+00E2
ENCODING 226
SWIDTH 388 0
DWIDTH 7 0
BBX 6 11 0 0
BITMAP
70
D8
00
F8
FC
0C
7C
FC
CC
FC
7C
ENDCHAR
STARTCHAR U+00E3
ENCODING 227
SWIDTH 388 0
DWIDTH 7 0
BBX 6 11 0 0
BITMAP
68
B0
00
F8
FC
0C
7C
FC
CC
FC
7C
ENDCHAR
STARTCHAR U+00E4
ENCODING 228
SWIDTH 388 0
DWIDTH 7 0
BBX 6 11 0 0
BITMAP
D8
D8
00
F8
FC
0C
7C
FC
CC
FC
7C
ENDCHAR
STARTCHAR U+00E5
ENCODING 229
SWIDTH 388 0
DWIDTH 7 0
BBX 6 12 0 0
BITMAP
20
50
20
00
F8
FC
0C
7C
FC
CC
FC
7C
ENDCHAR
STARTCHAR U+00E6
ENCODING 230
SWIDTH 555 0
DWIDTH 10 0
BBX 10 8 0 0
BITMAP
F780
FFC0
0CC0
7FC0
FFC0
CC00
FFC0
7BC0
ENDCHAR
STARTCHAR U+00E7
ENCODING 231
SWIDTH 388 0
DWIDTH 7 0
BBX 6 10 0 -2
BITMAP
7C
FC
C0
C0
C0
C0
FC
7C
08
30
ENDCHAR
STARTCHAR U+00E8
ENCODING 232
SWIDTH 444 0
DWIDTH 8 0
BBX 7 11 0 0
BITMAP
30
18
00
7C
FE
C6
FE
FE
C0
FE
7E
ENDCHAR
STARTCHAR U+00E9
ENCODING 233
SWIDTH 444 0
DWIDTH 8 0
BBX 7 11 0 0
BITMAP
18
30
00
7C
FE
C6
FE
FE
C0
FE
7E
ENDCHAR
STARTCHAR U+00EA
ENCODING 234
SWIDTH 444 0
DWIDTH 8 0
BBX 7 11 0 0
BITMAP
38
6C
00
7C
FE
C6
FE
FE
C0
FE
7E
ENDCHAR
STARTCHAR U+00EB
ENCODING 235
SWIDTH 444 0
DWIDTH 8 0
BBX 7 11 0 0
BITMAP
6C
6C
00
7C
FE
C6
FE
FE
C0
FE
7E
ENDCHAR
STARTCHAR U+00EC
ENCODING 236
SWIDTH 222 0
DWIDTH 4 0
BBX 3 11 0 0
BITMAP
C0
60
00
60
60
60
60
60
60
60
60
ENDCHAR
STARTCHAR U+00ED
ENCODING 237
SWIDTH 222 0
DWIDTH 4 0
BBX 3 11 0 0
BITMAP
60
C0
00
C0
C0
C0
C0
C0
C0
C0
C0
ENDCHAR
STARTCHAR U+00EE
ENCODING 238
SWIDTH 333 0
DWIDTH 6 0
BBX 5 11 0 0
BITMAP
70
D8
00
60
60
60
60
60
60
60
60
ENDCHAR
STARTCHAR U+00EF
ENCODING 239
SWIDTH 333 0
DWIDTH 6 0
BBX 5 11 0 0
BITMAP
D8
D8
00
60
60
60
60
60
60
60
60
ENDCHAR
STARTCHAR U+00F0
ENCODING 240
SWIDTH 444 0
DWIDTH 8 0
BBX 7 11 0 0
BITMAP
34
18
2C
06
7E
FE
C6
C6
C6
FE
7C
ENDCHAR
STARTCHAR U+00F1
ENCODING 241
SWIDTH 444 0
DWIDTH 8 0
BBX 7 11 0 0
BITMAP
34
58
00
FC
FE
C6
C6
C6
C6
C6
C6
ENDCHAR
STARTCHAR U+00F2
ENCODING 242
SWIDTH 444 0
DWIDTH 8 0
BBX 7 11 0 0
BITMAP
30
18
00
7C
FE
C6
C6
C6
C6
FE
7C
ENDCHAR
STARTCHAR U+00F3
ENCODING 243
SWIDTH 444 0
DWIDTH 8 0
BBX 7 11 0 0
BITMAP
18
30
00
7C
FE
C6
C6
C6
C6
FE
7C
ENDCHAR
STARTCHAR U+00F4
ENCODING 244
SWIDTH 444 0
DWIDTH 8 0
BBX 7 11 0 0
BITMAP
38
6C
00
7C
FE
C6
C6
C6
C6
FE
7C
ENDCHAR
STARTCHAR U+00F5
ENCODING 245
SWIDTH 444 0
DWIDTH 8 0
BBX 7 11 0 0
BITMAP
34
58
00
7C
FE
C6
C6
C6
C6
FE
7C
ENDCHAR
STARTCHAR U+00F6
ENCODING 246
SWIDTH 444 0
DWIDTH 8 0
BBX 7 11 0 0
BITMAP
6C
6C
00
7C
FE
C6
C6
C6
C6
FE
7C
ENDCHAR
STARTCHAR U+00F7
ENCODING 247
SWIDTH 500 0
DWIDTH 9 0
BBX 8 8 0 1
BITMAP
18
18
00
FF
FF
00
18
18
ENDCHAR
STARTCHAR U+00F8
ENCODING 248
SWIDTH 555 0
DWIDTH 10 0
BBX 9 8 0 0
BITMAP
3E80
7F80
6700
6F00
7B00
7300
FF00
BE00
ENDCHAR
STARTCHAR U+00F9
ENCODING 249
SWIDTH 444 0
DWIDTH 8 0
BBX 7 11 0 0
BITMAP
30
18
00
C6
C6
C6
C6
C6
C6
FE
7E
ENDCHAR
STARTCHAR U+00FA
ENCODING 250
SWIDTH 444 0
DWIDTH 8 0
BBX 7 11 0 0
BITMAP
18
30
00
C6
C6
C6
C6
C6
C6
FE
7E
ENDCHAR
STARTCHAR U+00FB
ENCODING 251
SWIDTH 444 0
DWIDTH 8 0
BBX 7 11 0 0
BITMAP
38
6C
00
C6
C6
C6
C6
C6
C6
FE
7E
ENDCHAR
STARTCHAR U+00FC
ENCODING 252
SWIDTH 444 0
DWIDTH 8 0
BBX 7 11 0 0
BITMAP
6C
6C
00
C6
C6
C6
C6
C6
C6
FE
7E
ENDCHAR
STARTCHAR U+00FD
ENCODING 253
SWIDTH 444 0
DWIDTH 8 0
BBX 7 13 0 -2
BITMAP
18
30
00
C6
C6
C6
C6
C6
FE
7E
06
7E
7C
ENDCHAR
STARTCHAR U+00FE
ENCODING 254
SWIDTH 444 0
DWIDTH 8 0
BBX 7 13 0 -2
BITMAP
C0
C0
C0
FC
FE
C6
C6
C6
FE
FC
C0
C0
C0
ENDCHAR
STARTCHAR U+00FF
ENCODING 255
SWIDTH 444 0
DWIDTH 8 0
BBX 7 13 0 -2
BITMAP
6C
6C
00
C6
C6
C6
C6
C6
FE
7E
06
7E
7C
ENDCHAR
STARTCHAR U+2010
ENCODING 8208
SWIDTH 333 0
DWIDTH 6 0
BBX 5 2 0 4
BITMAP
F8
F8
ENDCHAR
STARTCHAR U+2011
ENCODING 8209
SWIDTH 333 0
DWIDTH 6 0
BBX 5 2 0 4
BITMAP
F8
F8
ENDCHAR
STARTCHAR U+2012
ENCODING 8210
SWIDTH 444 0
DWIDTH 8 0
BBX 7 2 0 4
BITMAP
FE
FE
ENDCHAR
STARTCHAR U+2013
ENCODING 8211
SWIDTH 388 0
DWIDTH 7 0
BBX 6 2 0 4
BITMAP
FC
FC
ENDCHAR
STARTCHAR U+2014
ENCODING 8212
SWIDTH 666 0
DWIDTH 12 0
BBX 11 2 0 4
BITMAP
FFE0
FFE0
ENDCHAR
STARTCHAR U+2015
ENCODING 8213
SWIDTH 666 0
DWIDTH 12 0
BBX 11 2 0 4
BITMAP
FFE0
FFE0
ENDCHAR
STARTCHAR U+2016
ENCODING 8214
SWIDTH 333 0
DWIDTH 6 0
BBX 5 11 0 0
BITMAP
D8
D8
D8
D8
D8
D8
D8
D8
D8
D8
D8
ENDCHAR
STARTCHAR U+2017
ENCODING 8215
SWIDTH 388 0
DWIDTH 7 0
BBX 6 5 0 0
BITMAP
FC
FC
00
FC
FC
ENDCHAR
STARTCHAR U+2018
ENCODING 8216
SWIDTH 166 0
DWIDTH 3 0
BBX 2 4 0 7
BITMAP
40
80
C0
C0
ENDCHAR
STARTCHAR U+2019
ENCODING 8217
SWIDTH 166 0
DWIDTH 3 0
BBX 2 4 0 7
BITMAP
C0
C0
40
80
ENDCHAR
STARTCHAR U+201A
ENCODING 8218
SWIDTH 166 0
DWIDTH 3 0
BBX 2 4 0 -2
BITMAP
C0
C0
40
80
ENDCHAR
STARTCHAR U+201B
ENCODING 8219
SWIDTH 166 0
DWIDTH 3 0
BBX 2 4 0 7
BITMAP
C0
C0
80
40
ENDCHAR
STARTCHAR U+201C
ENCODING 8220
SWIDTH 333 0
DWIDTH 6 0
BBX 5 4 0 7
BITMAP
48
90
D8
D8
ENDCHAR
STARTCHAR U+201D
ENCODING 8221
SWIDTH 333 0
DWIDTH 6 0
BBX 5 4 0 7
BITMAP
D8
D8
48
90
ENDCHAR
STARTCHAR U+201E
ENCODING 8222
SWIDTH 333 0
DWIDTH 6 0
BBX 5 4 0 -2
BITMAP
D8
D8
48
90
ENDCHAR
STARTCHAR U+201F
ENCODING 8223
SWIDTH 333 0
DWIDTH 6 0
BBX 5 4 0 7
BITMAP
D8
D8
90
48
ENDCHAR
STARTCHAR U+2022
ENCODING 8226
SWIDTH 277 0
DWIDTH 5 0
BBX 4 4 0 3
BITMAP
60
F0
F0
60
ENDCHAR
STARTCHAR U+2023
ENCODING 8227
SWIDTH 277 0
DWIDTH 5 0
BBX 3 5 1 3
BITMAP
80
C0
E0
C0
80
ENDCHAR
STARTCHAR U+2024
ENCODING 8228
SWIDTH 166 0
DWIDTH 3 0
BBX 2 2 0 0
BITMAP
C0
C0
ENDCHAR
STARTCHAR U+2025
ENCODING 8229
SWIDTH 444 0
DWIDTH 8 0
BBX 7 2 0 5
BITMAP
C6
C6
ENDCHAR
STARTCHAR U+2026
ENCODING 8230
SWIDTH 500 0
DWIDTH 9 0
BBX 8 2 0 5
BITMAP
DB
DB
ENDCHAR
STARTCHAR U+2027
ENCODING 8231
SWIDTH 166 0
DWIDTH 3 0
BBX 2 2 0 5
BITMAP
C0
C0
ENDCHAR
STARTCHAR U+2030
ENCODING 8240
SWIDTH 833 0
DWIDTH 15 0
BBX 14 11 0 0
BITMAP
7000
F8C0
D9C0
FB80
7700
0E00
1DD8
3BFC
736C
63FC
01D8
ENDCHAR
STARTCHAR U+2031
ENCODING 8241
SWIDTH 1000 0
DWIDTH 18 0
BBX 17 11 0 0
BITMAP
700000
F8C000
D9C000
FB8000
770000
0E0000
1DDB00
3BFF80
736D80
63FF80
01DB00
ENDCHAR
STARTCHAR U+2032
ENCODING 8242
SWIDTH 166 0
DWIDTH 3 0
BBX 2 4 0 7
BITMAP
C0
C0
40
80
ENDCHAR
STARTCHAR U+2033
ENCODING 8243
SWIDTH 333 0
DWIDTH 6 0
BBX 5 4 0 7
BITMAP
D8
D8
48
90
ENDCHAR
STARTCHAR U+2034
ENCODING 8244
SWIDTH 500 0
DWIDTH 9 0
BBX 8 4 0 7
BITMAP
DB
DB
49
92
ENDCHAR
STARTCHAR U+2035
ENCODING 8245
SWIDTH 166 0
DWIDTH 3 0
BBX 2 4 0 7
BITMAP
C0
C0
80
40
ENDCHAR
STARTCHAR U+2036
ENCODING 8246
SWIDTH 333 0
DWIDTH 6 0
BBX 5 4 0 7
BITMAP
D8
D8
90
48
ENDCHAR
STARTCHAR U+2037
ENCODING 8247
SWIDTH 500 0
DWIDTH 9 0
BBX 8 4 0 7
BITMAP
DB
DB
92
49
ENDCHAR
STARTCHAR U+2038
ENCODING 8248
SWIDTH 333 0
DWIDTH 6 0
BBX 5 3 0 0
BITMAP
20
70
D8
ENDCHAR
STARTCHAR U+2039
ENCODING 8249
SWIDTH 277 0
DWIDTH 5 0
BBX 4 5 0 2
BITMAP
30
60
C0
60
30
ENDCHAR
STARTCHAR U+203A
ENCODING 8250
SWIDTH 277 0
DWIDTH 5 0
BBX 4 5 0 2
BITMAP
C0
60
30
60
C0
ENDCHAR
STARTCHAR U+203B
ENCODING 8251
SWIDTH 666 0
DWIDTH 12 0
BBX 11 11 0 0
BITMAP
CE60
EEE0
71C0
3B80
DF60
CE60
DF60
3B80
71C0
EEE0
CE60
ENDCHAR
STARTCHAR U+203C
ENCODING 8252
SWIDTH 333 0
DWIDTH 6 0
BBX 5 11 0 0
BITMAP
D8
D8
D8
D8
D8
D8
D8
D8
00
D8
D8
ENDCHAR
STARTCHAR U+203D
ENCODING 8253
SWIDTH 388 0
DWIDTH 7 0
BBX 6 11 0 0
BITMAP
78
FC
CC
FC
3C
38
30
30
00
30
30
ENDCHAR
STARTCHAR U+2043
ENCODING 8259
SWIDTH 277 0
DWIDTH 5 0
BBX 4 2 0 4
BITMAP
F0
F0
ENDCHAR
STARTCHAR U+2044
ENCODING 8260
SWIDTH 388 0
DWIDTH 7 0
BBX 6 11 0 0
BITMAP
0C
0C
1C
18
38
30
70
60
E0
C0
C0
ENDCHAR
STARTCHAR U+2045
ENCODING 8261
SWIDTH 277 0
DWIDTH 5 0
BBX 4 11 0 0
BITMAP
F0
F0
C0
C0
F0
F0
C0
C0
C0
F0
F0
ENDCHAR
STARTCHAR U+2046
ENCODING 8262
SWIDTH 277 0
DWIDTH 5 0
BBX 4 11 0 0
BITMAP
F0
F0
30
30
F0
F0
30
30
30
F0
F0
ENDCHAR
STARTCHAR U+2047
ENCODING 8263
SWIDTH 777 0
DWIDTH 14 0
BBX 13 11 0 0
BITMAP
78F0
FDF8
CD98
CD98
1C30
3870
3060
3060
0000
3060
3060
ENDCHAR
STARTCHAR U+2048
ENCODING 8264
SWIDTH 555 0
DWIDTH 10 0
BBX 9 11 0 0
BITMAP
7980
FD80
CD80
CD80
1D80
3980
3180
3180
0000
3180
3180
ENDCHAR
STARTCHAR U+2049
ENCODING 8265
SWIDTH 555 0
DWIDTH 10 0
BBX 9 11 0 0
BITMAP
CF00
DF80
D980
D980
C380
C700
C600
C600
0000
C600
C600
ENDCHAR
STARTCHAR U+204B
ENCODING 8267
SWIDTH 388 0
DWIDTH 7 0
BBX 6 11 0 0
BITMAP
F8
BC
BC
BC
B8
A0
A0
A0
A0
A0
A0
ENDCHAR
STARTCHAR U+2057
ENCODING 8279
SWIDTH 666 0
DWIDTH 12 0
BBX 11 4 0 7
BITMAP
DB60
DB60
4920
9240
ENDCHAR
STARTCHAR U+20A1
ENCODING 8353
SWIDTH 444 0
DWIDTH 8 0
BBX 7 11 0 0
BITMAP
18
18
7E
FE
D8
D8
D8
FE
7E
18
18
ENDCHAR
STARTCHAR U+20A4
ENCODING 8356
SWIDTH 555 0
DWIDTH 10 0
BBX 9 11 0 0
BITMAP
0F00
1F00
1800
3E00
3E00
1800
7800
F980
D980
FF80
7700
ENDCHAR
STARTCHAR U+20A9
ENCODING 8361
SWIDTH 666 0
DWIDTH 12 0
BBX 11 11 0 0
BITMAP
60C0
60C0
64C0
FFE0
FFE0
6EC0
FFE0
FBE0
3B80
3180
3180
ENDCHAR
STARTCHAR U+20AC
ENCODING 8364
SWIDTH 500 0
DWIDTH 9 0
BBX 8 11 0 0
BITMAP
3E
7F
63
F8
F8
60
F8
F8
63
7F
3E
ENDCHAR
STARTCHAR U+2103
ENCODING 8451
SWIDTH 777 0
DWIDTH 14 0
BBX 13 11 0 0
BITMAP
7000
F9F0
DBF8
FB18
7300
0300
0300
0300
0318
03F8
01F0
ENDCHAR
STARTCHAR U+2109
ENCODING 8457
SWIDTH 722 0
DWIDTH 13 0
BBX 12 11 0 0
BITMAP
7000
FBF0
DBF0
FB00
7300
03F0
03F0
0300
0300
0300
0300
ENDCHAR
STARTCHAR U+2122
ENCODING 8482
SWIDTH 666 0
DWIDTH 12 0
BBX 11 5 0 6
BITMAP
FC60
FEE0
6FE0
6D60
6C60
ENDCHAR
STARTCHAR U+2160
ENCODING 8544
SWIDTH 277 0
DWIDTH 5 0
BBX 4 11 0 0
BITMAP
F0
F0
60
60
60
60
60
60
60
F0
F0
ENDCHAR
STARTCHAR U+2161
ENCODING 8545
SWIDTH 444 0
DWIDTH 8 0
BBX 7 11 0 0
BITMAP
FE
FE
6C
6C
6C
6C
6C
6C
6C
FE
FE
ENDCHAR
STARTCHAR U+2162
ENCODING 8546
SWIDTH 611 0
DWIDTH 11 0
BBX 10 11 0 0
BITMAP
FFC0
FFC0
6D80
6D80
6D80
6D80
6D80
6D80
6D80
FFC0
FFC0
ENDCHAR
STARTCHAR U+2163
ENCODING 8547
SWIDTH 722 0
DWIDTH 13 0
BBX 12 11 0 0
BITMAP
F630
F630
6630
6630
6630
6630
6630
6770
63E0
F1C0
F080
ENDCHAR
STARTCHAR U+2164
ENCODING 8548
SWIDTH 444 0
DWIDTH 8 0
BBX 7 11 0 0
BITMAP
C6
C6
C6
C6
C6
C6
C6
EE
7C
38
10
ENDCHAR
STARTCHAR U+2165
ENCODING 8549
SWIDTH 722 0
DWIDTH 13 0
BBX 12 11 0 0
BITMAP
C6F0
C6F0
C660
C660
C660
C660
C660
EE60
7C60
38F0
10F0
ENDCHAR
STARTCHAR U+2166
ENCODING 8550
SWIDTH 888 0
DWIDTH 16 0
BBX 15 11 0 0
BITMAP
C6FE
C6FE
C66C
C66C
C66C
C66C
C66C
EE6C
7C6C
38FE
10FE
ENDCHAR
STARTCHAR U+2167
ENCODING 8551
SWIDTH 1055 0
DWIDTH 19 0
BBX 18 11 0 0
BITMAP
C6FFC0
C6FFC0
C66D80
C66D80
C66D80
C66D80
C66D80
EE6D80
7C6D80
38FFC0
10FFC0
ENDCHAR
STARTCHAR U+2168
ENCODING 8552
SWIDTH 722 0
DWIDTH 13 0
BBX 12 11 0 0
BITMAP
F630
F630
6770
6360
63E0
61C0
63E0
6360
6770
F630
F630
ENDCHAR
STARTCHAR U+2169
ENCODING 8553
SWIDTH 444 0
DWIDTH 8 0
BBX 7 11 0 0
BITMAP
C6
C6
EE
6C
7C
38
7C
6C
EE
C6
C6
ENDCHAR
STARTCHAR U+216A
ENCODING 8554
SWIDTH 722 0
DWIDTH 13 0
BBX 12 11 0 0
BITMAP
C6F0
C6F0
EE60
6C60
7C60
3860
7C60
6C60
EE60
C6F0
C6F0
ENDCHAR
STARTCHAR U+216B
ENCODING 8555
SWIDTH 888 0
DWIDTH 16 0
BBX 15 11 0 0
BITMAP
C6FE
C6FE
EE6C
6C6C
7C6C
386C
7C6C
6C6C
EE6C
C6FE
C6FE
ENDCHAR
STARTCHAR U+216C
ENCODING 8556
SWIDTH 444 0
DWIDTH 8 0
BBX 7 11 0 0
BITMAP
C0
C0
C0
C0
C0
C0
C0
C0
C0
FE
FE
ENDCHAR
STARTCHAR U+216D
ENCODING 8557
SWIDTH 444 0
DWIDTH 8 0
BBX 7 11 0 0
BITMAP
7C
FE
C6
C0
C0
C0
C0
C0
C6
FE
7C
ENDCHAR
STARTCHAR U+216E
ENCODING 8558
SWIDTH 444 0
DWIDTH 8 0
BBX 7 11 0 0
BITMAP
FC
FE
C6
C6
C6
C6
C6
C6
C6
FE
FC
ENDCHAR
STARTCHAR U+216F
ENCODING 8559
SWIDTH 555 0
DWIDTH 10 0
BBX 9 11 0 0
BITMAP
C180
C180
E380
E380
F780
F780
FF80
DD80
DD80
C980
C980
ENDCHAR
STARTCHAR U+2170
ENCODING 8560
SWIDTH 166 0
DWIDTH 3 0
BBX 2 11 0 0
BITMAP
C0
C0
00
C0
C0
C0
C0
C0
C0
C0
C0
ENDCHAR
STARTCHAR U+2171
ENCODING 8561
SWIDTH 333 0
DWIDTH 6 0
BBX 5 11 0 0
BITMAP
D8
D8
00
D8
D8
D8
D8
D8
D8
D8
D8
ENDCHAR
STARTCHAR U+2172
ENCODING 8562
SWIDTH 500 0
DWIDTH 9 0
BBX 8 11 0 0
BITMAP
DB
DB
00
DB
DB
DB
DB
DB
DB
DB
DB
ENDCHAR
STARTCHAR U+2173
ENCODING 8563
SWIDTH 611 0
DWIDTH 11 0
BBX 10 11 0 0
BITMAP
C000
C000
0000
D8C0
D8C0
D8C0
D8C0
DDC0
CF80
C700
C200
ENDCHAR
STARTCHAR U+2174
ENCODING 8564
SWIDTH 444 0
DWIDTH 8 0
BBX 7 8 0 0
BITMAP
C6
C6
C6
C6
EE
7C
38
10
ENDCHAR
STARTCHAR U+2175
ENCODING 8565
SWIDTH 611 0
DWIDTH 11 0
BBX 10 11 0 0
BITMAP
00C0
00C0
0000
C6C0
C6C0
C6C0
C6C0
EEC0
7CC0
38C0
10C0
ENDCHAR
STARTCHAR U+2176
ENCODING 8566
SWIDTH 777 0
DWIDTH 14 0
BBX 13 11 0 0
BITMAP
00D8
00D8
0000
C6D8
C6D8
C6D8
C6D8
EED8
7CD8
38D8
10D8
ENDCHAR
STARTCHAR U+2177
ENCODING 8567
SWIDTH 944 0
DWIDTH 17 0
BBX 16 11 0 0
BITMAP
00DB
00DB
0000
C6DB
C6DB
C6DB
C6DB
EEDB
7CDB
38DB
10DB
ENDCHAR
STARTCHAR U+2178
ENCODING 8568
SWIDTH 611 0
DWIDTH 11 0
BBX 10 11 0 0
BITMAP
C000
C000
0000
D8C0
DDC0
CF80
C700
C700
CF80
DDC0
D8C0
ENDCHAR
STARTCHAR U+2179
ENCODING 8569
SWIDTH 444 0
DWIDTH 8 0
BBX 7 8 0 0
BITMAP
C6
EE
7C
38
38
7C
EE
C6
ENDCHAR
STARTCHAR U+217A
ENCODING 8570
SWIDTH 611 0
DWIDTH 11 0
BBX 10 11 0 0
BITMAP
00C0
00C0
0000
C6C0
EEC0
7CC0
38C0
38C0
7CC0
EEC0
C6C0
ENDCHAR
STARTCHAR U+217B
ENCODING 8571
SWIDTH 777 0
DWIDTH 14 0
BBX 13 11 0 0
BITMAP
00D8
00D8
0000
C6D8
EED8
7CD8
38D8
38D8
7CD8
EED8
C6D8
ENDCHAR
STARTCHAR U+217C
ENCODING 8572
SWIDTH 166 0
DWIDTH 3 0
BBX 2 11 0 0
BITMAP
C0
C0
C0
C0
C0
C0
C0
C0
C0
C0
C0
ENDCHAR
STARTCHAR U+217D
ENCODING 8573
SWIDTH 388 0
DWIDTH 7 0
BBX 6 8 0 0
BITMAP
7C
FC
C0
C0
C0
C0
FC
7C
ENDCHAR
STARTCHAR U+217E
ENCODING 8574
SWIDTH 444 0
DWIDTH 8 0
BBX 7 11 0 0
BITMAP
06
06
06
7E
FE
C6
C6
C6
C6
FE
7E
ENDCHAR
STARTCHAR U+217F
ENCODING 8575
SWIDTH 500 0
DWIDTH 9 0
BBX 8 8 0 0
BITMAP
FE
FF
DB
DB
DB
DB
DB
DB
ENDCHAR
STARTCHAR U+2190
ENCODING 8592
SWIDTH 666 0
DWIDTH 12 0
BBX 11 9 0 1
BITMAP
0E00
1C00
3800
7FE0
FFE0
7FE0
3800
1C00
0E00
ENDCHAR
STARTCHAR U+2191
ENCODING 8593
SWIDTH 666 0
DWIDTH 12 0
BBX 9 11 1 0
BITMAP
0800
1C00
3E00
7F00
FF80
DD80
9C80
1C00
1C00
1C00
1C00
ENDCHAR
STARTCHAR U+2192
ENCODING 8594
SWIDTH 666 0
DWIDTH 12 0
BBX 11 9 0 1
BITMAP
0E00
0700
0380
FFC0
FFE0
FFC0
0380
0700
0E00
ENDCHAR
STARTCHAR U+2193
ENCODING 8595
SWIDTH 666 0
DWIDTH 12 0
BBX 9 11 1 0
BITMAP
1C00
1C00
1C00
1C00
9C80
DD80
FF80
7F00
3E00
1C00
0800
ENDCHAR
STARTCHAR U+2460
ENCODING 9312
SWIDTH 666 0
DWIDTH 12 0
BBX 11 11 0 0
BITMAP
1F00
2080
4C40
8420
8420
8420
8420
8420
4440
2080
1F00
ENDCHAR
STARTCHAR U+2461
ENCODING 9313
SWIDTH 666 0
DWIDTH 12 0
BBX 11 11 0 0
BITMAP
1F00
2080
4E40
9120
8120
8220
8420
8820
5F40
2080
1F00
ENDCHAR
STARTCHAR U+2462
ENCODING 9314
SWIDTH 666 0
DWIDTH 12 0
BBX 11 11 0 0
BITMAP
1F00
2080
4E40
9120
8120
8620
8120
9120
4E40
2080
1F00
ENDCHAR
STARTCHAR U+2463
ENCODING 9315
SWIDTH 666 0
DWIDTH 12 0
BBX 11 11 0 0
BITMAP
1F00
2080
4240
8620
8A20
9220
BF20
8220
4240
2080
1F00
ENDCHAR
STARTCHAR U+2464
ENCODING 9316
SWIDTH 666 0
DWIDTH 12 0
BBX 11 11 0 0
BITMAP
1F00
2080
5F40
9020
9E20
9120
8120
9120
4E40
2080
1F00
ENDCHAR
STARTCHAR U+2465
ENCODING 9317
SWIDTH 666 0
DWIDTH 12 0
BBX 11 11 0 0
BITMAP
1F00
2080
4E40
9120
9020
9E20
9120
9120
4E40
2080
1F00
ENDCHAR
STARTCHAR U+2466
ENCODING 9318
SWIDTH 666 0
DWIDTH 12 0
BBX 11 11 0 0
BITMAP
1F00
2080
5F40
8120
8220
8220
8420
8420
4440
2080
1F00
ENDCHAR
STARTCHAR U+2467
ENCODING 9319
SWIDTH 666 0
DWIDTH 12 0
BBX 11 11 0 0
BITMAP
1F00
2080
4E40
9120
9120
8E20
9120
9120
4E40
2080
1F00
ENDCHAR
STARTCHAR U+2468
ENCODING 9320
SWIDTH 666 0
DWIDTH 12 0
BBX 11 11 0 0
BITMAP
1F00
2080
4E40
9120
9120
8F20
8120
9120
4E40
2080
1F00
ENDCHAR
STARTCHAR U+2469
ENCODING 9321
SWIDTH 666 0
DWIDTH 12 0
BBX 11 11 0 0
BITMAP
1F00
2080
5340
B4A0
94A0
94A0
94A0
94A0
5340
2080
1F00
ENDCHAR
STARTCHAR U+246A
ENCODING 9322
SWIDTH 666 0
DWIDTH 12 0
BBX 11 11 0 0
BITMAP
1F00
2080
5140
B320
9120
9120
9120
9120
5140
2080
1F00
ENDCHAR
STARTCHAR U+246B
ENCODING 9323
SWIDTH 666 0
DWIDTH 12 0
BBX 11 11 0 0
BITMAP
1F00
2080
5340
B4A0
90A0
9120
9220
9420
57C0
2080
1F00
ENDCHAR
STARTCHAR U+246C
ENCODING 9324
SWIDTH 666 0
DWIDTH 12 0
BBX 11 11 0 0
BITMAP
1F00
2080
5340
B4A0
90A0
9320
90A0
94A0
5340
2080
1F00
ENDCHAR
STARTCHAR U+246D
ENCODING 9325
SWIDTH 666 0
DWIDTH 12 0
BBX 11 11 0 0
BITMAP
1F00
2080
5140
B320
9520
9520
97A0
9120
5140
2080
1F00
ENDCHAR
STARTCHAR U+246E
ENCODING 9326
SWIDTH 666 0
DWIDTH 12 0
BBX 11 11 0 0
BITMAP
1F00
2080
57C0
B420
9720
94A0
90A0
94A0
5340
2080
1F00
ENDCHAR
STARTCHAR U+246F
ENCODING 9327
SWIDTH 666 0
DWIDTH 12 0
BBX 11 11 0 0
BITMAP
1F00
2080
5340
B4A0
9420
9720
94A0
94A0
5340
2080
1F00
ENDCHAR
STARTCHAR U+2470
ENCODING 9328
SWIDTH 666 0
DWIDTH 12 0
BBX 11 11 0 0
BITMAP
1F00
2080
57C0
B0A0
9120
9120
9220
9220
5240
2080
1F00
ENDCHAR
STARTCHAR U+2471
ENCODING 9329
SWIDTH 666 0
DWIDTH 12 0
BBX 11 11 0 0
BITMAP
1F00
2080
5340
B4A0
94A0
9320
94A0
94A0
5340
2080
1F00
ENDCHAR
STARTCHAR U+2472
ENCODING 9330
SWIDTH 666 0
DWIDTH 12 0
BBX 11 11 0 0
BITMAP
1F00
2080
5340
B4A0
94A0
93A0
90A0
94A0
5340
2080
1F00
ENDCHAR
STARTCHAR U+2473
ENCODING 9331
SWIDTH 666 0
DWIDTH 12 0
BBX 11 11 0 0
BITMAP
1F00
2080
5140
AAA0
8AA0
92A0
92A0
A2A0
7940
2080
1F00
ENDCHAR
STARTCHAR U+24B6
ENCODING 9398
SWIDTH 666 0
DWIDTH 12 0
BBX 11 11 0 0
BITMAP
1F00
2080
4440
8A20
9120
9120
9F20
9120
5140
2080
1F00
ENDCHAR
STARTCHAR U+24B7
ENCODING 9399
SWIDTH 666 0
DWIDTH 12 0
BBX 11 11 0 0
BITMAP
1F00
2080
5E40
9120
9120
9E20
9120
9120
5E40
2080
1F00
ENDCHAR
STARTCHAR U+24B8
ENCODING 9400
SWIDTH 666 0
DWIDTH 12 0
BBX 11 11 0 0
BITMAP
1F00
2080
4E40
9120
9020
9020
9020
9120
4E40
2080
1F00
ENDCHAR
STARTCHAR U+24B9
ENCODING 9401
SWIDTH 666 0
DWIDTH 12 0
BBX 11 11 0 0
BITMAP
1F00
2080
5E40
9120
9120
9120
9120
9120
5E40
2080
1F00
ENDCHAR
STARTCHAR U+24BA
ENCODING 9402
SWIDTH 666 0
DWIDTH 12 0
BBX 11 11 0 0
BITMAP
1F00
2080
5F40
9020
9020
9E20
9020
9020
5F40
2080
1F00
ENDCHAR
STARTCHAR U+24BB
ENCODING 9403
SWIDTH 666 0
DWIDTH 12 0
BBX 11 11 0 0
BITMAP
1F00
2080
5F40
9020
9020
9E20
9020
9020
5040
2080
1F00
ENDCHAR
STARTCHAR U+24BC
ENCODING 9404
SWIDTH 666 0
DWIDTH 12 0
BBX 11 11 0 0
BITMAP
1F00
2080
4E40
9120
9020
9720
9120
9120
4E40
2080
1F00
ENDCHAR
STARTCHAR U+24BD
ENCODING 9405
SWIDTH 666 0
DWIDTH 12 0
BBX 11 11 0 0
BITMAP
1F00
2080
5140
9120
9120
9F20
9120
9120
5140
2080
1F00
ENDCHAR
STARTCHAR U+24BE
ENCODING 9406
SWIDTH 666 0
DWIDTH 12 0
BBX 11 11 0 0
BITMAP
1F00
2080
4E40
8420
8420
8420
8420
8420
4E40
2080
1F00
ENDCHAR
STARTCHAR U+24BF
ENCODING 9407
SWIDTH 666 0
DWIDTH 12 0
BBX 11 11 0 0
BITMAP
1F00
2080
4140
8120
8120
8120
9120
9120
4E40
2080
1F00
ENDCHAR
STARTCHAR U+24C0
ENCODING 9408
SWIDTH 666 0
DWIDTH 12 0
BBX 11 11 0 0
BITMAP
1F00
2080
5140
9220
9420
9820
9420
9220
5140
2080
1F00
ENDCHAR
STARTCHAR U+24C1
ENCODING 9409
SWIDTH 666 0
DWIDTH 12 0
BBX 11 11 0 0
BITMAP
1F00
2080
5040
9020
9020
9020
9020
9020
5F40
2080
1F00
ENDCHAR
STARTCHAR U+24C2
ENCODING 9410
SWIDTH 666 0
DWIDTH 12 0
BBX 11 11 0 0
BITMAP
1F00
2080
60C0
B1A0
B1A0
AAA0
AAA0
A4A0
64C0
2080
1F00
ENDCHAR
STARTCHAR U+24C3
ENCODING 9411
SWIDTH 666 0
DWIDTH 12 0
BBX 11 11 0 0
BITMAP
1F00
2080
5140
9920
9920
9520
9320
9320
5140
2080
1F00
ENDCHAR
STARTCHAR U+24C4
ENCODING 9412
SWIDTH 666 0
DWIDTH 12 0
BBX 11 11 0 0
BITMAP
1F00
2080
4E40
9120
9120
9120
9120
9120
4E40
2080
1F00
ENDCHAR
STARTCHAR U+24C5
ENCODING 9413
SWIDTH 666 0
DWIDTH 12 0
BBX 11 11 0 0
BITMAP
1F00
2080
5E40
9120
9120
9E20
9020
9020
5040
2080
1F00
ENDCHAR
STARTCHAR U+24C6
ENCODING 9414
SWIDTH 666 0
DWIDTH 12 0
BBX 11 11 0 0
BITMAP
1F00
2080
4E40
9120
9120
9120
9120
9520
4E40
2180
1F00
ENDCHAR
STARTCHAR U+24C7
ENCODING 9415
SWIDTH 666 0
DWIDTH 12 0
BBX 11 11 0 0
BITMAP
1F00
2080
5E40
9120
9120
9E20
9220
9120
5140
2080
1F00
ENDCHAR
STARTCHAR U+24C8
ENCODING 9416
SWIDTH 666 0
DWIDTH 12 0
BBX 11 11 0 0
BITMAP
1F00
2080
4E40
9120
9020
8E20
8120
9120
4E40
2080
1F00
ENDCHAR
STARTCHAR U+24C9
ENCODING 9417
SWIDTH 666 0
DWIDTH 12 0
BBX 11 11 0 0
BITMAP
1F00
2080
5F40
8420
8420
8420
8420
8420
4440
2080
1F00
ENDCHAR
STARTCHAR U+24CA
ENCODING 9418
SWIDTH 666 0
DWIDTH 12 0
BBX 11 11 0 0
BITMAP
1F00
2080
5140
9120
9120
9120
9120
9120
4E40
2080
1F00
ENDCHAR
STARTCHAR U+24CB
ENCODING 9419
SWIDTH 666 0
DWIDTH 12 0
BBX 11 11 0 0
BITMAP
1F00
2080
5140
9120
9120
8A20
8A20
8420
4440
2080
1F00
ENDCHAR
STARTCHAR U+24CC
ENCODING 9420
SWIDTH 666 0
DWIDTH 12 0
BBX 11 11 0 0
BITMAP
1F00
2080
60C0
A4A0
A4A0
AAA0
AAA0
9120
5140
2080
1F00
ENDCHAR
STARTCHAR U+24CD
ENCODING 9421
SWIDTH 666 0
DWIDTH 12 0
BBX 11 11 0 0
BITMAP
1F00
2080
5140
9120
8A20
8420
8A20
9120
5140
2080
1F00
ENDCHAR
STARTCHAR U+24CE
ENCODING 9422
SWIDTH 666 0
DWIDTH 12 0
BBX 11 11 0 0
BITMAP
1F00
2080
5140
9120
9120
8A20
8420
8420
4440
2080
1F00
ENDCHAR
STARTCHAR U+24CF
ENCODING 9423
SWIDTH 666 0
DWIDTH 12 0
BBX 11 11 0 0
BITMAP
1F00
2080
5F40
8120
8220
8420
8820
9020
5F40
2080
1F00
ENDCHAR
STARTCHAR U+24EA
ENCODING 9450
SWIDTH 666 0
DWIDTH 12 0
BBX 11 11 0 0
BITMAP
1F00
2080
4E40
9120
9120
9120
9120
9120
4E40
2080
1F00
ENDCHAR
STARTCHAR U+24EB
ENCODING 9451
SWIDTH 666 0
DWIDTH 12 0
BBX 11 11 0 0
BITMAP
1F00
3F80
6EC0
CCE0
EEE0
EEE0
EEE0
EEE0
6EC0
3F80
1F00
ENDCHAR
STARTCHAR U+24EC
ENCODING 9452
SWIDTH 666 0
DWIDTH 12 0
BBX 11 11 0 0
BITMAP
1F00
3F80
6CC0
CB60
EF60
EEE0
EDE0
EBE0
6840
3F80
1F00
ENDCHAR
STARTCHAR U+24ED
ENCODING 9453
SWIDTH 666 0
DWIDTH 12 0
BBX 11 11 0 0
BITMAP
1F00
3F80
6CC0
CB60
EF60
ECE0
EF60
EB60
6CC0
3F80
1F00
ENDCHAR
STARTCHAR U+24EE
ENCODING 9454
SWIDTH 666 0
DWIDTH 12 0
BBX 11 11 0 0
BITMAP
1F00
3F80
6EC0
CCE0
EAE0
EAE0
E860
EEE0
6EC0
3F80
1F00
ENDCHAR
STARTCHAR U+24EF
ENCODING 9455
SWIDTH 666 0
DWIDTH 12 0
BBX 11 11 0 0
BITMAP
1F00
3F80
6840
CBE0
E8E0
EB60
EF60
EB60
6CC0
3F80
1F00
ENDCHAR
STARTCHAR U+24F0
ENCODING 9456
SWIDTH 666 0
DWIDTH 12 0
BBX 11 11 0 0
BITMAP
1F00
3F80
6CC0
CB60
EBE0
E8E0
EB60
EB60
6CC0
3F80
1F00
ENDCHAR
STARTCHAR U+24F1
ENCODING 9457
SWIDTH 666 0
DWIDTH 12 0
BBX 11 11 0 0
BITMAP
1F00
3F80
6840
CF60
EEE0
EEE0
EDE0
EDE0
6DC0
3F80
1F00
ENDCHAR
STARTCHAR U+24F2
ENCODING 9458
SWIDTH 666 0
DWIDTH 12 0
BBX 11 11 0 0
BITMAP
1F00
3F80
6CC0
CB60
EB60
ECE0
EB60
EB60
6CC0
3F80
1F00
ENDCHAR
STARTCHAR U+24F3
ENCODING 9459
SWIDTH 666 0
DWIDTH 12 0
BBX 11 11 0 0
BITMAP
1F00
3F80
6CC0
CB60
EB60
EC60
EF60
EB60
6CC0
3F80
1F00
ENDCHAR
STARTCHAR U+24F4
ENCODING 9460
SWIDTH 666 0
DWIDTH 12 0
BBX 11 11 0 0
BITMAP
1F00
3F80
6EC0
D560
F560
ED60
ED60
DD60
46C0
3F80
1F00
ENDCHAR
STARTCHAR U+25A0
ENCODING 9632
SWIDTH 666 0
DWIDTH 12 0
BBX 11 11 0 0
BITMAP
FFE0
FFE0
FFE0
FFE0
FFE0
FFE0
FFE0
FFE0
FFE0
FFE0
FFE0
ENDCHAR
STARTCHAR U+25A1
ENCODING 9633
SWIDTH 666 0
DWIDTH 12 0
BBX 11 11 0 0
BITMAP
FFE0
FFE0
C060
C060
C060
C060
C060
C060
C060
FFE0
FFE0
ENDCHAR
STARTCHAR U+25A2
ENCODING 9634
SWIDTH 666 0
DWIDTH 12 0
BBX 11 11 0 0
BITMAP
7FC0
FFE0
C060
C060
C060
C060
C060
C060
C060
FFE0
7FC0
ENDCHAR
STARTCHAR U+25A3
ENCODING 9635
SWIDTH 666 0
DWIDTH 12 0
BBX 11 11 0 0
BITMAP
FFE0
FFE0
C060
DF60
DF60
DF60
DF60
DF60
C060
FFE0
FFE0
ENDCHAR
STARTCHAR U+25A4
ENCODING 9636
SWIDTH 666 0
DWIDTH 12 0
BBX 11 11 0 0
BITMAP
FFE0
FFE0
C060
FFE0
C060
FFE0
C060
FFE0
C060
FFE0
FFE0
ENDCHAR
STARTCHAR U+25A5
ENCODING 9637
SWIDTH 666 0
DWIDTH 12 0
BBX 11 11 0 0
BITMAP
FFE0
FFE0
D560
D560
D560
D560
D560
D560
D560
FFE0
FFE0
ENDCHAR
STARTCHAR U+25A6
ENCODING 9638
SWIDTH 666 0
DWIDTH 12 0
BBX 11 11 0 0
BITMAP
FFE0
FFE0
D560
FFE0
D560
FFE0
D560
FFE0
D560
FFE0
FFE0
ENDCHAR
STARTCHAR U+25A7
ENCODING 9639
SWIDTH 666 0
DWIDTH 12 0
BBX 11 11 0 0
BITMAP
FFE0
FFE0
F360
F9E0
DCE0
CE60
E760
F3E0
D9E0
FFE0
FFE0
ENDCHAR
STARTCHAR U+25A8
ENCODING 9640
SWIDTH 666 0
DWIDTH 12 0
BBX 11 11 0 0
BITMAP
FFE0
FFE0
D9E0
F3E0
E760
CE60
DCE0
F9E0
F360
FFE0
FFE0
ENDCHAR
STARTCHAR U+25A9
ENCODING 9641
SWIDTH 666 0
DWIDTH 12 0
BBX 11 11 0 0
BITMAP
FFE0
FFE0
EAE0
D160
EAE0
C460
EAE0
D160
EAE0
FFE0
FFE0
ENDCHAR
STARTCHAR U+25B2
ENCODING 9650
SWIDTH 666 0
DWIDTH 12 0
BBX 11 11 0 0
BITMAP
0400
0E00
0E00
1F00
1F00
3F80
3F80
7FC0
7FC0
FFE0
FFE0
ENDCHAR
STARTCHAR U+25B3
ENCODING 9651
SWIDTH 666 0
DWIDTH 12 0
BBX 11 11 0 0
BITMAP
0400
0E00
0E00
1F00
1B00
3B80
3180
71C0
60C0
FFE0
FFE0
ENDCHAR
STARTCHAR U+25B6
ENCODING 9654
SWIDTH 666 0
DWIDTH 12 0
BBX 11 11 0 0
BITMAP
C000
F000
FC00
FF00
FFC0
FFE0
FFC0
FF00
FC00
F000
C000
ENDCHAR
STARTCHAR U+25B7
ENCODING 9655
SWIDTH 666 0
DWIDTH 12 0
BBX 11 11 0 0
BITMAP
C000
F000
FC00
DF00
C7C0
C1E0
C7C0
DF00
FC00
F000
C000
ENDCHAR
STARTCHAR U+25BC
ENCODING 9660
SWIDTH 666 0
DWIDTH 12 0
BBX 11 11 0 0
BITMAP
FFE0
FFE0
7FC0
7FC0
3F80
3F80
1F00
1F00
0E00
0E00
0400
ENDCHAR
STARTCHAR U+25BD
ENCODING 9661
SWIDTH 666 0
DWIDTH 12 0
BBX 11 11 0 0
BITMAP
FFE0
FFE0
60C0
71C0
3180
3B80
1B00
1F00
0E00
0E00
0400
ENDCHAR
STARTCHAR U+25C0
ENCODING 9664
SWIDTH 666 0
DWIDTH 12 0
BBX 11 11 0 0
BITMAP
0060
01E0
07E0
1FE0
7FE0
FFE0
7FE0
1FE0
07E0
01E0
0060
ENDCHAR
STARTCHAR U+25C1
ENCODING 9665
SWIDTH 666 0
DWIDTH 12 0
BBX 11 11 0 0
BITMAP
0060
01E0
07E0
1F60
7C60
F060
7C60
1F60
07E0
01E0
0060
ENDCHAR
STARTCHAR U+25C6
ENCODING 9670
SWIDTH 666 0
DWIDTH 12 0
BBX 11 11 0 0
BITMAP
0400
0E00
1F00
3F80
7FC0
FFE0
7FC0
3F80
1F00
0E00
0400
ENDCHAR
STARTCHAR U+25C7
ENCODING 9671
SWIDTH 666 0
DWIDTH 12 0
BBX 11 11 0 0
BITMAP
0400
0E00
1F00
3B80
71C0
E0E0
71C0
3B80
1F00
0E00
0400
ENDCHAR
STARTCHAR U+25C8
ENCODING 9672
SWIDTH 666 0
DWIDTH 12 0
BBX 11 11 0 0
BITMAP
0400
0E00
1B00
3580
6EC0
DF60
6EC0
3580
1B00
0E00
0400
ENDCHAR
STARTCHAR U+25C9
ENCODING 9673
SWIDTH 666 0
DWIDTH 12 0
BBX 11 11 0 0
BITMAP
3F80
7FC0
E0E0
CE60
DF60
DF60
DF60
CE60
E0E0
7FC0
3F80
ENDCHAR
STARTCHAR U+25CA
ENCODING 9674
SWIDTH 666 0
DWIDTH 12 0
BBX 11 11 0 0
BITMAP
0400
0E00
1F00
3B80
71C0
E0E0
71C0
3B80
1F00
0E00
0400
ENDCHAR
STARTCHAR U+25CB
ENCODING 9675
SWIDTH 666 0
DWIDTH 12 0
BBX 11 11 0 0
BITMAP
3F80
7FC0
E0E0
C060
C060
C060
C060
C060
E0E0
7FC0
3F80
ENDCHAR
STARTCHAR U+25CE
ENCODING 9678
SWIDTH 666 0
DWIDTH 12 0
BBX 11 11 0 0
BITMAP
3F80
7FC0
E0E0
CE60
DF60
DB60
DF60
CE60
E0E0
7FC0
3F80
ENDCHAR
STARTCHAR U+25CF
ENCODING 9679
SWIDTH 666 0
DWIDTH 12 0
BBX 11 11 0 0
BITMAP
0E00
3F80
7FC0
7FC0
FFE0
FFE0
FFE0
7FC0
7FC0
3F80
0E00
ENDCHAR
STARTCHAR U+25D0
ENCODING 9680
SWIDTH 666 0
DWIDTH 12 0
BBX 11 11 0 0
BITMAP
3F80
7FC0
F8E0
F860
F860
F860
F860
F860
F8E0
7FC0
3F80
ENDCHAR
STARTCHAR U+25D1
ENCODING 9681
SWIDTH 666 0
DWIDTH 12 0
BBX 11 11 0 0
BITMAP
3F80
7FC0
E3E0
C3E0
C3E0
C3E0
C3E0
C3E0
E3E0
7FC0
3F80
ENDCHAR
STARTCHAR U+25D2
ENCODING 9682
SWIDTH 666 0
DWIDTH 12 0
BBX 11 11 0 0
BITMAP
3F80
7FC0
E0E0
C060
C060
C060
FFE0
FFE0
FFE0
7FC0
3F80
ENDCHAR
STARTCHAR U+25D3
ENCODING 9683
SWIDTH 666 0
DWIDTH 12 0
BBX 11 11 0 0
BITMAP
3F80
7FC0
FFE0
FFE0
FFE0
C060
C060
C060
E0E0
7FC0
3F80
ENDCHAR
STARTCHAR U+25D4
ENCODING 9684
SWIDTH 666 0
DWIDTH 12 0
BBX 11 11 0 0
BITMAP
3F80
7FC0
E7E0
C7E0
C7E0
C7E0
C060
C060
E0E0
7FC0
3F80
ENDCHAR
STARTCHAR U+25D5
ENCODING 9685
SWIDTH 666 0
DWIDTH 12 0
BBX 11 11 0 0
BITMAP
3F80
7FC0
E3E0
C3E0
C3E0
C3E0
FFE0
FFE0
FFE0
7FC0
3F80
ENDCHAR
STARTCHAR U+25D6
ENCODING 9686
SWIDTH 666 0
DWIDTH 12 0
BBX 6 11 0 0
BITMAP
0C
3C
7C
7C
FC
FC
FC
7C
7C
3C
0C
ENDCHAR
STARTCHAR U+25D7
ENCODING 9687
SWIDTH 666 0
DWIDTH 12 0
BBX 6 11 5 0
BITMAP
C0
F0
F8
F8
FC
FC
FC
F8
F8
F0
C0
ENDCHAR
STARTCHAR U+25E2
ENCODING 9698
SWIDTH 666 0
DWIDTH 12 0
BBX 11 11 0 0
BITMAP
0020
0060
00E0
01E0
03E0
07E0
0FE0
1FE0
3FE0
7FE0
FFE0
ENDCHAR
STARTCHAR U+25E3
ENCODING 9699
SWIDTH 666 0
DWIDTH 12 0
BBX 11 11 0 0
BITMAP
8000
C000
E000
F000
F800
FC00
FE00
FF00
FF80
FFC0
FFE0
ENDCHAR
STARTCHAR U+25E4
ENCODING 9700
SWIDTH 666 0
DWIDTH 12 0
BBX 11 11 0 0
BITMAP
FFE0
FFC0
FF80
FF00
FE00
FC00
F800
F000
E000
C000
8000
ENDCHAR
STARTCHAR U+25E5
ENCODING 9701
SWIDTH 666 0
DWIDTH 12 0
BBX 11 11 0 0
BITMAP
FFE0
7FE0
3FE0
1FE0
0FE0
07E0
03E0
01E0
00E0
0060
0020
ENDCHAR
STARTCHAR U+25E7
ENCODING 9703
SWIDTH 666 0
DWIDTH 12 0
BBX 11 11 0 0
BITMAP
FFE0
FFE0
F860
F860
F860
F860
F860
F860
F860
FFE0
FFE0
ENDCHAR
STARTCHAR U+25E8
ENCODING 9704
SWIDTH 666 0
DWIDTH 12 0
BBX 11 11 0 0
BITMAP
FFE0
FFE0
C3E0
C3E0
C3E0
C3E0
C3E0
C3E0
C3E0
FFE0
FFE0
ENDCHAR
STARTCHAR U+25E9
ENCODING 9705
SWIDTH 666 0
DWIDTH 12 0
BBX 11 11 0 0
BITMAP
FFE0
FFE0
FF60
FE60
FC60
F860
F060
E060
C060
FFE0
FFE0
ENDCHAR
STARTCHAR U+25EA
ENCODING 9706
SWIDTH 666 0
DWIDTH 12 0
BBX 11 11 0 0
BITMAP
FFE0
FFE0
C060
C0E0
C1E0
C3E0
C7E0
CFE0
DFE0
FFE0
FFE0
ENDCHAR
STARTCHAR U+25EB
ENCODING 9707
SWIDTH 666 0
DWIDTH 12 0
BBX 11 11 0 0
BITMAP
FFE0
FFE0
C460
C460
C460
C460
C460
C460
C460
FFE0
FFE0
ENDCHAR
STARTCHAR U+25EC
ENCODING 9708
SWIDTH 666 0
DWIDTH 12 0
BBX 11 11 0 0
BITMAP
0400
0E00
0E00
1F00
1B00
3B80
3180
75C0
60C0
FFE0
FFE0
ENDCHAR
STARTCHAR U+25ED
ENCODING 9709
SWIDTH 666 0
DWIDTH 12 0
BBX 11 11 0 0
BITMAP
0400
0E00
0E00
1F00
1B00
3B80
3980
79C0
78C0
FFE0
FFE0
ENDCHAR
STARTCHAR U+25EE
ENCODING 9710
SWIDTH 666 0
DWIDTH 12 0
BBX 11 11 0 0
BITMAP
0400
0E00
0E00
1F00
1B00
3B80
3380
73C0
63C0
FFE0
FFE0
ENDCHAR
STARTCHAR U+25EF
ENCODING 9711
SWIDTH 666 0
DWIDTH 12 0
BBX 11 11 0 0
BITMAP
3F80
7FC0
E0E0
C060
C060
C060
C060
C060
E0E0
7FC0
3F80
ENDCHAR
STARTCHAR U+25F0
ENCODING 9712
SWIDTH 666 0
DWIDTH 12 0
BBX 11 11 0 0
BITMAP
FFE0
FFE0
C660
C660
C660
FE60
FE60
C060
C060
FFE0
FFE0
ENDCHAR
STARTCHAR U+25F1
ENCODING 9713
SWIDTH 666 0
DWIDTH 12 0
BBX 11 11 0 0
BITMAP
FFE0
FFE0
C060
C060
FE60
FE60
C660
C660
C660
FFE0
FFE0
ENDCHAR
STARTCHAR U+25F2
ENCODING 9714
SWIDTH 666 0
DWIDTH 12 0
BBX 11 11 0 0
BITMAP
FFE0
FFE0
C060
C060
CFE0
CFE0
CC60
CC60
CC60
FFE0
FFE0
ENDCHAR
STARTCHAR U+25F3
ENCODING 9715
SWIDTH 666 0
DWIDTH 12 0
BBX 11 11 0 0
BITMAP
FFE0
FFE0
CC60
CC60
CC60
CFE0
CFE0
C060
C060
FFE0
FFE0
ENDCHAR
STARTCHAR U+25F4
ENCODING 9716
SWIDTH 666 0
DWIDTH 12 0
BBX 11 11 0 0
BITMAP
3F80
7FC0
E6E0
C660
C660
FE60
FE60
C060
E0E0
7FC0
3F80
ENDCHAR
STARTCHAR U+25F5
ENCODING 9717
SWIDTH 666 0
DWIDTH 12 0
BBX 11 11 0 0
BITMAP
3F80
7FC0
E0E0
C060
FE60
FE60
C660
C660
E6E0
7FC0
3F80
ENDCHAR
STARTCHAR U+25F6
ENCODING 9718
SWIDTH 666 0
DWIDTH 12 0
BBX 11 11 0 0
BITMAP
3F80
7FC0
E0E0
C060
CFE0
CFE0
CC60
CC60
ECE0
7FC0
3F80
ENDCHAR
STARTCHAR U+25F7
ENCODING 9719
SWIDTH 666 0
DWIDTH 12 0
BBX 11 11 0 0
BITMAP
3F80
7FC0
ECE0
CC60
CC60
CFE0
CFE0
C060
E0E0
7FC0
3F80
ENDCHAR
STARTCHAR U+25F8
ENCODING 9720
SWIDTH 666 0
DWIDTH 12 0
BBX 11 11 0 0
BITMAP
FFE0
FFE0
C1C0
C380
C700
CE00
DC00
F800
F000
E000
C000
ENDCHAR
STARTCHAR U+25F9
ENCODING 9721
SWIDTH 666 0
DWIDTH 12 0
BBX 11 11 0 0
BITMAP
FFE0
FFE0
7060
3860
1C60
0E60
0760
03E0
01E0
00E0
0060
ENDCHAR
STARTCHAR U+25FA
ENCODING 9722
SWIDTH 666 0
DWIDTH 12 0
BBX 11 11 0 0
BITMAP
C000
E000
F000
F800
DC00
CE00
C700
C380
C1C0
FFE0
FFE0
ENDCHAR
STARTCHAR U+25FF
ENCODING 9727
SWIDTH 666 0
DWIDTH 12 0
BBX 11 11 0 0
BITMAP
0060
00E0
01E0
03E0
0760
0E60
1C60
3860
7060
FFE0
FFE0
ENDCHAR
STARTCHAR U+2600
ENCODING 9728
SWIDTH 666 0
DWIDTH 12 0
BBX 11 11 0 0
BITMAP
0400
4040
0E00
1F00
3F80
BFA0
3F80
1F00
0E00
4040
0400
ENDCHAR
STARTCHAR U+2601
ENCODING 9729
SWIDTH 666 0
DWIDTH 12 0
BBX 11 10 0 1
BITMAP
0E00
1100
3180
4040
8020
8020
8120
8220
4440
3B80
ENDCHAR
STARTCHAR U+2602
ENCODING 9730
SWIDTH 666 0
DWIDTH 12 0
BBX 11 11 0 0
BITMAP
0400
1F00
3F80
7FC0
FFE0
0400
0400
0400
0400
0480
0300
ENDCHAR
STARTCHAR U+2603
ENCODING 9731
SWIDTH 666 0
DWIDTH 12 0
BBX 9 11 1 0
BITMAP
1C00
2200
4100
4100
6300
8080
8080
8080
8080
4100
3E00
ENDCHAR
STARTCHAR U+2605
ENCODING 9733
SWIDTH 666 0
DWIDTH 12 0
BBX 11 11 0 0
BITMAP
0400
0400
0E00
0E00
FFE0
7FC0
3F80
1F00
3B80
3180
2080
ENDCHAR
STARTCHAR U+2606
ENCODING 9734
SWIDTH 666 0
DWIDTH 12 0
BBX 11 11 0 0
BITMAP
0400
0400
0A00
0A00
F1E0
4040
2080
1500
2A80
3180
2080
ENDCHAR
STARTCHAR U+2607
ENCODING 9735
SWIDTH 666 0
DWIDTH 12 0
BBX 7 11 2 0
BITMAP
08
10
20
40
80
40
20
10
0A
06
0E
ENDCHAR
STARTCHAR U+2608
ENCODING 9736
SWIDTH 666 0
DWIDTH 12 0
BBX 11 11 0 0
BITMAP
FF80
8100
8200
8400
8800
8400
8200
8100
80A0
8060
80E0
ENDCHAR
STARTCHAR U+2610
ENCODING 9744
SWIDTH 666 0
DWIDTH 12 0
BBX 9 9 1 1
BITMAP
FF80
8080
8080
8080
8080
8080
8080
8080
FF80
ENDCHAR
STARTCHAR U+2611
ENCODING 9745
SWIDTH 666 0
DWIDTH 12 0
BBX 9 9 1 1
BITMAP
FF80
8080
8180
8280
C480
A880
9080
8080
FF80
ENDCHAR
STARTCHAR U+2612
ENCODING 9746
SWIDTH 666 0
DWIDTH 12 0
BBX 9 9 1 1
BITMAP
FF80
8080
A280
9480
8880
9480
A280
8080
FF80
ENDCHAR
STARTCHAR U+262E
ENCODING 9774
SWIDTH 666 0
DWIDTH 12 0
BBX 11 11 0 0
BITMAP
0E00
3580
4440
4440
8420
8E20
9520
64C0
4440
3580
0E00
ENDCHAR
STARTCHAR U+2630
ENCODING 9776
SWIDTH 666 0
DWIDTH 12 0
BBX 9 7 1 2
BITMAP
FF80
0000
0000
FF80
0000
0000
FF80
ENDCHAR
STARTCHAR U+2631
ENCODING 9777
SWIDTH 666 0
DWIDTH 12 0
BBX 9 7 1 2
BITMAP
F780
0000
0000
FF80
0000
0000
FF80
ENDCHAR
STARTCHAR U+2632
ENCODING 9778
SWIDTH 666 0
DWIDTH 12 0
BBX 9 7 1 2
BITMAP
FF80
0000
0000
F780
0000
0000
FF80
ENDCHAR
STARTCHAR U+2633
ENCODING 9779
SWIDTH 666 0
DWIDTH 12 0
BBX 9 7 1 2
BITMAP
F780
0000
0000
F780
0000
0000
FF80
ENDCHAR
STARTCHAR U+2634
ENCODING 9780
SWIDTH 666 0
DWIDTH 12 0
BBX 9 7 1 2
BITMAP
FF80
0000
0000
FF80
0000
0000
F780
ENDCHAR
STARTCHAR U+2635
ENCODING 9781
SWIDTH 666 0
DWIDTH 12 0
BBX 9 7 1 2
BITMAP
F780
0000
0000
FF80
0000
0000
F780
ENDCHAR
STARTCHAR U+2636
ENCODING 9782
SWIDTH 666 0
DWIDTH 12 0
BBX 9 7 1 2
BITMAP
FF80
0000
0000
F780
0000
0000
F780
ENDCHAR
STARTCHAR U+2637
ENCODING 9783
SWIDTH 666 0
DWIDTH 12 0
BBX 9 7 1 2
BITMAP
F780
0000
0000
F780
0000
0000
F780
ENDCHAR
STARTCHAR U+2639
ENCODING 9785
SWIDTH 666 0
DWIDTH 12 0
BBX 11 11 0 0
BITMAP
FFE0
8020
9120
9120
9120
8020
8020
9F20
A0A0
8020
FFE0
ENDCHAR
STARTCHAR U+263A
ENCODING 9786
SWIDTH 666 0
DWIDTH 12 0
BBX 11 11 0 0
BITMAP
FFE0
8020
9120
9120
9120
8020
8020
A0A0
9F20
8020
FFE0
ENDCHAR
STARTCHAR U+263B
ENCODING 9787
SWIDTH 666 0
DWIDTH 12 0
BBX 11 11 0 0
BITMAP
FFE0
FFE0
EEE0
EEE0
EEE0
FFE0
FFE0
DF60
E0E0
FFE0
FFE0
ENDCHAR
STARTCHAR U+263C
ENCODING 9788
SWIDTH 666 0
DWIDTH 12 0
BBX 11 11 0 0
BITMAP
0400
4040
0E00
1100
2080
A0A0
2080
1100
0E00
4040
0400
ENDCHAR
STARTCHAR U+2660
ENCODING 9824
SWIDTH 666 0
DWIDTH 12 0
BBX 11 11 0 0
BITMAP
0400
0E00
1F00
3F80
7FC0
FFE0
FFE0
F5E0
64C0
0E00
1F00
ENDCHAR
STARTCHAR U+2661
ENCODING 9825
SWIDTH 666 0
DWIDTH 12 0
BBX 11 10 0 0
BITMAP
71C0
8A20
8420
8020
8020
4040
2080
1100
0A00
0400
ENDCHAR
STARTCHAR U+2662
ENCODING 9826
SWIDTH 666 0
DWIDTH 12 0
BBX 11 11 0 0
BITMAP
0400
0A00
1100
2080
4040
8020
4040
2080
1100
0A00
0400
ENDCHAR
STARTCHAR U+2663
ENCODING 9827
SWIDTH 666 0
DWIDTH 12 0
BBX 11 11 0 0
BITMAP
0E00
1F00
1F00
0E00
75C0
FFE0
FFE0
75C0
0400
0E00
1F00
ENDCHAR
STARTCHAR U+2664
ENCODING 9828
SWIDTH 666 0
DWIDTH 12 0
BBX 11 11 0 0
BITMAP
0400
0A00
1100
2080
4040
8020
8A20
9520
64C0
0A00
1F00
ENDCHAR
STARTCHAR U+2665
ENCODING 9829
SWIDTH 666 0
DWIDTH 12 0
BBX 11 10 0 0
BITMAP
71C0
FBE0
FFE0
FFE0
FFE0
7FC0
3F80
1F00
0E00
0400
ENDCHAR
STARTCHAR U+2666
ENCODING 9830
SWIDTH 666 0
DWIDTH 12 0
BBX 11 11 0 0
BITMAP
0400
0E00
1F00
3F80
7FC0
FFE0
7FC0
3F80
1F00
0E00
0400
ENDCHAR
STARTCHAR U+2667
ENCODING 9831
SWIDTH 666 0
DWIDTH 12 0
BBX 11 11 0 0
BITMAP
0E00
1100
1100
0A00
71C0
8020
8E20
75C0
0400
0A00
1F00
ENDCHAR
STARTCHAR U+2669
ENCODING 9833
SWIDTH 666 0
DWIDTH 12 0
BBX 4 11 3 0
BITMAP
10
10
10
10
10
10
10
10
70
F0
E0
ENDCHAR
STARTCHAR U+266A
ENCODING 9834
SWIDTH 666 0
DWIDTH 12 0
BBX 7 11 2 0
BITMAP
10
18
1C
16
12
12
14
10
70
F0
E0
ENDCHAR
STARTCHAR U+266B
ENCODING 9835
SWIDTH 666 0
DWIDTH 12 0
BBX 11 11 0 0
BITMAP
1FE0
1FE0
1020
1020
1020
1020
1020
1020
70E0
F1E0
E1C0
ENDCHAR
STARTCHAR U+266C
ENCODING 9836
SWIDTH 666 0
DWIDTH 12 0
BBX 11 11 0 0
BITMAP
1FE0
1020
1FE0
1020
1020
1020
1020
1020
70E0
F1E0
E1C0
ENDCHAR
STARTCHAR U+266D
ENCODING 9837
SWIDTH 666 0
DWIDTH 12 0
BBX 6 11 3 0
BITMAP
80
80
80
80
B8
DC
8C
8C
98
B0
C0
ENDCHAR
STARTCHAR U+266E
ENCODING 9838
SWIDTH 666 0
DWIDTH 12 0
BBX 6 11 3 0
BITMAP
80
84
9C
FC
E4
84
9C
FC
E4
84
04
ENDCHAR
STARTCHAR U+266F
ENCODING 9839
SWIDTH 666 0
DWIDTH 12 0
BBX 9 11 1 0
BITMAP
0200
2380
3F80
FE00
E200
2200
2380
3F80
FE00
E200
2000
ENDCHAR
STARTCHAR U+2680
ENCODING 9856
SWIDTH 666 0
DWIDTH 12 0
BBX 9 9 1 1
BITMAP
FF80
8080
8080
8080
8880
8080
8080
8080
FF80
ENDCHAR
STARTCHAR U+2681
ENCODING 9857
SWIDTH 666 0
DWIDTH 12 0
BBX 9 9 1 1
BITMAP
FF80
8080
8280
8080
8080
8080
A080
8080
FF80
ENDCHAR
STARTCHAR U+2682
ENCODING 9858
SWIDTH 666 0
DWIDTH 12 0
BBX 9 9 1 1
BITMAP
FF80
8080
8280
8080
8880
8080
A080
8080
FF80
ENDCHAR
STARTCHAR U+2683
ENCODING 9859
SWIDTH 666 0
DWIDTH 12 0
BBX 9 9 1 1
BITMAP
FF80
8080
A280
8080
8080
8080
A280
8080
FF80
ENDCHAR
STARTCHAR U+2684
ENCODING 9860
SWIDTH 666 0
DWIDTH 12 0
BBX 9 9 1 1
BITMAP
FF80
8080
A280
8080
8880
8080
A280
8080
FF80
ENDCHAR
STARTCHAR U+2685
ENCODING 9861
SWIDTH 666 0
DWIDTH 12 0
BBX 9 9 1 1
BITMAP
FF80
8080
A280
8080
A280
8080
A280
8080
FF80
ENDCHAR
STARTCHAR U+2686
ENCODING 9862
SWIDTH 666 0
DWIDTH 12 0
BBX 11 11 0 0
BITMAP
0E00
3180
4040
4040
8020
8120
8020
4040
4040
3180
0E00
ENDCHAR
STARTCHAR U+2687
ENCODING 9863
SWIDTH 666 0
DWIDTH 12 0
BBX 11 11 0 0
BITMAP
0E00
3180
4040
4040
8020
9120
8020
4040
4040
3180
0E00
ENDCHAR
STARTCHAR U+2688
ENCODING 9864
SWIDTH 666 0
DWIDTH 12 0
BBX 11 11 0 0
BITMAP
0E00
3F80
7FC0
7FC0
FFE0
FEE0
FFE0
7FC0
7FC0
3F80
0E00
ENDCHAR
STARTCHAR U+2689
ENCODING 9865
SWIDTH 666 0
DWIDTH 12 0
BBX 11 11 0 0
BITMAP
0E00
3F80
7FC0
7FC0
FFE0
EEE0
FFE0
7FC0
7FC0
3F80
0E00
ENDCHAR
STARTCHAR U+26A0
ENCODING 9888
SWIDTH 666 0
DWIDTH 12 0
BBX 11 11 0 0
BITMAP
FFE0
FBE0
FBE0
FBE0
FBE0
FBE0
FBE0
FFE0
FBE0
FBE0
FFE0
ENDCHAR
STARTCHAR U+26C4
ENCODING 9924
SWIDTH 666 0
DWIDTH 12 0
BBX 9 11 1 0
BITMAP
1C00
2200
4100
4100
6300
8080
8080
8080
8080
4100
3E00
ENDCHAR
STARTCHAR U+26D4
ENCODING 9940
SWIDTH 666 0
DWIDTH 12 0
BBX 11 11 0 0
BITMAP
0E00
3F80
7FC0
7FC0
C060
C060
FFE0
7FC0
7FC0
3F80
0E00
ENDCHAR
STARTCHAR U+2706
ENCODING 9990
SWIDTH 666 0
DWIDTH 12 0
BBX 7 12 2 0
BITMAP
02
FE
82
82
82
FE
AA
D6
AA
D6
AA
FE
ENDCHAR
STARTCHAR U+2709
ENCODING 9993
SWIDTH 666 0
DWIDTH 12 0
BBX 11 9 0 1
BITMAP
FFE0
C060
A0A0
9120
8A20
8420
8020
8020
FFE0
ENDCHAR
STARTCHAR U+2753
ENCODING 10067
SWIDTH 666 0
DWIDTH 12 0
BBX 11 11 0 0
BITMAP
FFE0
F1E0
EEE0
FEE0
FDE0
FBE0
FBE0
FFE0
FBE0
FBE0
FFE0
ENDCHAR
STARTCHAR U+2757
ENCODING 10071
SWIDTH 666 0
DWIDTH 12 0
BBX 11 11 0 0
BITMAP
FFE0
FBE0
FBE0
FBE0
FBE0
FBE0
FBE0
FFE0
FBE0
FBE0
FFE0
ENDCHAR
STARTCHAR U+2776
ENCODING 10102
SWIDTH 666 0
DWIDTH 12 0
BBX 11 11 0 0
BITMAP
1F00
3F80
73C0
FBE0
FBE0
FBE0
FBE0
FBE0
7BC0
3F80
1F00
ENDCHAR
STARTCHAR U+2777
ENCODING 10103
SWIDTH 666 0
DWIDTH 12 0
BBX 11 11 0 0
BITMAP
1F00
3F80
71C0
EEE0
FEE0
FDE0
FBE0
F7E0
60C0
3F80
1F00
ENDCHAR
STARTCHAR U+2778
ENCODING 10104
SWIDTH 666 0
DWIDTH 12 0
BBX 11 11 0 0
BITMAP
1F00
3F80
71C0
EEE0
FEE0
F9E0
FEE0
EEE0
71C0
3F80
1F00
ENDCHAR
STARTCHAR U+2779
ENCODING 10105
SWIDTH 666 0
DWIDTH 12 0
BBX 11 11 0 0
BITMAP
1F00
3F80
7DC0
F9E0
F5E0
EDE0
C0E0
FDE0
7DC0
3F80
1F00
ENDCHAR
STARTCHAR U+277A
ENCODING 10106
SWIDTH 666 0
DWIDTH 12 0
BBX 11 11 0 0
BITMAP
1F00
3F80
60C0
EFE0
E1E0
EEE0
FEE0
EEE0
71C0
3F80
1F00
ENDCHAR
STARTCHAR U+277B
ENCODING 10107
SWIDTH 666 0
DWIDTH 12 0
BBX 11 11 0 0
BITMAP
1F00
3F80
71C0
EEE0
EFE0
E1E0
EEE0
EEE0
71C0
3F80
1F00
ENDCHAR
STARTCHAR U+277C
ENCODING 10108
SWIDTH 666 0
DWIDTH 12 0
BBX 11 11 0 0
BITMAP
1F00
3F80
60C0
FEE0
FDE0
FDE0
FBE0
FBE0
7BC0
3F80
1F00
ENDCHAR
STARTCHAR U+277D
ENCODING 10109
SWIDTH 666 0
DWIDTH 12 0
BBX 11 11 0 0
BITMAP
1F00
3F80
71C0
EEE0
EEE0
F1E0
EEE0
EEE0
71C0
3F80
1F00
ENDCHAR
STARTCHAR U+277E
ENCODING 10110
SWIDTH 666 0
DWIDTH 12 0
BBX 11 11 0 0
BITMAP
1F00
3F80
71C0
EEE0
EEE0
F0E0
FEE0
EEE0
71C0
3F80
1F00
ENDCHAR
STARTCHAR U+277F
ENCODING 10111
SWIDTH 666 0
DWIDTH 12 0
BBX 11 11 0 0
BITMAP
1F00
3F80
6CC0
CB60
EB60
EB60
EB60
EB60
6CC0
3F80
1F00
ENDCHAR
STARTCHAR U+2780
ENCODING 10112
SWIDTH 666 0
DWIDTH 12 0
BBX 11 11 0 0
BITMAP
1F00
2080
4C40
8420
8420
8420
8420
8420
4440
2080
1F00
ENDCHAR
STARTCHAR U+2781
ENCODING 10113
SWIDTH 666 0
DWIDTH 12 0
BBX 11 11 0 0
BITMAP
1F00
2080
4E40
9120
8120
8220
8420
8820
5F40
2080
1F00
ENDCHAR
STARTCHAR U+2782
ENCODING 10114
SWIDTH 666 0
DWIDTH 12 0
BBX 11 11 0 0
BITMAP
1F00
2080
4E40
9120
8120
8620
8120
9120
4E40
2080
1F00
ENDCHAR
STARTCHAR U+2783
ENCODING 10115
SWIDTH 666 0
DWIDTH 12 0
BBX 11 11 0 0
BITMAP
1F00
2080
4240
8620
8A20
9220
BF20
8220
4240
2080
1F00
ENDCHAR
STARTCHAR U+2784
ENCODING 10116
SWIDTH 666 0
DWIDTH 12 0
BBX 11 11 0 0
BITMAP
1F00
2080
5F40
9020
9E20
9120
8120
9120
4E40
2080
1F00
ENDCHAR
STARTCHAR U+2785
ENCODING 10117
SWIDTH 666 0
DWIDTH 12 0
BBX 11 11 0 0
BITMAP
1F00
2080
4E40
9120
9020
9E20
9120
9120
4E40
2080
1F00
ENDCHAR
STARTCHAR U+2786
ENCODING 10118
SWIDTH 666 0
DWIDTH 12 0
BBX 11 11 0 0
BITMAP
1F00
2080
5F40
8120
8220
8220
8420
8420
4440
2080
1F00
ENDCHAR
STARTCHAR U+2787
ENCODING 10119
SWIDTH 666 0
DWIDTH 12 0
BBX 11 11 0 0
BITMAP
1F00
2080
4E40
9120
9120
8E20
9120
9120
4E40
2080
1F00
ENDCHAR
STARTCHAR U+2788
ENCODING 10120
SWIDTH 666 0
DWIDTH 12 0
BBX 11 11 0 0
BITMAP
1F00
2080
4E40
9120
9120
8F20
8120
9120
4E40
2080
1F00
ENDCHAR
STARTCHAR U+2789
ENCODING 10121
SWIDTH 666 0
DWIDTH 12 0
BBX 11 11 0 0
BITMAP
1F00
2080
5340
B4A0
94A0
94A0
94A0
94A0
5340
2080
1F00
ENDCHAR
STARTCHAR U+278A
ENCODING 10122
SWIDTH 666 0
DWIDTH 12 0
BBX 11 11 0 0
BITMAP
1F00
3F80
73C0
FBE0
FBE0
FBE0
FBE0
FBE0
7BC0
3F80
1F00
ENDCHAR
STARTCHAR U+278B
ENCODING 10123
SWIDTH 666 0
DWIDTH 12 0
BBX 11 11 0 0
BITMAP
1F00
3F80
71C0
EEE0
FEE0
FDE0
FBE0
F7E0
60C0
3F80
1F00
ENDCHAR
STARTCHAR U+278C
ENCODING 10124
SWIDTH 666 0
DWIDTH 12 0
BBX 11 11 0 0
BITMAP
1F00
3F80
71C0
EEE0
FEE0
F9E0
FEE0
EEE0
71C0
3F80
1F00
ENDCHAR
STARTCHAR U+278D
ENCODING 10125
SWIDTH 666 0
DWIDTH 12 0
BBX 11 11 0 0
BITMAP
1F00
3F80
7DC0
F9E0
F5E0
EDE0
C0E0
FDE0
7DC0
3F80
1F00
ENDCHAR
STARTCHAR U+278E
ENCODING 10126
SWIDTH 666 0
DWIDTH 12 0
BBX 11 11 0 0
BITMAP
1F00
3F80
60C0
EFE0
E1E0
EEE0
FEE0
EEE0
71C0
3F80
1F00
ENDCHAR
STARTCHAR U+278F
ENCODING 10127
SWIDTH 666 0
DWIDTH 12 0
BBX 11 11 0 0
BITMAP
1F00
3F80
71C0
EEE0
EFE0
E1E0
EEE0
EEE0
71C0
3F80
1F00
ENDCHAR
STARTCHAR U+2790
ENCODING 10128
SWIDTH 666 0
DWIDTH 12 0
BBX 11 11 0 0
BITMAP
1F00
3F80
60C0
FEE0
FDE0
FDE0
FBE0
FBE0
7BC0
3F80
1F00
ENDCHAR
STARTCHAR U+2791
ENCODING 10129
SWIDTH 666 0
DWIDTH 12 0
BBX 11 11 0 0
BITMAP
1F00
3F80
71C0
EEE0
EEE0
F1E0
EEE0
EEE0
71C0
3F80
1F00
ENDCHAR
STARTCHAR U+2792
ENCODING 10130
SWIDTH 666 0
DWIDTH 12 0
BBX 11 11 0 0
BITMAP
1F00
3F80
71C0
EEE0
EEE0
F0E0
FEE0
EEE0
71C0
3F80
1F00
ENDCHAR
STARTCHAR U+2793
ENCODING 10131
SWIDTH 666 0
DWIDTH 12 0
BBX 11 11 0 0
BITMAP
1F00
3F80
6CC0
CB60
EB60
EB60
EB60
EB60
6CC0
3F80
1F00
ENDCHAR
STARTCHAR U+3000
ENCODING 12288
SWIDTH 666 0
DWIDTH 12 0
BBX 0 0 0 0
BITMAP
ENDCHAR
STARTCHAR U+3001
ENCODING 12289
SWIDTH 666 0
DWIDTH 12 0
BBX 5 5 0 0
BITMAP
C0
E0
70
38
18
ENDCHAR
STARTCHAR U+3002
ENCODING 12290
SWIDTH 666 0
DWIDTH 12 0
BBX 5 5 0 0
BITMAP
70
F8
D8
F8
70
ENDCHAR
STARTCHAR U+3007
ENCODING 12295
SWIDTH 666 0
DWIDTH 12 0
BBX 11 11 0 0
BITMAP
1F00
3F80
71C0
E0E0
C060
C060
C060
E0E0
71C0
3F80
1F00
ENDCHAR
STARTCHAR U+3008
ENCODING 12296
SWIDTH 277 0
DWIDTH 5 0
BBX 4 11 0 0
BITMAP
30
30
60
60
C0
C0
C0
60
60
30
30
ENDCHAR
STARTCHAR U+3009
ENCODING 12297
SWIDTH 277 0
DWIDTH 5 0
BBX 4 11 0 0
BITMAP
C0
C0
60
60
30
30
30
60
60
C0
C0
ENDCHAR
STARTCHAR U+300A
ENCODING 12298
SWIDTH 444 0
DWIDTH 8 0
BBX 7 11 0 0
BITMAP
36
36
6C
6C
D8
D8
D8
6C
6C
36
36
ENDCHAR
STARTCHAR U+300B
ENCODING 12299
SWIDTH 444 0
DWIDTH 8 0
BBX 7 11 0 0
BITMAP
D8
D8
6C
6C
36
36
36
6C
6C
D8
D8
ENDCHAR
STARTCHAR U+300C
ENCODING 12300
SWIDTH 333 0
DWIDTH 6 0
BBX 5 8 0 3
BITMAP
F8
F8
C0
C0
C0
C0
C0
C0
ENDCHAR
STARTCHAR U+300D
ENCODING 12301
SWIDTH 333 0
DWIDTH 6 0
BBX 5 9 0 0
BITMAP
18
18
18
18
18
18
18
F8
F8
ENDCHAR
STARTCHAR U+300E
ENCODING 12302
SWIDTH 333 0
DWIDTH 6 0
BBX 5 8 0 3
BITMAP
F8
88
B8
A0
A0
A0
A0
E0
ENDCHAR
STARTCHAR U+300F
ENCODING 12303
SWIDTH 333 0
DWIDTH 6 0
BBX 5 8 0 0
BITMAP
38
28
28
28
28
E8
88
F8
ENDCHAR
STARTCHAR U+301C
ENCODING 12316
SWIDTH 666 0
DWIDTH 12 0
BBX 10 4 0 4
BITMAP
7800
FCC0
CFC0
0780
ENDCHAR
STARTCHAR U+3131
ENCODING 12593
SWIDTH 666 0
DWIDTH 12 0
BBX 9 9 1 1
BITMAP
FF80
FF80
0180
0180
0180
0180
0180
0180
0180
ENDCHAR
STARTCHAR U+3132
ENCODING 12594
SWIDTH 666 0
DWIDTH 12 0
BBX 11 9 0 1
BITMAP
FBE0
FBE0
1860
1860
1860
1860
1860
1860
1860
ENDCHAR
STARTCHAR U+3133
ENCODING 12595
SWIDTH 666 0
DWIDTH 12 0
BBX 11 9 0 1
BITMAP
F980
F980
1980
1BC0
1BC0
1BC0
1FE0
1E60
1E60
ENDCHAR
STARTCHAR U+3134
ENCODING 12596
SWIDTH 666 0
DWIDTH 12 0
BBX 9 9 1 1
BITMAP
C000
C000
C000
C000
C000
C000
C000
FF80
FF80
ENDCHAR
STARTCHAR U+3135
ENCODING 12597
SWIDTH 666 0
DWIDTH 12 0
BBX 11 9 0 1
BITMAP
C7E0
C7E0
C180
C180
C3C0
C3C0
C7E0
FE60
FE60
ENDCHAR
STARTCHAR U+3136
ENCODING 12598
SWIDTH 666 0
DWIDTH 12 0
BBX 11 9 0 1
BITMAP
C180
C180
C7E0
C7E0
C3C0
C660
C660
FFE0
FBC0
ENDCHAR
STARTCHAR U+3137
ENCODING 12599
SWIDTH 666 0
DWIDTH 12 0
BBX 9 9 1 1
BITMAP
FF80
FF80
C000
C000
C000
C000
C000
FF80
FF80
ENDCHAR
STARTCHAR U+3138
ENCODING 12600
SWIDTH 666 0
DWIDTH 12 0
BBX 11 9 0 1
BITMAP
FBE0
FBE0
C300
C300
C300
C300
C300
FBE0
FBE0
ENDCHAR
STARTCHAR U+3139
ENCODING 12601
SWIDTH 666 0
DWIDTH 12 0
BBX 9 9 1 1
BITMAP
FF80
FF80
0180
FF80
FF80
C000
C000
FF80
FF80
ENDCHAR
STARTCHAR U+313A
ENCODING 12602
SWIDTH 666 0
DWIDTH 12 0
BBX 11 9 0 1
BITMAP
FBE0
FBE0
1860
F860
F860
C060
C060
F860
F860
ENDCHAR
STARTCHAR U+313B
ENCODING 12603
SWIDTH 666 0
DWIDTH 12 0
BBX 11 9 0 1
BITMAP
FBE0
FBE0
1B60
FB60
FB60
C360
C360
FBE0
FBE0
ENDCHAR
STARTCHAR U+313C
ENCODING 12604
SWIDTH 666 0
DWIDTH 12 0
BBX 11 9 0 1
BITMAP
FB60
FB60
1B60
FBE0
FBE0
C360
C360
FBE0
FBE0
ENDCHAR
STARTCHAR U+313D
ENCODING 12605
SWIDTH 666 0
DWIDTH 12 0
BBX 11 9 0 1
BITMAP
F980
F980
1980
FBC0
FBC0
C3C0
C7E0
FE60
FE60
ENDCHAR
STARTCHAR U+313E
ENCODING 12606
SWIDTH 666 0
DWIDTH 12 0
BBX 11 9 0 1
BITMAP
FBE0
FBE0
1B00
FBE0
FBE0
C300
C300
FBE0
FBE0
ENDCHAR
STARTCHAR U+313F
ENCODING 12607
SWIDTH 666 0
DWIDTH 12 0
BBX 11 9 0 1
BITMAP
FBE0
FBE0
1800
F940
F940
C140
C140
FBE0
FBE0
ENDCHAR
STARTCHAR U+3140
ENCODING 12608
SWIDTH 666 0
DWIDTH 12 0
BBX 11 9 0 1
BITMAP
F980
F980
1FE0
FFE0
FBC0
C660
C660
FFE0
FBC0
ENDCHAR
STARTCHAR U+3141
ENCODING 12609
SWIDTH 666 0
DWIDTH 12 0
BBX 9 9 1 1
BITMAP
FF80
FF80
C180
C180
C180
C180
C180
FF80
FF80
ENDCHAR
STARTCHAR U+3142
ENCODING 12610
SWIDTH 666 0
DWIDTH 12 0
BBX 9 9 1 1
BITMAP
C180
C180
C180
FF80
FF80
C180
C180
FF80
FF80
ENDCHAR
STARTCHAR U+3143
ENCODING 12611
SWIDTH 666 0
DWIDTH 12 0
BBX 11 9 0 1
BITMAP
DB60
DB60
FBE0
FBE0
DB60
DB60
DB60
FBE0
FBE0
ENDCHAR
STARTCHAR U+3144
ENCODING 12612
SWIDTH 666 0
DWIDTH 12 0
BBX 11 9 0 1
BITMAP
D980
D980
F980
FBC0
DBC0
DBC0
DFE0
FE60
FE60
ENDCHAR
STARTCHAR U+3145
ENCODING 12613
SWIDTH 666 0
DWIDTH 12 0
BBX 9 9 1 1
BITMAP
0800
1C00
1C00
3E00
3600
7700
6300
E380
C180
ENDCHAR
STARTCHAR U+3146
ENCODING 12614
SWIDTH 666 0
DWIDTH 12 0
BBX 9 9 1 1
BITMAP
3600
3600
3600
7700
7F00
7F00
DD80
DD80
DD80
ENDCHAR
STARTCHAR U+3147
ENCODING 12615
SWIDTH 666 0
DWIDTH 12 0
BBX 9 9 1 1
BITMAP
3E00
7F00
E380
C180
C180
C180
E380
7F00
3E00
ENDCHAR
STARTCHAR U+3148
ENCODING 12616
SWIDTH 666 0
DWIDTH 12 0
BBX 9 9 1 1
BITMAP
FF80
FF80
1C00
3E00
3600
7700
6300
E380
C180
ENDCHAR
STARTCHAR U+3149
ENCODING 12617
SWIDTH 666 0
DWIDTH 12 0
BBX 9 9 1 1
BITMAP
FF80
FF80
3600
3600
7700
7F00
7F00
DD80
DD80
ENDCHAR
STARTCHAR U+314A
ENCODING 12618
SWIDTH 666 0
DWIDTH 12 0
BBX 9 9 1 1
BITMAP
3E00
3E00
0000
FF80
FF80
3E00
7700
E380
C180
ENDCHAR
STARTCHAR U+314B
ENCODING 12619
SWIDTH 666 0
DWIDTH 12 0
BBX 9 9 1 1
BITMAP
FF80
FF80
0180
0180
FF80
FF80
0180
0180
0180
ENDCHAR
STARTCHAR U+314C
ENCODING 12620
SWIDTH 666 0
DWIDTH 12 0
BBX 9 9 1 1
BITMAP
FF80
FF80
C000
FF80
FF80
C000
C000
FF80
FF80
ENDCHAR
STARTCHAR U+314D
ENCODING 12621
SWIDTH 666 0
DWIDTH 12 0
BBX 9 9 1 1
BITMAP
FF80
FF80
0000
6300
6300
6300
6300
FF80
FF80
ENDCHAR
STARTCHAR U+314E
ENCODING 12622
SWIDTH 666 0
DWIDTH 12 0
BBX 9 10 1 1
BITMAP
3E00
3E00
0000
FF80
FF80
3E00
6300
6300
7F00
3E00
ENDCHAR
STARTCHAR U+314F
ENCODING 12623
SWIDTH 666 0
DWIDTH 12 0
BBX 4 11 4 0
BITMAP
C0
C0
C0
C0
F0
F0
C0
C0
C0
C0
C0
ENDCHAR
STARTCHAR U+3150
ENCODING 12624
SWIDTH 666 0
DWIDTH 12 0
BBX 6 11 3 0
BITMAP
CC
CC
CC
CC
FC
FC
CC
CC
CC
CC
CC
ENDCHAR
STARTCHAR U+3151
ENCODING 12625
SWIDTH 666 0
DWIDTH 12 0
BBX 4 11 4 0
BITMAP
C0
C0
F0
F0
C0
C0
F0
F0
C0
C0
C0
ENDCHAR
STARTCHAR U+3152
ENCODING 12626
SWIDTH 666 0
DWIDTH 12 0
BBX 6 11 3 0
BITMAP
CC
CC
FC
FC
CC
CC
FC
FC
CC
CC
CC
ENDCHAR
STARTCHAR U+3153
ENCODING 12627
SWIDTH 666 0
DWIDTH 12 0
BBX 4 11 3 0
BITMAP
30
30
30
30
F0
F0
30
30
30
30
30
ENDCHAR
STARTCHAR U+3154
ENCODING 12628
SWIDTH 666 0
DWIDTH 12 0
BBX 7 11 2 0
BITMAP
36
36
36
36
F6
F6
36
36
36
36
36
ENDCHAR
STARTCHAR U+3155
ENCODING 12629
SWIDTH 666 0
DWIDTH 12 0
BBX 4 11 3 0
BITMAP
30
30
F0
F0
30
30
F0
F0
30
30
30
ENDCHAR
STARTCHAR U+3156
ENCODING 12630
SWIDTH 666 0
DWIDTH 12 0
BBX 7 11 2 0
BITMAP
36
36
F6
F6
36
36
F6
F6
36
36
36
ENDCHAR
STARTCHAR U+3157
ENCODING 12631
SWIDTH 666 0
DWIDTH 12 0
BBX 11 7 0 2
BITMAP
0600
0600
0600
0600
0600
FFE0
FFE0
ENDCHAR
STARTCHAR U+3158
ENCODING 12632
SWIDTH 666 0
DWIDTH 12 0
BBX 11 11 0 0
BITMAP
00C0
00C0
00C0
00C0
18E0
18E0
18C0
FFC0
FFC0
00C0
00C0
ENDCHAR
STARTCHAR U+3159
ENCODING 12633
SWIDTH 666 0
DWIDTH 12 0
BBX 10 11 0 0
BITMAP
02C0
02C0
02C0
02C0
33C0
33C0
32C0
FEC0
FEC0
02C0
02C0
ENDCHAR
STARTCHAR U+315A
ENCODING 12634
SWIDTH 666 0
DWIDTH 12 0
BBX 10 11 0 0
BITMAP
00C0
00C0
00C0
00C0
18C0
18C0
18C0
FFC0
FFC0
00C0
00C0
ENDCHAR
STARTCHAR U+315B
ENCODING 12635
SWIDTH 666 0
DWIDTH 12 0
BBX 11 7 0 2
BITMAP
3180
3180
3180
3180
3180
FFE0
FFE0
ENDCHAR
STARTCHAR U+315C
ENCODING 12636
SWIDTH 666 0
DWIDTH 12 0
BBX 11 6 0 2
BITMAP
FFE0
FFE0
0600
0600
0600
0600
ENDCHAR
STARTCHAR U+315D
ENCODING 12637
SWIDTH 666 0
DWIDTH 12 0
BBX 10 11 0 0
BITMAP
00C0
00C0
00C0
00C0
FFC0
FFC0
18C0
1BC0
1BC0
18C0
18C0
ENDCHAR
STARTCHAR U+315E
ENCODING 12638
SWIDTH 666 0
DWIDTH 12 0
BBX 10 11 0 0
BITMAP
02C0
02C0
02C0
02C0
FEC0
FEC0
32C0
36C0
36C0
32C0
32C0
ENDCHAR
STARTCHAR U+315F
ENCODING 12639
SWIDTH 666 0
DWIDTH 12 0
BBX 10 11 0 0
BITMAP
00C0
00C0
00C0
00C0
00C0
FFC0
FFC0
18C0
18C0
18C0
18C0
ENDCHAR
STARTCHAR U+3160
ENCODING 12640
SWIDTH 666 0
DWIDTH 12 0
BBX 11 6 0 2
BITMAP
FFE0
FFE0
3180
3180
3180
3180
ENDCHAR
STARTCHAR U+3161
ENCODING 12641
SWIDTH 666 0
DWIDTH 12 0
BBX 11 2 0 4
BITMAP
FFE0
FFE0
ENDCHAR
STARTCHAR U+3162
ENCODING 12642
SWIDTH 666 0
DWIDTH 12 0
BBX 10 11 0 0
BITMAP
00C0
00C0
00C0
00C0
00C0
00C0
00C0
FFC0
FFC0
00C0
00C0
ENDCHAR
STARTCHAR U+3163
ENCODING 12643
SWIDTH 666 0
DWIDTH 12 0
BBX 2 11 5 0
BITMAP
C0
C0
C0
C0
C0
C0
C0
C0
C0
C0
C0
ENDCHAR
STARTCHAR U+AC00
ENCODING 44032
SWIDTH 666 0
DWIDTH 12 0
BBX 11 11 0 0
BITMAP
FCC0
FCC0
0CC0
0CC0
0CE0
1CE0
18C0
38C0
F0C0
E0C0
00C0
ENDCHAR
STARTCHAR U+AC01
ENCODING 44033
SWIDTH 666 0
DWIDTH 12 0
BBX 11 11 0 0
BITMAP
FCC0
FCC0
0CE0
1CE0
F8C0
F0C0
0000
7FC0
7FC0
00C0
00C0
ENDCHAR
STARTCHAR U+AC04
ENCODING 44036
SWIDTH 666 0
DWIDTH 12 0
BBX 11 11 0 0
BITMAP
FCC0
FCC0
0CE0
1CE0
F8C0
F0C0
00C0
6000
6000
7FC0
7FC0
ENDCHAR
STARTCHAR U+AC07
ENCODING 44039
SWIDTH 666 0
DWIDTH 12 0
BBX 11 11 0 0
BITMAP
FCC0
FCC0
0CE0
1CE0
F8C0
F0C0
0000
7FC0
6000
7FC0
7FC0
ENDCHAR
STARTCHAR U+AC08
ENCODING 44040
SWIDTH 666 0
DWIDTH 12 0
BBX 11 11 0 0
BITMAP
FCC0
FCC0
0CE0
1CE0
F8C0
F0C0
7FC0
07C0
7800
7FC0
7FC0
ENDCHAR
STARTCHAR U+AC09
ENCODING 44041
SWIDTH 666 0
DWIDTH 12 0
BBX 11 11 0 0
BITMAP
FCC0
FCC0
0CE0
1CE0
F8C0
F0C0
7BC0
1BC0
60C0
78C0
78C0
ENDCHAR
STARTCHAR U+AC0A
ENCODING 44042
SWIDTH 666 0
DWIDTH 12 0
BBX 11 11 0 0
BITMAP
FCC0
FCC0
0CE0
1CE0
F8C0
F0C0
7BC0
1AC0
62C0
7BC0
7BC0
ENDCHAR
STARTCHAR U+AC0B
ENCODING 44043
SWIDTH 666 0
DWIDTH 12 0
BBX 11 11 0 0
BITMAP
FCC0
FCC0
0CE0
1CE0
F8C0
F0C0
7AC0
1BC0
62C0
7BC0
7BC0
ENDCHAR
STARTCHAR U+AC10
ENCODING 44048
SWIDTH 666 0
DWIDTH 12 0
BBX 11 11 0 0
BITMAP
FCC0
FCC0
0CE0
1CE0
F8C0
F0C0
0000
7FC0
60C0
7FC0
7FC0
ENDCHAR
STARTCHAR U+AC11
ENCODING 44049
SWIDTH 666 0
DWIDTH 12 0
BBX 11 11 0 0
BITMAP
FCC0
FCC0
0CE0
1CE0
F8C0
F0C0
60C0
7FC0
60C0
7FC0
7FC0
ENDCHAR
STARTCHAR U+AC12
ENCODING 44050
SWIDTH 666 0
DWIDTH 12 0
BBX 11 11 0 0
BITMAP
FCC0
FCC0
0CE0
1CE0
F8C0
F0C0
0000
6D80
7D80
6FC0
7EC0
ENDCHAR
STARTCHAR U+AC13
ENCODING 44051
SWIDTH 666 0
DWIDTH 12 0
BBX 11 11 0 0
BITMAP
FCC0
FCC0
0CE0
1CE0
F8C0
F0C0
04C0
0E00
1F00
7BC0
71C0
ENDCHAR
STARTCHAR U+AC14
ENCODING 44052
SWIDTH 666 0
DWIDTH 12 0
BBX 11 11 0 0
BITMAP
FCC0
FCC0
0CE0
1CE0
F8C0
F0C0
0000
1100
3B80
7FC0
6EC0
ENDCHAR
STARTCHAR U+AC15
ENCODING 44053
SWIDTH 666 0
DWIDTH 12 0
BBX 11 11 0 0
BITMAP
FCC0
FCC0
0CE0
1CE0
F8C0
F0C0
0000
3F80
60C0
7FC0
3F80
ENDCHAR
STARTCHAR U+AC16
ENCODING 44054
SWIDTH 666 0
DWIDTH 12 0
BBX 11 11 0 0
BITMAP
FCC0
FCC0
0CE0
1CE0
F8C0
F0C0
0000
7FC0
1F00
7BC0
71C0
ENDCHAR
STARTCHAR U+AC17
ENCODING 44055
SWIDTH 666 0
DWIDTH 12 0
BBX 11 11 0 0
BITMAP
FCC0
FCC0
0CE0
1CE0
F8C0
F0C0
0600
7FC0
1F00
7BC0
71C0
ENDCHAR
STARTCHAR U+AC19
ENCODING 44057
SWIDTH 666 0
DWIDTH 12 0
BBX 11 11 0 0
BITMAP
FCC0
FCC0
0CE0
1CE0
F8C0
FFC0
6000
7FC0
6000
7FC0
7FC0
ENDCHAR
STARTCHAR U+AC1A
ENCODING 44058
SWIDTH 666 0
DWIDTH 12 0
BBX 11 11 0 0
BITMAP
FCC0
FCC0
0CE0
1CE0
F8C0
F0C0
0000
7FC0
3180
7FC0
7FC0
ENDCHAR
STARTCHAR U+AC1B
ENCODING 44059
SWIDTH 666 0
DWIDTH 12 0
BBX 11 11 0 0
BITMAP
FCC0
FCC0
0CE0
1CE0
F8C0
F0C0
0600
7FC0
3180
3F80
1F00
ENDCHAR
STARTCHAR U+AC1C
ENCODING 44060
SWIDTH 666 0
DWIDTH 12 0
BBX 10 11 0 0
BITMAP
FAC0
FAC0
1AC0
1AC0
1BC0
3BC0
32C0
72C0
E2C0
C2C0
02C0
ENDCHAR
STARTCHAR U+AC1D
ENCODING 44061
SWIDTH 666 0
DWIDTH 12 0
BBX 10 11 0 0
BITMAP
FAC0
FAC0
1BC0
3BC0
F2C0
E2C0
0000
7FC0
7FC0
00C0
00C0
ENDCHAR
STARTCHAR U+AC20
ENCODING 44064
SWIDTH 666 0
DWIDTH 12 0
BBX 10 11 0 0
BITMAP
FAC0
FAC0
1BC0
3BC0
F2C0
E2C0
02C0
6000
6000
7FC0
7FC0
ENDCHAR
STARTCHAR U+AC23
ENCODING 44067
SWIDTH 666 0
DWIDTH 12 0
BBX 10 11 0 0
BITMAP
FAC0
FAC0
1BC0
3BC0
F2C0
E2C0
0000
7FC0
6000
7FC0
7FC0
ENDCHAR
STARTCHAR U+AC24
ENCODING 44068
SWIDTH 666 0
DWIDTH 12 0
BBX 10 11 0 0
BITMAP
FAC0
FAC0
1BC0
3BC0
F2C0
E2C0
7FC0
07C0
7800
7FC0
7FC0
ENDCHAR
STARTCHAR U+AC2C
ENCODING 44076
SWIDTH 666 0
DWIDTH 12 0
BBX 10 11 0 0
BITMAP
FAC0
FAC0
1BC0
3BC0
F2C0
E2C0
0000
7FC0
60C0
7FC0
7FC0
ENDCHAR
STARTCHAR U+AC2D
ENCODING 44077
SWIDTH 666 0
DWIDTH 12 0
BBX 10 11 0 0
BITMAP
FAC0
FAC0
1BC0
3BC0
F2C0
E2C0
60C0
7FC0
60C0
7FC0
7FC0
ENDCHAR
STARTCHAR U+AC2F
ENCODING 44079
SWIDTH 666 0
DWIDTH 12 0
BBX 10 11 0 0
BITMAP
FAC0
FAC0
1BC0
3BC0
F2C0
E2C0
0400
0E00
1F00
7BC0
71C0
ENDCHAR
STARTCHAR U+AC30
ENCODING 44080
SWIDTH 666 0
DWIDTH 12 0
BBX 10 11 0 0
BITMAP
FAC0
FAC0
1BC0
3BC0
F2C0
E2C0
0000
1100
3B80
7FC0
6EC0
ENDCHAR
STARTCHAR U+AC31
ENCODING 44081
SWIDTH 666 0
DWIDTH 12 0
BBX 10 11 0 0
BITMAP
FAC0
FAC0
1BC0
3BC0
F2C0
E2C0
0000
3F80
60C0
7FC0
3F80
ENDCHAR
STARTCHAR U+AC38
ENCODING 44088
SWIDTH 666 0
DWIDTH 12 0
BBX 11 11 0 0
BITMAP
FCC0
FCC0
0CE0
0CE0
0CC0
1CC0
18E0
38E0
F0C0
E0C0
00C0
ENDCHAR
STARTCHAR U+AC39
ENCODING 44089
SWIDTH 666 0
DWIDTH 12 0
BBX 11 11 0 0
BITMAP
FCC0
FCE0
0CC0
1CE0
F8E0
F0C0
0000
7FC0
7FC0
00C0
00C0
ENDCHAR
STARTCHAR U+AC3C
ENCODING 44092
SWIDTH 666 0
DWIDTH 12 0
BBX 11 11 0 0
BITMAP
FCC0
FCE0
0CE0
1CC0
F8E0
F0E0
00C0
6000
6000
7FC0
7FC0
ENDCHAR
STARTCHAR U+AC40
ENCODING 44096
SWIDTH 666 0
DWIDTH 12 0
BBX 11 11 0 0
BITMAP
FCC0
FCE0
0CC0
1CE0
F8E0
F0C0
7FC0
07C0
7800
7FC0
7FC0
ENDCHAR
STARTCHAR U+AC4B
ENCODING 44107
SWIDTH 666 0
DWIDTH 12 0
BBX 11 11 0 0
BITMAP
FCC0
FCE0
0CE0
1CC0
F8E0
F0E0
04C0
0E00
1F00
7BC0
71C0
ENDCHAR
STARTCHAR U+AC4D
ENCODING 44109
SWIDTH 666 0
DWIDTH 12 0
BBX 11 11 0 0
BITMAP
FCC0
FCE0
0CC0
1CE0
F8E0
F0C0
0000
3F80
60C0
7FC0
3F80
ENDCHAR
STARTCHAR U+AC54
ENCODING 44116
SWIDTH 666 0
DWIDTH 12 0
BBX 10 11 0 0
BITMAP
FAC0
FAC0
1BC0
1BC0
1AC0
3AC0
33C0
73C0
E2C0
C2C0
02C0
ENDCHAR
STARTCHAR U+AC58
ENCODING 44120
SWIDTH 666 0
DWIDTH 12 0
BBX 10 11 0 0
BITMAP
FAC0
FBC0
1BC0
3AC0
F3C0
E3C0
02C0
6000
6000
7FC0
7FC0
ENDCHAR
STARTCHAR U+AC5C
ENCODING 44124
SWIDTH 666 0
DWIDTH 12 0
BBX 10 11 0 0
BITMAP
FAC0
FBC0
1AC0
3BC0
F3C0
E2C0
7FC0
07C0
7800
7FC0
7FC0
ENDCHAR
STARTCHAR U+AC65
ENCODING 44133
SWIDTH 666 0
DWIDTH 12 0
BBX 10 11 0 0
BITMAP
FAC0
FBC0
1AC0
3BC0
F3C0
E2C0
60C0
7FC0
60C0
7FC0
7FC0
ENDCHAR
STARTCHAR U+AC70
ENCODING 44144
SWIDTH 666 0
DWIDTH 12 0
BBX 10 11 0 0
BITMAP
FCC0
FCC0
0CC0
0CC0
0FC0
1FC0
18C0
38C0
F0C0
E0C0
00C0
ENDCHAR
STARTCHAR U+AC71
ENCODING 44145
SWIDTH 666 0
DWIDTH 12 0
BBX 10 11 0 0
BITMAP
FCC0
FCC0
0FC0
1FC0
F8C0
F0C0
0000
7FC0
7FC0
00C0
00C0
ENDCHAR
STARTCHAR U+AC74
ENCODING 44148
SWIDTH 666 0
DWIDTH 12 0
BBX 10 11 0 0
BITMAP
FCC0
FCC0
0FC0
1FC0
F8C0
F0C0
00C0
6000
6000
7FC0
7FC0
ENDCHAR
STARTCHAR U+AC77
ENCODING 44151
SWIDTH 666 0
DWIDTH 12 0
BBX 10 11 0 0
BITMAP
FCC0
FCC0
0FC0
1FC0
F8C0
F0C0
0000
7FC0
6000
7FC0
7FC0
ENDCHAR
STARTCHAR U+AC78
ENCODING 44152
SWIDTH 666 0
DWIDTH 12 0
BBX 10 11 0 0
BITMAP
FCC0
FCC0
0FC0
1FC0
F8C0
F0C0
7FC0
07C0
7800
7FC0
7FC0
ENDCHAR
STARTCHAR U+AC7A
ENCODING 44154
SWIDTH 666 0
DWIDTH 12 0
BBX 10 11 0 0
BITMAP
FCC0
FCC0
0FC0
1FC0
F8C0
F0C0
7BC0
1AC0
62C0
7BC0
7BC0
ENDCHAR
STARTCHAR U+AC80
ENCODING 44160
SWIDTH 666 0
DWIDTH 12 0
BBX 10 11 0 0
BITMAP
FCC0
FCC0
0FC0
1FC0
F8C0
F0C0
0000
7FC0
60C0
7FC0
7FC0
ENDCHAR
STARTCHAR U+AC81
ENCODING 44161
SWIDTH 666 0
DWIDTH 12 0
BBX 10 11 0 0
BITMAP
FCC0
FCC0
0FC0
1FC0
F8C0
F0C0
60C0
7FC0
60C0
7FC0
7FC0
ENDCHAR
STARTCHAR U+AC82
ENCODING 44162
SWIDTH 666 0
DWIDTH 12 0
BBX 10 11 0 0
BITMAP
FCC0
FCC0
0FC0
1FC0
F8C0
F0C0
0000
6D80
7D80
6FC0
7EC0
ENDCHAR
STARTCHAR U+AC83
ENCODING 44163
SWIDTH 666 0
DWIDTH 12 0
BBX 10 11 0 0
BITMAP
FCC0
FCC0
0FC0
1FC0
F8C0
F0C0
04C0
0E00
1F00
7BC0
71C0
ENDCHAR
STARTCHAR U+AC84
ENCODING 44164
SWIDTH 666 0
DWIDTH 12 0
BBX 10 11 0 0
BITMAP
FCC0
FCC0
0FC0
1FC0
F8C0
F0C0
0000
1100
3B80
7FC0
6EC0
ENDCHAR
STARTCHAR U+AC85
ENCODING 44165
SWIDTH 666 0
DWIDTH 12 0
BBX 10 11 0 0
BITMAP
FCC0
FCC0
0FC0
1FC0
F8C0
F0C0
0000
3F80
60C0
7FC0
3F80
ENDCHAR
STARTCHAR U+AC86
ENCODING 44166
SWIDTH 666 0
DWIDTH 12 0
BBX 10 11 0 0
BITMAP
FCC0
FCC0
0FC0
1FC0
F8C0
F0C0
0000
7FC0
1F00
7BC0
71C0
ENDCHAR
STARTCHAR U+AC89
ENCODING 44169
SWIDTH 666 0
DWIDTH 12 0
BBX 10 11 0 0
BITMAP
FCC0
FCC0
0FC0
1FC0
F8C0
FFC0
6000
7FC0
6000
7FC0
7FC0
ENDCHAR
STARTCHAR U+AC8A
ENCODING 44170
SWIDTH 666 0
DWIDTH 12 0
BBX 10 11 0 0
BITMAP
FCC0
FCC0
0FC0
1FC0
F8C0
F0C0
0000
7FC0
3180
7FC0
7FC0
ENDCHAR
STARTCHAR U+AC8B
ENCODING 44171
SWIDTH 666 0
DWIDTH 12 0
BBX 10 11 0 0
BITMAP
FCC0
FCC0
0FC0
1FC0
F8C0
F0C0
0600
7FC0
3180
3F80
1F00
ENDCHAR
STARTCHAR U+AC8C
ENCODING 44172
SWIDTH 666 0
DWIDTH 12 0
BBX 10 11 0 0
BITMAP
FAC0
FAC0
1AC0
1AC0
1EC0
3EC0
32C0
72C0
E2C0
C2C0
02C0
ENDCHAR
STARTCHAR U+AC8D
ENCODING 44173
SWIDTH 666 0
DWIDTH 12 0
BBX 10 11 0 0
BITMAP
FAC0
FAC0
1EC0
3EC0
F2C0
E2C0
0000
7FC0
7FC0
00C0
00C0
ENDCHAR
STARTCHAR U+AC90
ENCODING 44176
SWIDTH 666 0
DWIDTH 12 0
BBX 10 11 0 0
BITMAP
FAC0
FAC0
1EC0
3EC0
F2C0
E2C0
02C0
6000
6000
7FC0
7FC0
ENDCHAR
STARTCHAR U+AC94
ENCODING 44180
SWIDTH 666 0
DWIDTH 12 0
BBX 10 11 0 0
BITMAP
FAC0
FAC0
1EC0
3EC0
F2C0
E2C0
7FC0
07C0
7800
7FC0
7FC0
ENDCHAR
STARTCHAR U+AC9C
ENCODING 44188
SWIDTH 666 0
DWIDTH 12 0
BBX 10 11 0 0
BITMAP
FAC0
FAC0
1EC0
3EC0
F2C0
E2C0
0000
7FC0
60C0
7FC0
7FC0
ENDCHAR
STARTCHAR U+AC9D
ENCODING 44189
SWIDTH 666 0
DWIDTH 12 0
BBX 10 11 0 0
BITMAP
FAC0
FAC0
1EC0
3EC0
F2C0
E2C0
60C0
7FC0
60C0
7FC0
7FC0
ENDCHAR
STARTCHAR U+AC9F
ENCODING 44191
SWIDTH 666 0
DWIDTH 12 0
BBX 10 11 0 0
BITMAP
FAC0
FAC0
1EC0
3EC0
F2C0
E2C0
0400
0E00
1F00
7BC0
71C0
ENDCHAR
STARTCHAR U+ACA0
ENCODING 44192
SWIDTH 666 0
DWIDTH 12 0
BBX 10 11 0 0
BITMAP
FAC0
FAC0
1EC0
3EC0
F2C0
E2C0
0000
1100
3B80
7FC0
6EC0
ENDCHAR
STARTCHAR U+ACA1
ENCODING 44193
SWIDTH 666 0
DWIDTH 12 0
BBX 10 11 0 0
BITMAP
FAC0
FAC0
1EC0
3EC0
F2C0
E2C0
0000
3F80
60C0
7FC0
3F80
ENDCHAR
STARTCHAR U+ACA8
ENCODING 44200
SWIDTH 666 0
DWIDTH 12 0
BBX 10 11 0 0
BITMAP
FCC0
FCC0
0FC0
0FC0
0CC0
1CC0
1BC0
3BC0
F0C0
E0C0
00C0
ENDCHAR
STARTCHAR U+ACA9
ENCODING 44201
SWIDTH 666 0
DWIDTH 12 0
BBX 10 11 0 0
BITMAP
FCC0
FFC0
0CC0
1FC0
FBC0
F0C0
0000
7FC0
7FC0
00C0
00C0
ENDCHAR
STARTCHAR U+ACAA
ENCODING 44202
SWIDTH 666 0
DWIDTH 12 0
BBX 10 11 0 0
BITMAP
FCC0
FFC0
0CC0
1FC0
FBC0
F0C0
0000
7FC0
7FC0
0CC0
0CC0
ENDCHAR
STARTCHAR U+ACAC
ENCODING 44204
SWIDTH 666 0
DWIDTH 12 0
BBX 10 11 0 0
BITMAP
FCC0
FFC0
0CC0
1FC0
FBC0
F0C0
00C0
6000
6000
7FC0
7FC0
ENDCHAR
STARTCHAR U+ACAF
ENCODING 44207
SWIDTH 666 0
DWIDTH 12 0
BBX 10 11 0 0
BITMAP
FCC0
FFC0
0CC0
1FC0
FBC0
F0C0
0000
7FC0
6000
7FC0
7FC0
ENDCHAR
STARTCHAR U+ACB0
ENCODING 44208
SWIDTH 666 0
DWIDTH 12 0
BBX 10 11 0 0
BITMAP
FCC0
FFC0
0CC0
1FC0
FBC0
F0C0
7FC0
07C0
7800
7FC0
7FC0
ENDCHAR
STARTCHAR U+ACB7
ENCODING 44215
SWIDTH 666 0
DWIDTH 12 0
BBX 10 11 0 0
BITMAP
FCC0
FFC0
0CC0
1FC0
F8C0
F300
7FC0
1B80
66C0
7FC0
7B80
ENDCHAR
STARTCHAR U+ACB8
ENCODING 44216
SWIDTH 666 0
DWIDTH 12 0
BBX 10 11 0 0
BITMAP
FCC0
FFC0
0CC0
1FC0
FBC0
F0C0
0000
7FC0
60C0
7FC0
7FC0
ENDCHAR
STARTCHAR U+ACB9
ENCODING 44217
SWIDTH 666 0
DWIDTH 12 0
BBX 10 11 0 0
BITMAP
FCC0
FFC0
0CC0
1FC0
FBC0
F0C0
60C0
7FC0
60C0
7FC0
7FC0
ENDCHAR
STARTCHAR U+ACBB
ENCODING 44219
SWIDTH 666 0
DWIDTH 12 0
BBX 10 11 0 0
BITMAP
FCC0
FFC0
0CC0
1FC0
FBC0
F0C0
04C0
0E00
1F00
7BC0
71C0
ENDCHAR
STARTCHAR U+ACBC
ENCODING 44220
SWIDTH 666 0
DWIDTH 12 0
BBX 10 11 0 0
BITMAP
FCC0
FFC0
0CC0
1FC0
FBC0
F0C0
0000
1100
3B80
7FC0
6EC0
ENDCHAR
STARTCHAR U+ACBD
ENCODING 44221
SWIDTH 666 0
DWIDTH 12 0
BBX 10 11 0 0
BITMAP
FCC0
FFC0
0CC0
1FC0
FBC0
F0C0
0000
3F80
60C0
7FC0
3F80
ENDCHAR
STARTCHAR U+ACBF
ENCODING 44223
SWIDTH 666 0
DWIDTH 12 0
BBX 10 11 0 0
BITMAP
FCC0
FFC0
0CC0
1FC0
FBC0
F0C0
0600
7FC0
1F00
7BC0
71C0
ENDCHAR
STARTCHAR U+ACC1
ENCODING 44225
SWIDTH 666 0
DWIDTH 12 0
BBX 10 11 0 0
BITMAP
FCC0
FFC0
0CC0
1FC0
F8C0
FFC0
6000
7FC0
6000
7FC0
7FC0
ENDCHAR
STARTCHAR U+ACC4
ENCODING 44228
SWIDTH 666 0
DWIDTH 12 0
BBX 10 11 0 0
BITMAP
FAC0
FAC0
1EC0
1EC0
1AC0
3AC0
36C0
76C0
E2C0
C2C0
02C0
ENDCHAR
STARTCHAR U+ACC8
ENCODING 44232
SWIDTH 666 0
DWIDTH 12 0
BBX 10 11 0 0
BITMAP
FAC0
FEC0
1AC0
3EC0
F6C0
E2C0
02C0
6000
6000
7FC0
7FC0
ENDCHAR
STARTCHAR U+ACCC
ENCODING 44236
SWIDTH 666 0
DWIDTH 12 0
BBX 10 11 0 0
BITMAP
FAC0
FEC0
1AC0
3EC0
F6C0
E2C0
7FC0
07C0
7800
7FC0
7FC0
ENDCHAR
STARTCHAR U+ACD5
ENCODING 44245
SWIDTH 666 0
DWIDTH 12 0
BBX 10 11 0 0
BITMAP
FAC0
FEC0
1AC0
3EC0
F6C0
E2C0
60C0
7FC0
60C0
7FC0
7FC0
ENDCHAR
STARTCHAR U+ACD7
ENCODING 44247
SWIDTH 666 0
DWIDTH 12 0
BBX 10 11 0 0
BITMAP
FAC0
FEC0
1AC0
3EC0
F6C0
E2C0
0400
0E00
1F00
7BC0
71C0
ENDCHAR
STARTCHAR U+ACD8
ENCODING 44248
SWIDTH 666 0
DWIDTH 12 0
BBX 10 11 0 0
BITMAP
FAC0
FEC0
1AC0
3EC0
F6C0
E2C0
0000
1100
3B80
7FC0
6EC0
ENDCHAR
STARTCHAR U+ACE0
ENCODING 44256
SWIDTH 666 0
DWIDTH 12 0
BBX 11 10 0 1
BITMAP
7FC0
7FC0
00C0
00C0
0CC0
0CC0
0CC0
0C00
FFE0
FFE0
ENDCHAR
STARTCHAR U+ACE1
ENCODING 44257
SWIDTH 666 0
DWIDTH 12 0
BBX 11 11 0 0
BITMAP
7FC0
7FC0
00C0
0CC0
0CC0
FFE0
0000
7FC0
7FC0
00C0
00C0
ENDCHAR
STARTCHAR U+ACE4
ENCODING 44260
SWIDTH 666 0
DWIDTH 12 0
BBX 11 11 0 0
BITMAP
7FC0
7FC0
00C0
0CC0
0CC0
FFE0
FFE0
0000
6000
7FC0
7FC0
ENDCHAR
STARTCHAR U+ACE7
ENCODING 44263
SWIDTH 666 0
DWIDTH 12 0
BBX 11 11 0 0
BITMAP
7FC0
7FC0
00C0
0CC0
0CC0
FFE0
0000
7FC0
6000
7FC0
7FC0
ENDCHAR
STARTCHAR U+ACE8
ENCODING 44264
SWIDTH 666 0
DWIDTH 12 0
BBX 11 11 0 0
BITMAP
7FC0
7FC0
00C0
0CC0
FFE0
0000
7FC0
07C0
7800
7FC0
7FC0
ENDCHAR
STARTCHAR U+ACEA
ENCODING 44266
SWIDTH 666 0
DWIDTH 12 0
BBX 11 11 0 0
BITMAP
7FC0
7FC0
00C0
0CC0
FFE0
0000
7BC0
1AC0
62C0
7BC0
7BC0
ENDCHAR
STARTCHAR U+ACEC
ENCODING 44268
SWIDTH 666 0
DWIDTH 12 0
BBX 11 11 0 0
BITMAP
7FC0
7FC0
00C0
0CC0
FFE0
0000
7980
1980
6180
7BC0
7AC0
ENDCHAR
STARTCHAR U+ACEF
ENCODING 44271
SWIDTH 666 0
DWIDTH 12 0
BBX 11 11 0 0
BITMAP
7FC0
7FC0
00C0
0CC0
FFE0
0300
7FC0
1B80
66C0
7FC0
7B80
ENDCHAR
STARTCHAR U+ACF0
ENCODING 44272
SWIDTH 666 0
DWIDTH 12 0
BBX 11 11 0 0
BITMAP
7FC0
7FC0
00C0
0CC0
0CC0
FFE0
0000
7FC0
60C0
7FC0
7FC0
ENDCHAR
STARTCHAR U+ACF1
ENCODING 44273
SWIDTH 666 0
DWIDTH 12 0
BBX 11 11 0 0
BITMAP
7FC0
7FC0
00C0
0CC0
0CC0
FFE0
60C0
7FC0
60C0
7FC0
7FC0
ENDCHAR
STARTCHAR U+ACF3
ENCODING 44275
SWIDTH 666 0
DWIDTH 12 0
BBX 11 11 0 0
BITMAP
7FC0
7FC0
00C0
0CC0
0CC0
FFE0
0000
0E00
1F00
7BC0
71C0
ENDCHAR
STARTCHAR U+ACF5
ENCODING 44277
SWIDTH 666 0
DWIDTH 12 0
BBX 11 11 0 0
BITMAP
7FC0
7FC0
00C0
0CC0
0CC0
FFE0
0000
3F80
60C0
7FC0
3F80
ENDCHAR
STARTCHAR U+ACF6
ENCODING 44278
SWIDTH 666 0
DWIDTH 12 0
BBX 11 11 0 0
BITMAP
7FC0
7FC0
00C0
0CC0
0CC0
FFE0
0000
7FC0
1F00
7BC0
71C0
ENDCHAR
STARTCHAR U+ACF9
ENCODING 44281
SWIDTH 666 0
DWIDTH 12 0
BBX 11 11 0 0
BITMAP
7FC0
7FC0
00C0
0CC0
0CC0
FFE0
6000
7FC0
6000
7FC0
7FC0
ENDCHAR
STARTCHAR U+ACFC
ENCODING 44284
SWIDTH 666 0
DWIDTH 12 0
BBX 11 11 0 0
BITMAP
FEC0
FEC0
06C0
06C0
36E0
36E0
36C0
30C0
FFC0
FFC0
00C0
ENDCHAR
STARTCHAR U+ACFD
ENCODING 44285
SWIDTH 666 0
DWIDTH 12 0
BBX 11 11 0 0
BITMAP
FEC0
FEC0
06E0
36E0
30C0
FFC0
0000
7FC0
7FC0
00C0
00C0
ENDCHAR
STARTCHAR U+AD00
ENCODING 44288
SWIDTH 666 0
DWIDTH 12 0
BBX 11 11 0 0
BITMAP
FEC0
FEC0
06E0
36E0
30C0
FFC0
00C0
6000
6000
7FC0
7FC0
ENDCHAR
STARTCHAR U+AD04
ENCODING 44292
SWIDTH 666 0
DWIDTH 12 0
BBX 11 11 0 0
BITMAP
FEC0
FEC0
06E0
36E0
FFC0
0000
7FC0
07C0
7800
7FC0
7FC0
ENDCHAR
STARTCHAR U+AD06
ENCODING 44294
SWIDTH 666 0
DWIDTH 12 0
BBX 11 11 0 0
BITMAP
FEC0
FEC0
06E0
36E0
FFC0
0000
7BC0
1AC0
62C0
7BC0
7BC0
ENDCHAR
STARTCHAR U+AD0C
ENCODING 44300
SWIDTH 666 0
DWIDTH 12 0
BBX 11 11 0 0
BITMAP
FEC0
FEC0
06E0
36E0
30C0
FFC0
0000
7FC0
60C0
7FC0
7FC0
ENDCHAR
STARTCHAR U+AD0D
ENCODING 44301
SWIDTH 666 0
DWIDTH 12 0
BBX 11 11 0 0
BITMAP
FEC0
FEC0
06E0
36C0
30C0
FFC0
60C0
7FC0
60C0
7FC0
7FC0
ENDCHAR
STARTCHAR U+AD0F
ENCODING 44303
SWIDTH 666 0
DWIDTH 12 0
BBX 11 11 0 0
BITMAP
FEC0
FEC0
06E0
36E0
30C0
FFC0
00C0
0E00
1F00
7BC0
71C0
ENDCHAR
STARTCHAR U+AD10
ENCODING 44304
SWIDTH 666 0
DWIDTH 12 0
BBX 11 11 0 0
BITMAP
FEC0
FEC0
06E0
36E0
30C0
FFC0
0000
1100
3B80
7FC0
6EC0
ENDCHAR
STARTCHAR U+AD11
ENCODING 44305
SWIDTH 666 0
DWIDTH 12 0
BBX 11 11 0 0
BITMAP
FEC0
FEC0
06E0
36E0
30C0
FFC0
0000
3F80
60C0
7FC0
3F80
ENDCHAR
STARTCHAR U+AD12
ENCODING 44306
SWIDTH 666 0
DWIDTH 12 0
BBX 11 11 0 0
BITMAP
FEC0
FEC0
06E0
36E0
30C0
FFC0
0000
7FC0
1F00
7BC0
71C0
ENDCHAR
STARTCHAR U+AD18
ENCODING 44312
SWIDTH 666 0
DWIDTH 12 0
BBX 10 11 0 0
BITMAP
FAC0
FAC0
0AC0
0AC0
6BC0
6BC0
62C0
62C0
FEC0
FEC0
02C0
ENDCHAR
STARTCHAR U+AD1C
ENCODING 44316
SWIDTH 666 0
DWIDTH 12 0
BBX 10 11 0 0
BITMAP
FAC0
FAC0
0BC0
6BC0
6AC0
FEC0
02C0
6000
6000
7FC0
7FC0
ENDCHAR
STARTCHAR U+AD20
ENCODING 44320
SWIDTH 666 0
DWIDTH 12 0
BBX 10 11 0 0
BITMAP
FAC0
FAC0
0BC0
6BC0
FEC0
0000
7FC0
07C0
7800
7FC0
7FC0
ENDCHAR
STARTCHAR U+AD22
ENCODING 44322
SWIDTH 666 0
DWIDTH 12 0
BBX 10 11 0 0
BITMAP
FAC0
FAC0
0BC0
6BC0
FEC0
0000
7BC0
1AC0
62C0
7BC0
7BC0
ENDCHAR
STARTCHAR U+AD29
ENCODING 44329
SWIDTH 666 0
DWIDTH 12 0
BBX 10 11 0 0
BITMAP
FAC0
FAC0
0BC0
6BC0
FEC0
02C0
60C0
7FC0
60C0
7FC0
7FC0
ENDCHAR
STARTCHAR U+AD2C
ENCODING 44332
SWIDTH 666 0
DWIDTH 12 0
BBX 10 11 0 0
BITMAP
FAC0
FAC0
0BC0
6BC0
62C0
FEC0
0000
1100
3B80
7FC0
6EC0
ENDCHAR
STARTCHAR U+AD2D
ENCODING 44333
SWIDTH 666 0
DWIDTH 12 0
BBX 10 11 0 0
BITMAP
FAC0
FAC0
0BC0
6BC0
62C0
FEC0
0000
3F80
60C0
7FC0
3F80
ENDCHAR
STARTCHAR U+AD34
ENCODING 44340
SWIDTH 666 0
DWIDTH 12 0
BBX 10 11 0 0
BITMAP
FEC0
FEC0
06C0
06C0
36C0
36C0
36C0
30C0
FFC0
FFC0
00C0
ENDCHAR
STARTCHAR U+AD35
ENCODING 44341
SWIDTH 666 0
DWIDTH 12 0
BBX 10 11 0 0
BITMAP
7EC0
7EC0
06C0
36C0
30C0
FFC0
0000
7FC0
7FC0
00C0
00C0
ENDCHAR
STARTCHAR U+AD38
ENCODING 44344
SWIDTH 666 0
DWIDTH 12 0
BBX 10 11 0 0
BITMAP
7EC0
7EC0
06C0
36C0
30C0
FFC0
00C0
6000
6000
7FC0
7FC0
ENDCHAR
STARTCHAR U+AD3C
ENCODING 44348
SWIDTH 666 0
DWIDTH 12 0
BBX 10 11 0 0
BITMAP
7EC0
7EC0
06C0
36C0
FFC0
0000
7FC0
07C0
7800
7FC0
7FC0
ENDCHAR
STARTCHAR U+AD44
ENCODING 44356
SWIDTH 666 0
DWIDTH 12 0
BBX 10 11 0 0
BITMAP
7EC0
7EC0
06C0
36C0
30C0
FFC0
0000
7FC0
60C0
7FC0
7FC0
ENDCHAR
STARTCHAR U+AD45
ENCODING 44357
SWIDTH 666 0
DWIDTH 12 0
BBX 10 11 0 0
BITMAP
7EC0
7EC0
06C0
36C0
30C0
FFC0
60C0
7FC0
60C0
7FC0
7FC0
ENDCHAR
STARTCHAR U+AD47
ENCODING 44359
SWIDTH 666 0
DWIDTH 12 0
BBX 10 11 0 0
BITMAP
7EC0
7EC0
06C0
36C0
30C0
FFC0
00C0
0400
1F00
7BC0
60C0
ENDCHAR
STARTCHAR U+AD49
ENCODING 44361
SWIDTH 666 0
DWIDTH 12 0
BBX 10 11 0 0
BITMAP
7EC0
7EC0
06C0
36C0
30C0
FFC0
0000
3F80
60C0
7FC0
3F80
ENDCHAR
STARTCHAR U+AD50
ENCODING 44368
SWIDTH 666 0
DWIDTH 12 0
BBX 11 10 0 1
BITMAP
7FC0
7FC0
00C0
00C0
36C0
36C0
36C0
3600
FFE0
FFE0
ENDCHAR
STARTCHAR U+AD54
ENCODING 44372
SWIDTH 666 0
DWIDTH 12 0
BBX 11 11 0 0
BITMAP
7FC0
7FC0
00C0
36C0
36C0
FFE0
FFE0
0000
6000
7FC0
7FC0
ENDCHAR
STARTCHAR U+AD58
ENCODING 44376
SWIDTH 666 0
DWIDTH 12 0
BBX 11 11 0 0
BITMAP
7FC0
7FC0
00C0
36C0
FFE0
0000
7FC0
07C0
7800
7FC0
7FC0
ENDCHAR
STARTCHAR U+AD60
ENCODING 44384
SWIDTH 666 0
DWIDTH 12 0
BBX 11 11 0 0
BITMAP
7FC0
7FC0
00C0
36C0
36C0
FFE0
0000
7FC0
60C0
7FC0
7FC0
ENDCHAR
STARTCHAR U+AD61
ENCODING 44385
SWIDTH 666 0
DWIDTH 12 0
BBX 11 11 0 0
BITMAP
7FC0
7FC0
00C0
36C0
36C0
FFE0
60C0
7FC0
60C0
7FC0
7FC0
ENDCHAR
STARTCHAR U+AD63
ENCODING 44387
SWIDTH 666 0
DWIDTH 12 0
BBX 11 11 0 0
BITMAP
7FC0
7FC0
00C0
36C0
36C0
FFE0
0000
0E00
1F00
7BC0
71C0
ENDCHAR
STARTCHAR U+AD65
ENCODING 44389
SWIDTH 666 0
DWIDTH 12 0
BBX 11 11 0 0
BITMAP
7FC0
7FC0
00C0
36C0
36C0
FFE0
0000
3F80
60C0
7FC0
3F80
ENDCHAR
STARTCHAR U+AD6C
ENCODING 44396
SWIDTH 666 0
DWIDTH 12 0
BBX 11 11 0 0
BITMAP
7FC0
7FC0
00C0
00C0
00C0
FFE0
FFE0
0600
0600
0600
0600
ENDCHAR
STARTCHAR U+AD6D
ENCODING 44397
SWIDTH 666 0
DWIDTH 12 0
BBX 11 11 0 0
BITMAP
7FC0
7FC0
00C0
00C0
FFE0
FFE0
0600
7FC0
7FC0
00C0
00C0
ENDCHAR
STARTCHAR U+AD70
ENCODING 44400
SWIDTH 666 0
DWIDTH 12 0
BBX 11 11 0 0
BITMAP
7FC0
7FC0
00C0
00C0
FFE0
FFE0
0600
6600
6000
7FC0
7FC0
ENDCHAR
STARTCHAR U+AD73
ENCODING 44403
SWIDTH 666 0
DWIDTH 12 0
BBX 11 11 0 0
BITMAP
7FC0
7FC0
00C0
00C0
FFE0
FFE0
0600
7FC0
6000
7FC0
7FC0
ENDCHAR
STARTCHAR U+AD74
ENCODING 44404
SWIDTH 666 0
DWIDTH 12 0
BBX 11 11 0 0
BITMAP
7FC0
7FC0
00C0
FFE0
FFE0
0600
7FC0
07C0
7800
7FC0
7FC0
ENDCHAR
STARTCHAR U+AD75
ENCODING 44405
SWIDTH 666 0
DWIDTH 12 0
BBX 11 11 0 0
BITMAP
7FC0
7FC0
00C0
FFE0
FFE0
0600
7BC0
1BC0
60C0
78C0
78C0
ENDCHAR
STARTCHAR U+AD76
ENCODING 44406
SWIDTH 666 0
DWIDTH 12 0
BBX 11 11 0 0
BITMAP
7FC0
7FC0
00C0
FFE0
FFE0
0600
7BC0
1AC0
62C0
7BC0
7BC0
ENDCHAR
STARTCHAR U+AD7B
ENCODING 44411
SWIDTH 666 0
DWIDTH 12 0
BBX 11 11 0 0
BITMAP
7FC0
7FC0
00C0
FFE0
FFE0
0D00
7FC0
1B80
6440
7FC0
7B80
ENDCHAR
STARTCHAR U+AD7C
ENCODING 44412
SWIDTH 666 0
DWIDTH 12 0
BBX 11 11 0 0
BITMAP
7FC0
7FC0
00C0
00C0
FFE0
FFE0
0600
7FC0
60C0
7FC0
7FC0
ENDCHAR
STARTCHAR U+AD7D
ENCODING 44413
SWIDTH 666 0
DWIDTH 12 0
BBX 11 11 0 0
BITMAP
7FC0
7FC0
00C0
FFE0
FFE0
0600
60C0
7FC0
60C0
7FC0
7FC0
ENDCHAR
STARTCHAR U+AD7F
ENCODING 44415
SWIDTH 666 0
DWIDTH 12 0
BBX 11 11 0 0
BITMAP
7FC0
7FC0
00C0
00C0
FFE0
FFE0
0600
0E00
1F00
7BC0
71C0
ENDCHAR
STARTCHAR U+AD81
ENCODING 44417
SWIDTH 666 0
DWIDTH 12 0
BBX 11 11 0 0
BITMAP
7FC0
7FC0
00C0
00C0
FFE0
FFE0
0600
3F80
60C0
7FC0
3F80
ENDCHAR
STARTCHAR U+AD82
ENCODING 44418
SWIDTH 666 0
DWIDTH 12 0
BBX 11 11 0 0
BITMAP
7FC0
7FC0
00C0
00C0
FFE0
FFE0
0600
7FC0
1F00
7BC0
71C0
ENDCHAR
STARTCHAR U+AD83
ENCODING 44419
SWIDTH 666 0
DWIDTH 12 0
BBX 11 11 0 0
BITMAP
7FC0
7FC0
00C0
00C0
FFE0
FFE0
0600
7FC0
1F00
7BC0
71C0
ENDCHAR
STARTCHAR U+AD88
ENCODING 44424
SWIDTH 666 0
DWIDTH 12 0
BBX 10 11 0 0
BITMAP
FCC0
FCC0
0CC0
0CC0
0CC0
FEC0
FEC0
33C0
33C0
30C0
30C0
ENDCHAR
STARTCHAR U+AD89
ENCODING 44425
SWIDTH 666 0
DWIDTH 12 0
BBX 10 11 0 0
BITMAP
7EC0
7EC0
06C0
FEC0
FEC0
1BC0
18C0
7FC0
7FC0
00C0
00C0
ENDCHAR
STARTCHAR U+AD8C
ENCODING 44428
SWIDTH 666 0
DWIDTH 12 0
BBX 10 11 0 0
BITMAP
7EC0
7EC0
06C0
FEC0
FEC0
1BC0
18C0
6000
6000
7FC0
7FC0
ENDCHAR
STARTCHAR U+AD90
ENCODING 44432
SWIDTH 666 0
DWIDTH 12 0
BBX 10 11 0 0
BITMAP
7EC0
7EC0
06C0
FEC0
1BC0
18C0
7FC0
07C0
7800
7FC0
7FC0
ENDCHAR
STARTCHAR U+AD9C
ENCODING 44444
SWIDTH 666 0
DWIDTH 12 0
BBX 10 11 0 0
BITMAP
7EC0
7EC0
06C0
FEC0
FEC0
33C0
30C0
0100
3B80
7FC0
6EC0
ENDCHAR
STARTCHAR U+AD9D
ENCODING 44445
SWIDTH 666 0
DWIDTH 12 0
BBX 10 11 0 0
BITMAP
7EC0
7EC0
06C0
FEC0
FEC0
1BC0
18C0
3F80
60C0
7FC0
3F80
ENDCHAR
STARTCHAR U+ADA4
ENCODING 44452
SWIDTH 666 0
DWIDTH 12 0
BBX 10 11 0 0
BITMAP
FAC0
FAC0
1AC0
1AC0
02C0
FAC0
FAC0
6EC0
6EC0
62C0
62C0
ENDCHAR
STARTCHAR U+ADB7
ENCODING 44471
SWIDTH 666 0
DWIDTH 12 0
BBX 10 11 0 0
BITMAP
FAC0
FAC0
1AC0
FAC0
FAC0
6EC0
62C0
0E00
1F00
7BC0
71C0
ENDCHAR
STARTCHAR U+ADB8
ENCODING 44472
SWIDTH 666 0
DWIDTH 12 0
BBX 10 11 0 0
BITMAP
FAC0
FAC0
1AC0
FAC0
FAC0
6EC0
62C0
1100
3B80
7FC0
6EC0
ENDCHAR
STARTCHAR U+ADC0
ENCODING 44480
SWIDTH 666 0
DWIDTH 12 0
BBX 10 11 0 0
BITMAP
FEC0
FEC0
06C0
06C0
06C0
00C0
FFC0
FFC0
18C0
18C0
18C0
ENDCHAR
STARTCHAR U+ADC1
ENCODING 44481
SWIDTH 666 0
DWIDTH 12 0
BBX 10 11 0 0
BITMAP
7EC0
7EC0
06C0
FFC0
FFC0
18C0
1800
7FC0
7FC0
00C0
00C0
ENDCHAR
STARTCHAR U+ADC4
ENCODING 44484
SWIDTH 666 0
DWIDTH 12 0
BBX 10 11 0 0
BITMAP
7EC0
7EC0
06C0
FFC0
FFC0
18C0
18C0
6000
6000
7FC0
7FC0
ENDCHAR
STARTCHAR U+ADC8
ENCODING 44488
SWIDTH 666 0
DWIDTH 12 0
BBX 10 11 0 0
BITMAP
7EC0
7EC0
06C0
FFC0
FFC0
18C0
7FC0
07C0
7800
7FC0
7FC0
ENDCHAR
STARTCHAR U+ADD0
ENCODING 44496
SWIDTH 666 0
DWIDTH 12 0
BBX 10 11 0 0
BITMAP
7EC0
7EC0
06C0
FFC0
FFC0
18C0
1800
7FC0
60C0
7FC0
7FC0
ENDCHAR
STARTCHAR U+ADD1
ENCODING 44497
SWIDTH 666 0
DWIDTH 12 0
BBX 10 11 0 0
BITMAP
7EC0
7EC0
06C0
FFC0
FFC0
0CC0
6CC0
7FC0
60C0
7FC0
7FC0
ENDCHAR
STARTCHAR U+ADD3
ENCODING 44499
SWIDTH 666 0
DWIDTH 12 0
BBX 10 11 0 0
BITMAP
7EC0
7EC0
06C0
FFC0
FFC0
30C0
34C0
0E00
1F00
7BC0
71C0
ENDCHAR
STARTCHAR U+ADD5
ENCODING 44501
SWIDTH 666 0
DWIDTH 12 0
BBX 10 11 0 0
BITMAP
7EC0
7EC0
06C0
FFC0
FFC0
18C0
1800
3F80
60C0
7FC0
3F80
ENDCHAR
STARTCHAR U+ADDC
ENCODING 44508
SWIDTH 666 0
DWIDTH 12 0
BBX 11 11 0 0
BITMAP
7FC0
7FC0
00C0
00C0
00C0
FFE0
FFE0
3180
3180
3180
3180
ENDCHAR
STARTCHAR U+ADE0
ENCODING 44512
SWIDTH 666 0
DWIDTH 12 0
BBX 11 11 0 0
BITMAP
7FC0
7FC0
00C0
00C0
FFE0
FFE0
0D80
6D80
6000
7FC0
7FC0
ENDCHAR
STARTCHAR U+ADE4
ENCODING 44516
SWIDTH 666 0
DWIDTH 12 0
BBX 11 11 0 0
BITMAP
7FC0
7FC0
00C0
FFE0
FFE0
3180
7FC0
07C0
7800
7FC0
7FC0
ENDCHAR
STARTCHAR U+ADEC
ENCODING 44524
SWIDTH 666 0
DWIDTH 12 0
BBX 11 11 0 0
BITMAP
7FC0
7FC0
00C0
00C0
FFE0
FFE0
3180
7FC0
60C0
7FC0
7FC0
ENDCHAR
STARTCHAR U+ADED
ENCODING 44525
SWIDTH 666 0
DWIDTH 12 0
BBX 11 11 0 0
BITMAP
7FC0
7FC0
00C0
FFE0
FFE0
1B00
60C0
7FC0
60C0
7FC0
7FC0
ENDCHAR
STARTCHAR U+ADF8
ENCODING 44536
SWIDTH 666 0
DWIDTH 12 0
BBX 11 10 0 1
BITMAP
7FC0
7FC0
00C0
00C0
00C0
00C0
00C0
0000
FFE0
FFE0
ENDCHAR
STARTCHAR U+ADF9
ENCODING 44537
SWIDTH 666 0
DWIDTH 12 0
BBX 11 11 0 0
BITMAP
7FC0
7FC0
00C0
00C0
FFE0
FFE0
0000
7FC0
7FC0
00C0
00C0
ENDCHAR
STARTCHAR U+ADFC
ENCODING 44540
SWIDTH 666 0
DWIDTH 12 0
BBX 11 11 0 0
BITMAP
7FC0
7FC0
00C0
00C0
FFE0
FFE0
0000
6000
6000
7FC0
7FC0
ENDCHAR
STARTCHAR U+ADFF
ENCODING 44543
SWIDTH 666 0
DWIDTH 12 0
BBX 11 11 0 0
BITMAP
7FC0
7FC0
00C0
00C0
FFE0
FFE0
0000
7FC0
6000
7FC0
7FC0
ENDCHAR
STARTCHAR U+AE00
ENCODING 44544
SWIDTH 666 0
DWIDTH 12 0
BBX 11 11 0 0
BITMAP
7FC0
7FC0
00C0
FFE0
FFE0
0000
7FC0
07C0
7800
7FC0
7FC0
ENDCHAR
STARTCHAR U+AE01
ENCODING 44545
SWIDTH 666 0
DWIDTH 12 0
BBX 11 11 0 0
BITMAP
7FC0
7FC0
00C0
FFE0
FFE0
0000
7BC0
1BC0
60C0
78C0
78C0
ENDCHAR
STARTCHAR U+AE02
ENCODING 44546
SWIDTH 666 0
DWIDTH 12 0
BBX 11 11 0 0
BITMAP
7FC0
7FC0
00C0
FFE0
FFE0
0000
7BC0
1AC0
62C0
7BC0
7BC0
ENDCHAR
STARTCHAR U+AE07
ENCODING 44551
SWIDTH 666 0
DWIDTH 12 0
BBX 11 11 0 0
BITMAP
7FC0
7FC0
00C0
FFE0
FFE0
0300
7FC0
1B80
66C0
7FC0
7B80
ENDCHAR
STARTCHAR U+AE08
ENCODING 44552
SWIDTH 666 0
DWIDTH 12 0
BBX 11 11 0 0
BITMAP
7FC0
7FC0
00C0
00C0
FFE0
FFE0
0000
7FC0
60C0
7FC0
7FC0
ENDCHAR
STARTCHAR U+AE09
ENCODING 44553
SWIDTH 666 0
DWIDTH 12 0
BBX 11 11 0 0
BITMAP
7FC0
7FC0
00C0
00C0
FFE0
FFE0
60C0
7FC0
60C0
7FC0
7FC0
ENDCHAR
STARTCHAR U+AE0B
ENCODING 44555
SWIDTH 666 0
DWIDTH 12 0
BBX 11 11 0 0
BITMAP
7FC0
7FC0
00C0
00C0
FFE0
FFE0
0000
0E00
1F00
7BC0
71C0
ENDCHAR
STARTCHAR U+AE0D
ENCODING 44557
SWIDTH 666 0
DWIDTH 12 0
BBX 11 11 0 0
BITMAP
7FC0
7FC0
00C0
00C0
FFE0
FFE0
0000
3F80
60C0
7FC0
3F80
ENDCHAR
STARTCHAR U+AE0F
ENCODING 44559
SWIDTH 666 0
DWIDTH 12 0
BBX 11 11 0 0
BITMAP
7FC0
7FC0
00C0
00C0
FFE0
FFE0
0600
7FC0
1F00
7BC0
71C0
ENDCHAR
STARTCHAR U+AE11
ENCODING 44561
SWIDTH 666 0
DWIDTH 12 0
BBX 11 11 0 0
BITMAP
7FC0
7FC0
00C0
FFE0
0000
7FC0
6000
7FC0
6000
7FC0
7FC0
ENDCHAR
STARTCHAR U+AE13
ENCODING 44563
SWIDTH 666 0
DWIDTH 12 0
BBX 11 11 0 0
BITMAP
7FC0
7FC0
00C0
00C0
FFE0
FFE0
0600
7FC0
3180
3F80
1F00
ENDCHAR
STARTCHAR U+AE14
ENCODING 44564
SWIDTH 666 0
DWIDTH 12 0
BBX 10 11 0 0
BITMAP
FEC0
FEC0
06C0
06C0
06C0
06C0
06C0
00C0
FFC0
FFC0
00C0
ENDCHAR
STARTCHAR U+AE18
ENCODING 44568
SWIDTH 666 0
DWIDTH 12 0
BBX 10 11 0 0
BITMAP
7EC0
7EC0
06C0
06C0
FFC0
FFC0
00C0
6000
6000
7FC0
7FC0
ENDCHAR
STARTCHAR U+AE29
ENCODING 44585
SWIDTH 666 0
DWIDTH 12 0
BBX 10 11 0 0
BITMAP
7EC0
7EC0
06C0
06C0
FFC0
FFC0
0000
3F80
60C0
7FC0
3F80
ENDCHAR
STARTCHAR U+AE30
ENCODING 44592
SWIDTH 666 0
DWIDTH 12 0
BBX 10 11 0 0
BITMAP
FCC0
FCC0
0CC0
0CC0
0CC0
1CC0
18C0
38C0
F0C0
E0C0
00C0
ENDCHAR
STARTCHAR U+AE31
ENCODING 44593
SWIDTH 666 0
DWIDTH 12 0
BBX 10 11 0 0
BITMAP
FCC0
FCC0
0CC0
1CC0
F8C0
F0C0
0000
7FC0
7FC0
00C0
00C0
ENDCHAR
STARTCHAR U+AE34
ENCODING 44596
SWIDTH 666 0
DWIDTH 12 0
BBX 10 11 0 0
BITMAP
FCC0
FCC0
0CC0
1CC0
F8C0
F0C0
00C0
6000
6000
7FC0
7FC0
ENDCHAR
STARTCHAR U+AE37
ENCODING 44599
SWIDTH 666 0
DWIDTH 12 0
BBX 10 11 0 0
BITMAP
FCC0
FCC0
0CC0
1CC0
F8C0
F0C0
0000
7FC0
6000
7FC0
7FC0
ENDCHAR
STARTCHAR U+AE38
ENCODING 44600
SWIDTH 666 0
DWIDTH 12 0
BBX 10 11 0 0
BITMAP
FCC0
FCC0
0CC0
1CC0
F8C0
F0C0
7FC0
07C0
7800
7FC0
7FC0
ENDCHAR
STARTCHAR U+AE3A
ENCODING 44602
SWIDTH 666 0
DWIDTH 12 0
BBX 10 11 0 0
BITMAP
FCC0
FCC0
0CC0
1CC0
F8C0
F0C0
7BC0
1AC0
62C0
7BC0
7BC0
ENDCHAR
STARTCHAR U+AE40
ENCODING 44608
SWIDTH 666 0
DWIDTH 12 0
BBX 10 11 0 0
BITMAP
FCC0
FCC0
0CC0
1CC0
F8C0
F0C0
0000
7FC0
60C0
7FC0
7FC0
ENDCHAR
STARTCHAR U+AE41
ENCODING 44609
SWIDTH 666 0
DWIDTH 12 0
BBX 10 11 0 0
BITMAP
FCC0
FCC0
0CC0
1CC0
F8C0
F0C0
60C0
7FC0
60C0
7FC0
7FC0
ENDCHAR
STARTCHAR U+AE43
ENCODING 44611
SWIDTH 666 0
DWIDTH 12 0
BBX 10 11 0 0
BITMAP
FCC0
FCC0
0CC0
1CC0
F8C0
F0C0
04C0
0E00
1F00
7BC0
71C0
ENDCHAR
STARTCHAR U+AE44
ENCODING 44612
SWIDTH 666 0
DWIDTH 12 0
BBX 10 11 0 0
BITMAP
FCC0
FCC0
0CC0
1CC0
F8C0
F0C0
0000
1100
3B80
7FC0
6EC0
ENDCHAR
STARTCHAR U+AE45
ENCODING 44613
SWIDTH 666 0
DWIDTH 12 0
BBX 10 11 0 0
BITMAP
FCC0
FCC0
0CC0
1CC0
F8C0
F0C0
0000
3F80
60C0
7FC0
3F80
ENDCHAR
STARTCHAR U+AE46
ENCODING 44614
SWIDTH 666 0
DWIDTH 12 0
BBX 10 11 0 0
BITMAP
FCC0
FCC0
0CC0
1CC0
F8C0
F0C0
0000
7FC0
1F00
7BC0
71C0
ENDCHAR
STARTCHAR U+AE4A
ENCODING 44618
SWIDTH 666 0
DWIDTH 12 0
BBX 10 11 0 0
BITMAP
FCC0
FCC0
0CC0
1CC0
F8C0
F0C0
0000
7FC0
1B00
7FC0
7FC0
ENDCHAR
STARTCHAR U+AE4C
ENCODING 44620
SWIDTH 666 0
DWIDTH 12 0
BBX 11 11 0 0
BITMAP
FEC0
FEC0
36C0
36C0
36E0
6EE0
6CC0
6CC0
DCC0
D8C0
00C0
ENDCHAR
STARTCHAR U+AE4D
ENCODING 44621
SWIDTH 666 0
DWIDTH 12 0
BBX 11 11 0 0
BITMAP
FEC0
FEC0
36E0
6EE0
DCC0
D8C0
0000
7FC0
7FC0
00C0
00C0
ENDCHAR
STARTCHAR U+AE4E
ENCODING 44622
SWIDTH 666 0
DWIDTH 12 0
BBX 11 11 0 0
BITMAP
FEC0
FEC0
36E0
6EE0
DCC0
D8C0
0000
7FC0
7FC0
0CC0
0CC0
ENDCHAR
STARTCHAR U+AE50
ENCODING 44624
SWIDTH 666 0
DWIDTH 12 0
BBX 11 11 0 0
BITMAP
FEC0
FEC0
36E0
6EE0
DCC0
D8C0
00C0
6000
6000
7FC0
7FC0
ENDCHAR
STARTCHAR U+AE54
ENCODING 44628
SWIDTH 666 0
DWIDTH 12 0
BBX 11 11 0 0
BITMAP
FEC0
FEC0
36E0
6EE0
DCC0
D8C0
7FC0
07C0
7800
7FC0
7FC0
ENDCHAR
STARTCHAR U+AE56
ENCODING 44630
SWIDTH 666 0
DWIDTH 12 0
BBX 11 11 0 0
BITMAP
FEC0
FEC0
36E0
6EE0
DCC0
D8C0
7BC0
1AC0
62C0
7BC0
7BC0
ENDCHAR
STARTCHAR U+AE5C
ENCODING 44636
SWIDTH 666 0
DWIDTH 12 0
BBX 11 11 0 0
BITMAP
FEC0
FEC0
36E0
6EE0
DCC0
D8C0
0000
7FC0
60C0
7FC0
7FC0
ENDCHAR
STARTCHAR U+AE5D
ENCODING 44637
SWIDTH 666 0
DWIDTH 12 0
BBX 11 11 0 0
BITMAP
FEC0
FEC0
36E0
6EE0
DCC0
D8C0
60C0
7FC0
60C0
7FC0
7FC0
ENDCHAR
STARTCHAR U+AE5F
ENCODING 44639
SWIDTH 666 0
DWIDTH 12 0
BBX 11 11 0 0
BITMAP
FEC0
FEC0
36E0
6EE0
DCC0
D8C0
04C0
0E00
1F00
7BC0
71C0
ENDCHAR
STARTCHAR U+AE60
ENCODING 44640
SWIDTH 666 0
DWIDTH 12 0
BBX 11 11 0 0
BITMAP
FEC0
FEC0
36E0
6EE0
DCC0
D8C0
0000
1100
3B80
7FC0
6EC0
ENDCHAR
STARTCHAR U+AE61
ENCODING 44641
SWIDTH 666 0
DWIDTH 12 0
BBX 11 11 0 0
BITMAP
FEC0
FEC0
36E0
6EE0
DCC0
D8C0
0000
3F80
60C0
7FC0
3F80
ENDCHAR
STARTCHAR U+AE65
ENCODING 44645
SWIDTH 666 0
DWIDTH 12 0
BBX 11 11 0 0
BITMAP
FEC0
FEC0
36E0
6EE0
DCC0
FFC0
6000
7FC0
6000
7FC0
7FC0
ENDCHAR
STARTCHAR U+AE68
ENCODING 44648
SWIDTH 666 0
DWIDTH 12 0
BBX 10 11 0 0
BITMAP
FAC0
FAC0
5AC0
5AC0
5BC0
5BC0
5AC0
BAC0
B2C0
B2C0
02C0
ENDCHAR
STARTCHAR U+AE69
ENCODING 44649
SWIDTH 666 0
DWIDTH 12 0
BBX 10 11 0 0
BITMAP
FAC0
FAC0
5BC0
5BC0
BAC0
B2C0
0000
7FC0
7FC0
00C0
00C0
ENDCHAR
STARTCHAR U+AE6C
ENCODING 44652
SWIDTH 666 0
DWIDTH 12 0
BBX 10 11 0 0
BITMAP
FAC0
FAC0
5BC0
5BC0
BAC0
B2C0
02C0
6000
6000
7FC0
7FC0
ENDCHAR
STARTCHAR U+AE6F
ENCODING 44655
SWIDTH 666 0
DWIDTH 12 0
BBX 10 11 0 0
BITMAP
FAC0
FAC0
5BC0
5BC0
B2C0
B2C0
0000
7FC0
6000
7FC0
7FC0
ENDCHAR
STARTCHAR U+AE70
ENCODING 44656
SWIDTH 666 0
DWIDTH 12 0
BBX 10 11 0 0
BITMAP
FAC0
FAC0
5BC0
5BC0
BAC0
B2C0
7FC0
07C0
7800
7FC0
7FC0
ENDCHAR
STARTCHAR U+AE78
ENCODING 44664
SWIDTH 666 0
DWIDTH 12 0
BBX 10 11 0 0
BITMAP
FAC0
FAC0
5BC0
5BC0
BAC0
B2C0
0000
7FC0
60C0
7FC0
7FC0
ENDCHAR
STARTCHAR U+AE79
ENCODING 44665
SWIDTH 666 0
DWIDTH 12 0
BBX 10 11 0 0
BITMAP
FAC0
FAC0
5BC0
5BC0
BAC0
B2C0
60C0
7FC0
60C0
7FC0
7FC0
ENDCHAR
STARTCHAR U+AE7B
ENCODING 44667
SWIDTH 666 0
DWIDTH 12 0
BBX 10 11 0 0
BITMAP
FAC0
FAC0
5BC0
5BC0
BAC0
B2C0
0400
0E00
1F00
7BC0
71C0
ENDCHAR
STARTCHAR U+AE7C
ENCODING 44668
SWIDTH 666 0
DWIDTH 12 0
BBX 10 11 0 0
BITMAP
FAC0
FAC0
5BC0
5BC0
BAC0
B2C0
0000
1100
3B80
7FC0
6EC0
ENDCHAR
STARTCHAR U+AE7D
ENCODING 44669
SWIDTH 666 0
DWIDTH 12 0
BBX 10 11 0 0
BITMAP
FAC0
FAC0
5BC0
5BC0
BAC0
B2C0
0000
3F80
60C0
7FC0
3F80
ENDCHAR
STARTCHAR U+AE84
ENCODING 44676
SWIDTH 666 0
DWIDTH 12 0
BBX 11 11 0 0
BITMAP
FEC0
FEC0
36E0
36E0
36C0
6EC0
6CE0
6CE0
DCC0
D8C0
00C0
ENDCHAR
STARTCHAR U+AE85
ENCODING 44677
SWIDTH 666 0
DWIDTH 12 0
BBX 11 11 0 0
BITMAP
FEC0
FEE0
36C0
6EE0
DCE0
D8C0
0000
7FC0
7FC0
00C0
00C0
ENDCHAR
STARTCHAR U+AE86
ENCODING 44678
SWIDTH 666 0
DWIDTH 12 0
BBX 11 11 0 0
BITMAP
FEC0
FEE0
36C0
6EE0
DCE0
D8C0
0000
7FC0
7FC0
0CC0
0CC0
ENDCHAR
STARTCHAR U+AE8C
ENCODING 44684
SWIDTH 666 0
DWIDTH 12 0
BBX 11 11 0 0
BITMAP
FEC0
FEE0
36C0
6EE0
DCE0
D8C0
7FC0
07C0
7800
7FC0
7FC0
ENDCHAR
STARTCHAR U+AE8D
ENCODING 44685
SWIDTH 666 0
DWIDTH 12 0
BBX 11 11 0 0
BITMAP
FEC0
FEE0
36C0
6EE0
DCE0
D8C0
7BC0
1BC0
60C0
78C0
78C0
ENDCHAR
STARTCHAR U+AEA0
ENCODING 44704
SWIDTH 666 0
DWIDTH 12 0
BBX 10 11 0 0
BITMAP
FAC0
FAC0
5BC0
5BC0
5AC0
5AC0
5BC0
BBC0
B2C0
B2C0
02C0
ENDCHAR
STARTCHAR U+AEA4
ENCODING 44708
SWIDTH 666 0
DWIDTH 12 0
BBX 10 11 0 0
BITMAP
FAC0
FBC0
5BC0
5AC0
BBC0
B3C0
02C0
6000
6000
7FC0
7FC0
ENDCHAR
STARTCHAR U+AEBC
ENCODING 44732
SWIDTH 666 0
DWIDTH 12 0
BBX 10 11 0 0
BITMAP
FEC0
FEC0
36C0
36C0
37C0
6FC0
6CC0
6CC0
DCC0
D8C0
00C0
ENDCHAR
STARTCHAR U+AEBD
ENCODING 44733
SWIDTH 666 0
DWIDTH 12 0
BBX 10 11 0 0
BITMAP
FEC0
FEC0
37C0
6FC0
DCC0
D8C0
0000
7FC0
7FC0
00C0
00C0
ENDCHAR
STARTCHAR U+AEBE
ENCODING 44734
SWIDTH 666 0
DWIDTH 12 0
BBX 10 11 0 0
BITMAP
FEC0
FEC0
37C0
6FC0
DCC0
D8C0
0000
7FC0
7FC0
0CC0
0CC0
ENDCHAR
STARTCHAR U+AEC0
ENCODING 44736
SWIDTH 666 0
DWIDTH 12 0
BBX 10 11 0 0
BITMAP
FEC0
FEC0
37C0
6FC0
DCC0
D8C0
00C0
6000
6000
7FC0
7FC0
ENDCHAR
STARTCHAR U+AEC4
ENCODING 44740
SWIDTH 666 0
DWIDTH 12 0
BBX 10 11 0 0
BITMAP
FEC0
FEC0
37C0
6FC0
DCC0
D8C0
7FC0
07C0
7800
7FC0
7FC0
ENDCHAR
STARTCHAR U+AECC
ENCODING 44748
SWIDTH 666 0
DWIDTH 12 0
BBX 10 11 0 0
BITMAP
FEC0
FEC0
37C0
6FC0
DCC0
D8C0
0000
7FC0
60C0
7FC0
7FC0
ENDCHAR
STARTCHAR U+AECD
ENCODING 44749
SWIDTH 666 0
DWIDTH 12 0
BBX 10 11 0 0
BITMAP
FEC0
FEC0
37C0
6FC0
DCC0
D8C0
60C0
7FC0
60C0
7FC0
7FC0
ENDCHAR
STARTCHAR U+AECF
ENCODING 44751
SWIDTH 666 0
DWIDTH 12 0
BBX 10 11 0 0
BITMAP
FEC0
FEC0
37C0
6FC0
DCC0
D8C0
04C0
0E00
1F00
7BC0
71C0
ENDCHAR
STARTCHAR U+AED0
ENCODING 44752
SWIDTH 666 0
DWIDTH 12 0
BBX 10 11 0 0
BITMAP
FEC0
FEC0
37C0
6FC0
DCC0
D8C0
0000
1100
3B80
7FC0
6EC0
ENDCHAR
STARTCHAR U+AED1
ENCODING 44753
SWIDTH 666 0
DWIDTH 12 0
BBX 10 11 0 0
BITMAP
FEC0
FEC0
37C0
6FC0
DCC0
D8C0
0000
3F80
60C0
7FC0
3F80
ENDCHAR
STARTCHAR U+AED3
ENCODING 44755
SWIDTH 666 0
DWIDTH 12 0
BBX 10 11 0 0
BITMAP
FEC0
FEC0
37C0
6FC0
DCC0
D8C0
0600
7FC0
1F00
7BC0
71C0
ENDCHAR
STARTCHAR U+AED5
ENCODING 44757
SWIDTH 666 0
DWIDTH 12 0
BBX 10 11 0 0
BITMAP
FEC0
FEC0
37C0
6FC0
DCC0
FFC0
6000
7FC0
6000
7FC0
7FC0
ENDCHAR
STARTCHAR U+AED8
ENCODING 44760
SWIDTH 666 0
DWIDTH 12 0
BBX 10 11 0 0
BITMAP
FAC0
FAC0
5AC0
5AC0
5EC0
5EC0
5AC0
BAC0
B2C0
B2C0
02C0
ENDCHAR
STARTCHAR U+AED9
ENCODING 44761
SWIDTH 666 0
DWIDTH 12 0
BBX 10 11 0 0
BITMAP
FAC0
FAC0
5EC0
5EC0
BAC0
B2C0
0000
7FC0
7FC0
00C0
00C0
ENDCHAR
STARTCHAR U+AEDC
ENCODING 44764
SWIDTH 666 0
DWIDTH 12 0
BBX 10 11 0 0
BITMAP
FAC0
FAC0
5EC0
5EC0
BAC0
B2C0
02C0
6000
6000
7FC0
7FC0
ENDCHAR
STARTCHAR U+AEE8
ENCODING 44776
SWIDTH 666 0
DWIDTH 12 0
BBX 10 11 0 0
BITMAP
FAC0
FAC0
5EC0
5EC0
BAC0
B2C0
0000
7FC0
60C0
7FC0
7FC0
ENDCHAR
STARTCHAR U+AEEB
ENCODING 44779
SWIDTH 666 0
DWIDTH 12 0
BBX 10 11 0 0
BITMAP
FAC0
FAC0
5EC0
5EC0
BAC0
B2C0
0400
0E00
1F00
7BC0
71C0
ENDCHAR
STARTCHAR U+AEED
ENCODING 44781
SWIDTH 666 0
DWIDTH 12 0
BBX 10 11 0 0
BITMAP
FAC0
FAC0
5EC0
5EC0
BAC0
B2C0
0000
3F80
60C0
7FC0
3F80
ENDCHAR
STARTCHAR U+AEF4
ENCODING 44788
SWIDTH 666 0
DWIDTH 12 0
BBX 10 11 0 0
BITMAP
FEC0
FEC0
37C0
37C0
36C0
6EC0
6DC0
6DC0
DCC0
D8C0
00C0
ENDCHAR
STARTCHAR U+AEF8
ENCODING 44792
SWIDTH 666 0
DWIDTH 12 0
BBX 10 11 0 0
BITMAP
FEC0
FFC0
37C0
6EC0
DDC0
D9C0
00C0
6000
6000
7FC0
7FC0
ENDCHAR
STARTCHAR U+AEFC
ENCODING 44796
SWIDTH 666 0
DWIDTH 12 0
BBX 10 11 0 0
BITMAP
FEC0
FFC0
36C0
6FC0
DDC0
D8C0
7FC0
07C0
7800
7FC0
7FC0
ENDCHAR
STARTCHAR U+AF07
ENCODING 44807
SWIDTH 666 0
DWIDTH 12 0
BBX 10 11 0 0
BITMAP
FEC0
FFC0
36C0
6FC0
DDC0
D8C0
04C0
0E00
1F00
7BC0
71C0
ENDCHAR
STARTCHAR U+AF08
ENCODING 44808
SWIDTH 666 0
DWIDTH 12 0
BBX 10 11 0 0
BITMAP
FEC0
FFC0
36C0
6FC0
DDC0
D8C0
0000
1100
3B80
7FC0
6EC0
ENDCHAR
STARTCHAR U+AF09
ENCODING 44809
SWIDTH 666 0
DWIDTH 12 0
BBX 10 11 0 0
BITMAP
FEC0
FFC0
36C0
6FC0
DDC0
D8C0
0000
3F80
60C0
7FC0
3F80
ENDCHAR
STARTCHAR U+AF0D
ENCODING 44813
SWIDTH 666 0
DWIDTH 12 0
BBX 10 11 0 0
BITMAP
FEC0
FFC0
36C0
6FC0
DCC0
FFC0
6000
7FC0
6000
7FC0
7FC0
ENDCHAR
STARTCHAR U+AF10
ENCODING 44816
SWIDTH 666 0
DWIDTH 12 0
BBX 10 11 0 0
BITMAP
FAC0
FAC0
5EC0
5EC0
5AC0
5AC0
5EC0
BEC0
B2C0
B2C0
02C0
ENDCHAR
STARTCHAR U+AF2C
ENCODING 44844
SWIDTH 666 0
DWIDTH 12 0
BBX 11 10 0 1
BITMAP
F7C0
F7C0
30C0
30C0
36C0
36C0
36C0
0600
FFE0
FFE0
ENDCHAR
STARTCHAR U+AF2D
ENCODING 44845
SWIDTH 666 0
DWIDTH 12 0
BBX 11 11 0 0
BITMAP
7BC0
7BC0
18C0
1EC0
0600
FFE0
0000
7FC0
7FC0
00C0
00C0
ENDCHAR
STARTCHAR U+AF30
ENCODING 44848
SWIDTH 666 0
DWIDTH 12 0
BBX 11 11 0 0
BITMAP
7BC0
7BC0
18C0
1EC0
0600
FFE0
FFE0
0000
6000
7FC0
7FC0
ENDCHAR
STARTCHAR U+AF32
ENCODING 44850
SWIDTH 666 0
DWIDTH 12 0
BBX 11 11 0 0
BITMAP
7BC0
7BC0
18C0
1EC0
0600
FFE0
0300
6FE0
66C0
7FC0
7B80
ENDCHAR
STARTCHAR U+AF33
ENCODING 44851
SWIDTH 666 0
DWIDTH 12 0
BBX 11 11 0 0
BITMAP
7BC0
7BC0
18C0
1EC0
0600
FFE0
0000
7FC0
6000
7FC0
7FC0
ENDCHAR
STARTCHAR U+AF34
ENCODING 44852
SWIDTH 666 0
DWIDTH 12 0
BBX 11 11 0 0
BITMAP
7BC0
7BC0
18C0
0600
FFE0
0000
7FC0
07C0
7800
7FC0
7FC0
ENDCHAR
STARTCHAR U+AF3C
ENCODING 44860
SWIDTH 666 0
DWIDTH 12 0
BBX 11 11 0 0
BITMAP
7BC0
7BC0
18C0
1EC0
0600
FFE0
0000
7FC0
60C0
7FC0
7FC0
ENDCHAR
STARTCHAR U+AF3D
ENCODING 44861
SWIDTH 666 0
DWIDTH 12 0
BBX 11 11 0 0
BITMAP
7BC0
7BC0
18C0
1EC0
0600
FFE0
60C0
7FC0
60C0
7FC0
7FC0
ENDCHAR
STARTCHAR U+AF3F
ENCODING 44863
SWIDTH 666 0
DWIDTH 12 0
BBX 11 11 0 0
BITMAP
7BC0
7BC0
18C0
1EC0
0600
FFE0
0000
0E00
1F00
7BC0
71C0
ENDCHAR
STARTCHAR U+AF41
ENCODING 44865
SWIDTH 666 0
DWIDTH 12 0
BBX 11 11 0 0
BITMAP
7BC0
7BC0
18C0
1EC0
0600
FFE0
0000
3F80
60C0
7FC0
3F80
ENDCHAR
STARTCHAR U+AF42
ENCODING 44866
SWIDTH 666 0
DWIDTH 12 0
BBX 11 11 0 0
BITMAP
7BC0
7BC0
18C0
1EC0
0600
FFE0
0000
7FC0
1F00
7BC0
71C0
ENDCHAR
STARTCHAR U+AF43
ENCODING 44867
SWIDTH 666 0
DWIDTH 12 0
BBX 11 11 0 0
BITMAP
7BC0
7BC0
18C0
1EC0
0600
FFE0
0600
7FC0
1F00
7BC0
71C0
ENDCHAR
STARTCHAR U+AF45
ENCODING 44869
SWIDTH 666 0
DWIDTH 12 0
BBX 11 11 0 0
BITMAP
7BC0
7BC0
18C0
1EC0
0600
FFE0
6000
7FC0
6000
7FC0
7FC0
ENDCHAR
STARTCHAR U+AF48
ENCODING 44872
SWIDTH 666 0
DWIDTH 12 0
BBX 11 11 0 0
BITMAP
FEC0
FEC0
36C0
36C0
36E0
36E0
18C0
18C0
FFC0
FFC0
00C0
ENDCHAR
STARTCHAR U+AF49
ENCODING 44873
SWIDTH 666 0
DWIDTH 12 0
BBX 11 11 0 0
BITMAP
FEC0
FEC0
66E0
7EE0
18C0
FFC0
0000
7FC0
7FC0
00C0
00C0
ENDCHAR
STARTCHAR U+AF4C
ENCODING 44876
SWIDTH 666 0
DWIDTH 12 0
BBX 11 11 0 0
BITMAP
FEC0
FEC0
66E0
7EE0
18C0
FFC0
00C0
6000
6000
7FC0
7FC0
ENDCHAR
STARTCHAR U+AF50
ENCODING 44880
SWIDTH 666 0
DWIDTH 12 0
BBX 11 11 0 0
BITMAP
FEC0
FEC0
66E0
18E0
FFC0
0000
7FC0
07C0
7800
7FC0
7FC0
ENDCHAR
STARTCHAR U+AF5C
ENCODING 44892
SWIDTH 666 0
DWIDTH 12 0
BBX 11 11 0 0
BITMAP
FEC0
FEC0
66E0
7EE0
18C0
FFC0
0000
1100
3B80
7FC0
6EC0
ENDCHAR
STARTCHAR U+AF5D
ENCODING 44893
SWIDTH 666 0
DWIDTH 12 0
BBX 11 11 0 0
BITMAP
FEC0
FEC0
66E0
7EE0
18C0
FFC0
0000
3F80
60C0
7FC0
3F80
ENDCHAR
STARTCHAR U+AF64
ENCODING 44900
SWIDTH 666 0
DWIDTH 12 0
BBX 10 11 0 0
BITMAP
FAC0
FAC0
5AC0
5AC0
5BC0
5BC0
22C0
22C0
FEC0
FEC0
02C0
ENDCHAR
STARTCHAR U+AF65
ENCODING 44901
SWIDTH 666 0
DWIDTH 12 0
BBX 10 11 0 0
BITMAP
FAC0
FAC0
5BC0
5BC0
22C0
FEC0
0000
7FC0
7FC0
00C0
00C0
ENDCHAR
STARTCHAR U+AF68
ENCODING 44904
SWIDTH 666 0
DWIDTH 12 0
BBX 10 11 0 0
BITMAP
FAC0
FAC0
5BC0
5BC0
22C0
FEC0
02C0
6000
6000
7FC0
7FC0
ENDCHAR
STARTCHAR U+AF78
ENCODING 44920
SWIDTH 666 0
DWIDTH 12 0
BBX 10 11 0 0
BITMAP
FAC0
FAC0
5BC0
5BC0
22C0
FEC0
0000
1100
3B80
7FC0
6EC0
ENDCHAR
STARTCHAR U+AF79
ENCODING 44921
SWIDTH 666 0
DWIDTH 12 0
BBX 10 11 0 0
BITMAP
FAC0
FAC0
5BC0
5BC0
22C0
FEC0
0000
3F80
60C0
7FC0
3F80
ENDCHAR
STARTCHAR U+AF80
ENCODING 44928
SWIDTH 666 0
DWIDTH 12 0
BBX 10 11 0 0
BITMAP
FEC0
FEC0
36C0
36C0
36C0
36C0
18C0
18C0
FFC0
FFC0
00C0
ENDCHAR
STARTCHAR U+AF84
ENCODING 44932
SWIDTH 666 0
DWIDTH 12 0
BBX 10 11 0 0
BITMAP
FEC0
FEC0
66C0
7EC0
18C0
FFC0
00C0
6000
6000
7FC0
7FC0
ENDCHAR
STARTCHAR U+AF88
ENCODING 44936
SWIDTH 666 0
DWIDTH 12 0
BBX 10 11 0 0
BITMAP
FEC0
FEC0
66C0
18C0
FFC0
0000
7FC0
07C0
7800
7FC0
7FC0
ENDCHAR
STARTCHAR U+AF90
ENCODING 44944
SWIDTH 666 0
DWIDTH 12 0
BBX 10 11 0 0
BITMAP
FEC0
FEC0
66C0
7EC0
18C0
FFC0
0000
7FC0
60C0
7FC0
7FC0
ENDCHAR
STARTCHAR U+AF91
ENCODING 44945
SWIDTH 666 0
DWIDTH 12 0
BBX 10 11 0 0
BITMAP
FEC0
FEC0
66C0
7EC0
18C0
FFC0
60C0
7FC0
60C0
7FC0
7FC0
ENDCHAR
STARTCHAR U+AF95
ENCODING 44949
SWIDTH 666 0
DWIDTH 12 0
BBX 10 11 0 0
BITMAP
FEC0
FEC0
66C0
7EC0
18C0
FFC0
0000
3F80
60C0
7FC0
3F80
ENDCHAR
STARTCHAR U+AF9C
ENCODING 44956
SWIDTH 666 0
DWIDTH 12 0
BBX 11 10 0 1
BITMAP
7BC0
7BC0
18C0
18C0
18C0
3300
3300
3300
FFE0
FFE0
ENDCHAR
STARTCHAR U+AFB8
ENCODING 44984
SWIDTH 666 0
DWIDTH 12 0
BBX 11 11 0 0
BITMAP
7BC0
7BC0
18C0
18C0
18C0
FFE0
FFE0
0600
0600
0600
0600
ENDCHAR
STARTCHAR U+AFB9
ENCODING 44985
SWIDTH 666 0
DWIDTH 12 0
BBX 11 11 0 0
BITMAP
7BC0
7BC0
18C0
18C0
FFE0
FFE0
0600
7FC0
7FC0
00C0
00C0
ENDCHAR
STARTCHAR U+AFBC
ENCODING 44988
SWIDTH 666 0
DWIDTH 12 0
BBX 11 11 0 0
BITMAP
7BC0
7BC0
18C0
18C0
FFE0
FFE0
0600
6600
6000
7FC0
7FC0
ENDCHAR
STARTCHAR U+AFC0
ENCODING 44992
SWIDTH 666 0
DWIDTH 12 0
BBX 11 11 0 0
BITMAP
7BC0
7BC0
18C0
FFE0
FFE0
0600
7FC0
07C0
7800
7FC0
7FC0
ENDCHAR
STARTCHAR U+AFC7
ENCODING 44999
SWIDTH 666 0
DWIDTH 12 0
BBX 11 11 0 0
BITMAP
7BC0
7BC0
18C0
FFE0
FFE0
0D80
7FC0
1B80
66C0
7FC0
7B80
ENDCHAR
STARTCHAR U+AFC8
ENCODING 45000
SWIDTH 666 0
DWIDTH 12 0
BBX 11 11 0 0
BITMAP
7BC0
7BC0
18C0
18C0
FFE0
FFE0
0600
7FC0
60C0
7FC0
7FC0
ENDCHAR
STARTCHAR U+AFC9
ENCODING 45001
SWIDTH 666 0
DWIDTH 12 0
BBX 11 11 0 0
BITMAP
7BC0
7BC0
18C0
18C0
FFE0
0600
60C0
7FC0
60C0
7FC0
7FC0
ENDCHAR
STARTCHAR U+AFCB
ENCODING 45003
SWIDTH 666 0
DWIDTH 12 0
BBX 11 11 0 0
BITMAP
7BC0
7BC0
18C0
18C0
FFE0
FFE0
0600
0E00
1F00
7BC0
71C0
ENDCHAR
STARTCHAR U+AFCD
ENCODING 45005
SWIDTH 666 0
DWIDTH 12 0
BBX 11 11 0 0
BITMAP
7BC0
7BC0
18C0
18C0
FFE0
FFE0
0600
3F80
60C0
7FC0
3F80
ENDCHAR
STARTCHAR U+AFCE
ENCODING 45006
SWIDTH 666 0
DWIDTH 12 0
BBX 11 11 0 0
BITMAP
7BC0
7BC0
18C0
18C0
FFE0
FFE0
0600
7FC0
1F00
7BC0
71C0
ENDCHAR
STARTCHAR U+AFCF
ENCODING 45007
SWIDTH 666 0
DWIDTH 12 0
BBX 11 11 0 0
BITMAP
7BC0
7BC0
18C0
18C0
FFE0
FFE0
0600
7FC0
1F00
7BC0
71C0
ENDCHAR
STARTCHAR U+AFD4
ENCODING 45012
SWIDTH 666 0
DWIDTH 12 0
BBX 10 11 0 0
BITMAP
FEC0
FEC0
36C0
36C0
36C0
FEC0
FEC0
33C0
33C0
30C0
30C0
ENDCHAR
STARTCHAR U+AFD8
ENCODING 45016
SWIDTH 666 0
DWIDTH 12 0
BBX 10 11 0 0
BITMAP
FEC0
FEC0
36C0
36C0
FEC0
FEC0
1BC0
78C0
6000
7FC0
7FC0
ENDCHAR
STARTCHAR U+AFDC
ENCODING 45020
SWIDTH 666 0
DWIDTH 12 0
BBX 10 11 0 0
BITMAP
FEC0
FEC0
26C0
FEC0
33C0
30C0
7FC0
07C0
7800
7FC0
7FC0
ENDCHAR
STARTCHAR U+AFE8
ENCODING 45032
SWIDTH 666 0
DWIDTH 12 0
BBX 10 11 0 0
BITMAP
FEC0
FEC0
36C0
36C0
FEC0
33C0
30C0
0100
3B80
7FC0
6EC0
ENDCHAR
STARTCHAR U+AFE9
ENCODING 45033
SWIDTH 666 0
DWIDTH 12 0
BBX 10 11 0 0
BITMAP
FEC0
FEC0
36C0
36C0
FEC0
1BC0
18C0
3F80
60C0
7FC0
3F80
ENDCHAR
STARTCHAR U+AFF0
ENCODING 45040
SWIDTH 666 0
DWIDTH 12 0
BBX 10 11 0 0
BITMAP
FAC0
FAC0
5AC0
5AC0
5AC0
FEC0
FEC0
62C0
6EC0
6EC0
62C0
ENDCHAR
STARTCHAR U+AFF1
ENCODING 45041
SWIDTH 666 0
DWIDTH 12 0
BBX 10 11 0 0
BITMAP
FAC0
FAC0
5AC0
5AC0
FAC0
36C0
32C0
7FC0
7FC0
00C0
00C0
ENDCHAR
STARTCHAR U+AFF4
ENCODING 45044
SWIDTH 666 0
DWIDTH 12 0
BBX 10 11 0 0
BITMAP
FAC0
FAC0
5AC0
5AC0
FAC0
36C0
32C0
6000
6000
7FC0
7FC0
ENDCHAR
STARTCHAR U+AFF8
ENCODING 45048
SWIDTH 666 0
DWIDTH 12 0
BBX 10 11 0 0
BITMAP
FAC0
FAC0
4AC0
FAC0
36C0
32C0
7FC0
07C0
7800
7FC0
7FC0
ENDCHAR
STARTCHAR U+B000
ENCODING 45056
SWIDTH 666 0
DWIDTH 12 0
BBX 10 11 0 0
BITMAP
FAC0
FAC0
5AC0
5AC0
FAC0
36C0
32C0
7FC0
60C0
7FC0
7FC0
ENDCHAR
STARTCHAR U+B001
ENCODING 45057
SWIDTH 666 0
DWIDTH 12 0
BBX 10 11 0 0
BITMAP
FAC0
FAC0
5AC0
5AC0
FAC0
36C0
62C0
7FC0
60C0
7FC0
7FC0
ENDCHAR
STARTCHAR U+B004
ENCODING 45060
SWIDTH 666 0
DWIDTH 12 0
BBX 10 11 0 0
BITMAP
FAC0
FAC0
5AC0
5AC0
FAC0
36C0
32C0
0100
3B80
7FC0
6EC0
ENDCHAR
STARTCHAR U+B00C
ENCODING 45068
SWIDTH 666 0
DWIDTH 12 0
BBX 10 11 0 0
BITMAP
FEC0
FEC0
36C0
36C0
00C0
FFC0
FFC0
18C0
18C0
18C0
18C0
ENDCHAR
STARTCHAR U+B010
ENCODING 45072
SWIDTH 666 0
DWIDTH 12 0
BBX 10 11 0 0
BITMAP
FEC0
FEC0
36C0
36C0
FFC0
FFC0
0CC0
6CC0
6000
7FC0
7FC0
ENDCHAR
STARTCHAR U+B014
ENCODING 45076
SWIDTH 666 0
DWIDTH 12 0
BBX 10 11 0 0
BITMAP
FEC0
FEC0
36C0
36C0
FFC0
18C0
7FC0
07C0
7800
7FC0
7FC0
ENDCHAR
STARTCHAR U+B01C
ENCODING 45084
SWIDTH 666 0
DWIDTH 12 0
BBX 10 11 0 0
BITMAP
FEC0
FEC0
36C0
36C0
FFC0
FFC0
1800
7FC0
60C0
7FC0
7FC0
ENDCHAR
STARTCHAR U+B01D
ENCODING 45085
SWIDTH 666 0
DWIDTH 12 0
BBX 10 11 0 0
BITMAP
FEC0
FEC0
36C0
36C0
FFC0
0CC0
6CC0
7FC0
60C0
7FC0
7FC0
ENDCHAR
STARTCHAR U+B028
ENCODING 45096
SWIDTH 666 0
DWIDTH 12 0
BBX 11 11 0 0
BITMAP
7BC0
7BC0
18C0
18C0
18C0
FFE0
FFE0
3180
3180
3180
3180
ENDCHAR
STARTCHAR U+B030
ENCODING 45104
SWIDTH 666 0
DWIDTH 12 0
BBX 11 11 0 0
BITMAP
7BC0
7BC0
18C0
FFE0
FFE0
3180
7FC0
07C0
7800
7FC0
7FC0
ENDCHAR
STARTCHAR U+B03C
ENCODING 45116
SWIDTH 666 0
DWIDTH 12 0
BBX 11 11 0 0
BITMAP
7BC0
7BC0
18C0
18C0
FFE0
FFE0
3180
1100
3B80
7FC0
6EC0
ENDCHAR
STARTCHAR U+B044
ENCODING 45124
SWIDTH 666 0
DWIDTH 12 0
BBX 11 10 0 1
BITMAP
7BC0
7BC0
18C0
18C0
18C0
18C0
18C0
0000
FFE0
FFE0
ENDCHAR
STARTCHAR U+B045
ENCODING 45125
SWIDTH 666 0
DWIDTH 12 0
BBX 11 11 0 0
BITMAP
7BC0
7BC0
18C0
18C0
FFE0
FFE0
0000
7FC0
7FC0
00C0
00C0
ENDCHAR
STARTCHAR U+B048
ENCODING 45128
SWIDTH 666 0
DWIDTH 12 0
BBX 11 11 0 0
BITMAP
7BC0
7BC0
18C0
18C0
FFE0
FFE0
0000
6000
6000
7FC0
7FC0
ENDCHAR
STARTCHAR U+B04A
ENCODING 45130
SWIDTH 666 0
DWIDTH 12 0
BBX 11 11 0 0
BITMAP
7BC0
7BC0
18C0
18C0
FFE0
FFE0
0300
6FE0
66C0
7FC0
7B80
ENDCHAR
STARTCHAR U+B04C
ENCODING 45132
SWIDTH 666 0
DWIDTH 12 0
BBX 11 11 0 0
BITMAP
7BC0
7BC0
18C0
FFE0
FFE0
0000
7FC0
07C0
7800
7FC0
7FC0
ENDCHAR
STARTCHAR U+B04E
ENCODING 45134
SWIDTH 666 0
DWIDTH 12 0
BBX 11 11 0 0
BITMAP
7BC0
7BC0
18C0
FFE0
FFE0
0000
7BC0
1AC0
62C0
7BC0
7BC0
ENDCHAR
STARTCHAR U+B053
ENCODING 45139
SWIDTH 666 0
DWIDTH 12 0
BBX 11 11 0 0
BITMAP
7BC0
7BC0
18C0
FFE0
FFE0
0300
7FC0
1B80
66C0
7FC0
7B80
ENDCHAR
STARTCHAR U+B054
ENCODING 45140
SWIDTH 666 0
DWIDTH 12 0
BBX 11 11 0 0
BITMAP
7BC0
7BC0
18C0
18C0
FFE0
FFE0
0000
7FC0
60C0
7FC0
7FC0
ENDCHAR
STARTCHAR U+B055
ENCODING 45141
SWIDTH 666 0
DWIDTH 12 0
BBX 11 11 0 0
BITMAP
7BC0
7BC0
18C0
18C0
FFE0
FFE0
60C0
7FC0
60C0
7FC0
7FC0
ENDCHAR
STARTCHAR U+B057
ENCODING 45143
SWIDTH 666 0
DWIDTH 12 0
BBX 11 11 0 0
BITMAP
7BC0
7BC0
18C0
18C0
FFE0
FFE0
0000
0E00
1F00
7BC0
71C0
ENDCHAR
STARTCHAR U+B059
ENCODING 45145
SWIDTH 666 0
DWIDTH 12 0
BBX 11 11 0 0
BITMAP
7BC0
7BC0
18C0
18C0
FFE0
FFE0
0000
3F80
60C0
7FC0
3F80
ENDCHAR
STARTCHAR U+B05D
ENCODING 45149
SWIDTH 666 0
DWIDTH 12 0
BBX 11 11 0 0
BITMAP
7BC0
7BC0
18C0
FFE0
0000
7FC0
6000
7FC0
6000
7FC0
7FC0
ENDCHAR
STARTCHAR U+B060
ENCODING 45152
SWIDTH 666 0
DWIDTH 12 0
BBX 10 11 0 0
BITMAP
FEC0
FEC0
36C0
36C0
36C0
36C0
36C0
00C0
FFC0
FFC0
00C0
ENDCHAR
STARTCHAR U+B064
ENCODING 45156
SWIDTH 666 0
DWIDTH 12 0
BBX 10 11 0 0
BITMAP
FEC0
FEC0
36C0
36C0
FFC0
FFC0
00C0
6000
6000
7FC0
7FC0
ENDCHAR
STARTCHAR U+B07C
ENCODING 45180
SWIDTH 666 0
DWIDTH 12 0
BBX 10 11 0 0
BITMAP
FEC0
FEC0
36C0
36C0
36C0
6EC0
6CC0
6CC0
DCC0
D8C0
00C0
ENDCHAR
STARTCHAR U+B07D
ENCODING 45181
SWIDTH 666 0
DWIDTH 12 0
BBX 10 11 0 0
BITMAP
FEC0
FEC0
36C0
6EC0
DCC0
D8C0
0000
7FC0
7FC0
00C0
00C0
ENDCHAR
STARTCHAR U+B080
ENCODING 45184
SWIDTH 666 0
DWIDTH 12 0
BBX 10 11 0 0
BITMAP
FEC0
FEC0
36C0
6EC0
DCC0
D8C0
00C0
6000
6000
7FC0
7FC0
ENDCHAR
STARTCHAR U+B084
ENCODING 45188
SWIDTH 666 0
DWIDTH 12 0
BBX 10 11 0 0
BITMAP
FEC0
FEC0
36C0
6EC0
DCC0
D8C0
7FC0
07C0
7800
7FC0
7FC0
ENDCHAR
STARTCHAR U+B08C
ENCODING 45196
SWIDTH 666 0
DWIDTH 12 0
BBX 10 11 0 0
BITMAP
FEC0
FEC0
36C0
6EC0
DCC0
D8C0
0000
7FC0
60C0
7FC0
7FC0
ENDCHAR
STARTCHAR U+B08D
ENCODING 45197
SWIDTH 666 0
DWIDTH 12 0
BBX 10 11 0 0
BITMAP
FEC0
FEC0
36C0
6EC0
DCC0
D8C0
60C0
7FC0
60C0
7FC0
7FC0
ENDCHAR
STARTCHAR U+B08F
ENCODING 45199
SWIDTH 666 0
DWIDTH 12 0
BBX 10 11 0 0
BITMAP
FEC0
FEC0
36C0
6EC0
DCC0
D8C0
04C0
0E00
1F00
7BC0
71C0
ENDCHAR
STARTCHAR U+B090
ENCODING 45200
SWIDTH 666 0
DWIDTH 12 0
BBX 10 11 0 0
BITMAP
FEC0
FEC0
36C0
6EC0
DCC0
D8C0
0000
1100
3B80
7FC0
6EC0
ENDCHAR
STARTCHAR U+B091
ENCODING 45201
SWIDTH 666 0
DWIDTH 12 0
BBX 10 11 0 0
BITMAP
FEC0
FEC0
36C0
6EC0
DCC0
D8C0
0000
3F80
60C0
7FC0
3F80
ENDCHAR
STARTCHAR U+B098
ENCODING 45208
SWIDTH 666 0
DWIDTH 12 0
BBX 11 11 0 0
BITMAP
C0C0
C0C0
C0C0
C0C0
C0E0
C0E0
C0C0
C0C0
FEC0
FEC0
00C0
ENDCHAR
STARTCHAR U+B099
ENCODING 45209
SWIDTH 666 0
DWIDTH 12 0
BBX 11 11 0 0
BITMAP
C0C0
C0C0
C0E0
C0E0
FEC0
FEC0
0000
7FC0
7FC0
00C0
00C0
ENDCHAR
STARTCHAR U+B09A
ENCODING 45210
SWIDTH 666 0
DWIDTH 12 0
BBX 11 11 0 0
BITMAP
C0C0
C0C0
C0E0
C0E0
FEC0
FEC0
0000
7FC0
7FC0
0CC0
0CC0
ENDCHAR
STARTCHAR U+B09C
ENCODING 45212
SWIDTH 666 0
DWIDTH 12 0
BBX 11 11 0 0
BITMAP
C0C0
C0C0
C0E0
C0E0
FEC0
FEC0
00C0
6000
6000
7FC0
7FC0
ENDCHAR
STARTCHAR U+B09F
ENCODING 45215
SWIDTH 666 0
DWIDTH 12 0
BBX 11 11 0 0
BITMAP
C0C0
C0C0
C0E0
C0E0
FEC0
FEC0
0000
7FC0
6000
7FC0
7FC0
ENDCHAR
STARTCHAR U+B0A0
ENCODING 45216
SWIDTH 666 0
DWIDTH 12 0
BBX 11 11 0 0
BITMAP
C0C0
C0C0
C0E0
FEE0
FEC0
0000
7FC0
07C0
7800
7FC0
7FC0
ENDCHAR
STARTCHAR U+B0A1
ENCODING 45217
SWIDTH 666 0
DWIDTH 12 0
BBX 11 11 0 0
BITMAP
C0C0
C0C0
C0E0
FEE0
FEC0
0000
7BC0
1BC0
60C0
78C0
78C0
ENDCHAR
STARTCHAR U+B0A2
ENCODING 45218
SWIDTH 666 0
DWIDTH 12 0
BBX 11 11 0 0
BITMAP
C0C0
C0C0
C0E0
FEE0
FEC0
0000
7BC0
1AC0
62C0
7BC0
7BC0
ENDCHAR
STARTCHAR U+B0A8
ENCODING 45224
SWIDTH 666 0
DWIDTH 12 0
BBX 11 11 0 0
BITMAP
C0C0
C0C0
C0E0
C0E0
FEC0
FEC0
0000
7FC0
60C0
7FC0
7FC0
ENDCHAR
STARTCHAR U+B0A9
ENCODING 45225
SWIDTH 666 0
DWIDTH 12 0
BBX 11 11 0 0
BITMAP
C0C0
C0C0
C0E0
C0E0
FEC0
FEC0
60C0
7FC0
60C0
7FC0
7FC0
ENDCHAR
STARTCHAR U+B0AB
ENCODING 45227
SWIDTH 666 0
DWIDTH 12 0
BBX 11 11 0 0
BITMAP
C0C0
C0C0
C0E0
C0E0
FEC0
FEC0
00C0
0E00
1F00
7BC0
71C0
ENDCHAR
STARTCHAR U+B0AC
ENCODING 45228
SWIDTH 666 0
DWIDTH 12 0
BBX 11 11 0 0
BITMAP
C0C0
C0C0
C0E0
C0E0
FEC0
FEC0
0000
1100
3B80
7FC0
6EC0
ENDCHAR
STARTCHAR U+B0AD
ENCODING 45229
SWIDTH 666 0
DWIDTH 12 0
BBX 11 11 0 0
BITMAP
C0C0
C0C0
C0E0
C0E0
FEC0
FEC0
0000
3F80
60C0
7FC0
3F80
ENDCHAR
STARTCHAR U+B0AE
ENCODING 45230
SWIDTH 666 0
DWIDTH 12 0
BBX 11 11 0 0
BITMAP
C0C0
C0C0
C0E0
C0E0
FEC0
FEC0
0000
7FC0
1F00
7BC0
71C0
ENDCHAR
STARTCHAR U+B0AF
ENCODING 45231
SWIDTH 666 0
DWIDTH 12 0
BBX 11 11 0 0
BITMAP
C0C0
C0C0
C0E0
C0E0
FEC0
FEC0
0C00
7FC0
1F00
7BC0
71C0
ENDCHAR
STARTCHAR U+B0B1
ENCODING 45233
SWIDTH 666 0
DWIDTH 12 0
BBX 11 11 0 0
BITMAP
C0C0
C0C0
C0E0
FEE0
FEC0
7FC0
6000
7FC0
6000
7FC0
7FC0
ENDCHAR
STARTCHAR U+B0B3
ENCODING 45235
SWIDTH 666 0
DWIDTH 12 0
BBX 11 11 0 0
BITMAP
C0C0
C0C0
C0E0
C0E0
FEC0
FEC0
0C00
7FC0
3180
3F80
1F00
ENDCHAR
STARTCHAR U+B0B4
ENCODING 45236
SWIDTH 666 0
DWIDTH 12 0
BBX 10 11 0 0
BITMAP
C2C0
C2C0
C2C0
C2C0
C3C0
C3C0
C2C0
C2C0
FAC0
FAC0
02C0
ENDCHAR
STARTCHAR U+B0B5
ENCODING 45237
SWIDTH 666 0
DWIDTH 12 0
BBX 10 11 0 0
BITMAP
C2C0
C2C0
C3C0
C3C0
FAC0
FAC0
0000
7FC0
7FC0
00C0
00C0
ENDCHAR
STARTCHAR U+B0B8
ENCODING 45240
SWIDTH 666 0
DWIDTH 12 0
BBX 10 11 0 0
BITMAP
C2C0
C2C0
C3C0
C3C0
FAC0
FAC0
02C0
6000
6000
7FC0
7FC0
ENDCHAR
STARTCHAR U+B0BB
ENCODING 45243
SWIDTH 666 0
DWIDTH 12 0
BBX 10 11 0 0
BITMAP
C2C0
C2C0
C3C0
C3C0
FAC0
FAC0
0000
7FC0
6000
7FC0
7FC0
ENDCHAR
STARTCHAR U+B0BC
ENCODING 45244
SWIDTH 666 0
DWIDTH 12 0
BBX 10 11 0 0
BITMAP
C2C0
C2C0
C3C0
FBC0
FAC0
0000
7FC0
07C0
7800
7FC0
7FC0
ENDCHAR
STARTCHAR U+B0C4
ENCODING 45252
SWIDTH 666 0
DWIDTH 12 0
BBX 10 11 0 0
BITMAP
C2C0
C2C0
C3C0
C3C0
FAC0
FAC0
0000
7FC0
60C0
7FC0
7FC0
ENDCHAR
STARTCHAR U+B0C5
ENCODING 45253
SWIDTH 666 0
DWIDTH 12 0
BBX 10 11 0 0
BITMAP
C2C0
C2C0
C3C0
C3C0
FAC0
FAC0
60C0
7FC0
60C0
7FC0
7FC0
ENDCHAR
STARTCHAR U+B0C7
ENCODING 45255
SWIDTH 666 0
DWIDTH 12 0
BBX 10 11 0 0
BITMAP
C2C0
C2C0
C3C0
C3C0
FAC0
FAC0
0400
0E00
1F00
7BC0
71C0
ENDCHAR
STARTCHAR U+B0C8
ENCODING 45256
SWIDTH 666 0
DWIDTH 12 0
BBX 10 11 0 0
BITMAP
C2C0
C2C0
C3C0
C3C0
FAC0
FAC0
0000
1100
3B80
7FC0
6EC0
ENDCHAR
STARTCHAR U+B0C9
ENCODING 45257
SWIDTH 666 0
DWIDTH 12 0
BBX 10 11 0 0
BITMAP
C2C0
C2C0
C3C0
C3C0
FAC0
FAC0
0000
3F80
60C0
7FC0
3F80
ENDCHAR
STARTCHAR U+B0D0
ENCODING 45264
SWIDTH 666 0
DWIDTH 12 0
BBX 11 11 0 0
BITMAP
C0C0
C0C0
C0E0
C0E0
C0C0
C0C0
C0E0
C0E0
FEC0
FEC0
00C0
ENDCHAR
STARTCHAR U+B0D1
ENCODING 45265
SWIDTH 666 0
DWIDTH 12 0
BBX 11 11 0 0
BITMAP
C0C0
C0E0
C0C0
C0E0
FEE0
FEC0
0000
7FC0
7FC0
00C0
00C0
ENDCHAR
STARTCHAR U+B0D4
ENCODING 45268
SWIDTH 666 0
DWIDTH 12 0
BBX 11 11 0 0
BITMAP
C0C0
C0E0
C0E0
C0C0
FEE0
FEE0
00C0
6000
6000
7FC0
7FC0
ENDCHAR
STARTCHAR U+B0D7
ENCODING 45271
SWIDTH 666 0
DWIDTH 12 0
BBX 11 11 0 0
BITMAP
C0C0
C0E0
C0C0
C0E0
FEE0
FEC0
0000
7FC0
6000
7FC0
7FC0
ENDCHAR
STARTCHAR U+B0D8
ENCODING 45272
SWIDTH 666 0
DWIDTH 12 0
BBX 11 11 0 0
BITMAP
C0C0
C0E0
C0C0
FEE0
FEC0
0000
7FC0
07C0
7800
7FC0
7FC0
ENDCHAR
STARTCHAR U+B0E0
ENCODING 45280
SWIDTH 666 0
DWIDTH 12 0
BBX 11 11 0 0
BITMAP
C0C0
C0E0
C0C0
C0E0
FEE0
FEC0
0000
7FC0
60C0
7FC0
7FC0
ENDCHAR
STARTCHAR U+B0E1
ENCODING 45281
SWIDTH 666 0
DWIDTH 12 0
BBX 11 11 0 0
BITMAP
C0C0
C0E0
C0C0
C0E0
FEE0
FEC0
60C0
7FC0
60C0
7FC0
7FC0
ENDCHAR
STARTCHAR U+B0E3
ENCODING 45283
SWIDTH 666 0
DWIDTH 12 0
BBX 11 11 0 0
BITMAP
C0C0
C0E0
C0E0
C0C0
FEE0
FEE0
00C0
0E00
1F00
7BC0
71C0
ENDCHAR
STARTCHAR U+B0E5
ENCODING 45285
SWIDTH 666 0
DWIDTH 12 0
BBX 11 11 0 0
BITMAP
C0C0
C0E0
C0C0
C0E0
FEE0
FEC0
0000
3F80
60C0
7FC0
3F80
ENDCHAR
STARTCHAR U+B0EC
ENCODING 45292
SWIDTH 666 0
DWIDTH 12 0
BBX 10 11 0 0
BITMAP
C2C0
C2C0
C3C0
C3C0
C2C0
C2C0
C3C0
C3C0
FAC0
FAC0
02C0
ENDCHAR
STARTCHAR U+B108
ENCODING 45320
SWIDTH 666 0
DWIDTH 12 0
BBX 10 11 0 0
BITMAP
C0C0
C0C0
C0C0
C7C0
C7C0
C0C0
C0C0
C0C0
FEC0
FEC0
00C0
ENDCHAR
STARTCHAR U+B109
ENCODING 45321
SWIDTH 666 0
DWIDTH 12 0
BBX 10 11 0 0
BITMAP
C0C0
C7C0
C7C0
C0C0
FEC0
FEC0
0000
7FC0
7FC0
00C0
00C0
ENDCHAR
STARTCHAR U+B10B
ENCODING 45323
SWIDTH 666 0
DWIDTH 12 0
BBX 10 11 0 0
BITMAP
C0C0
C7C0
C7C0
C0C0
FEC0
FEC0
0000
7980
7980
1BC0
1AC0
ENDCHAR
STARTCHAR U+B10C
ENCODING 45324
SWIDTH 666 0
DWIDTH 12 0
BBX 10 11 0 0
BITMAP
C0C0
C7C0
C7C0
C0C0
FEC0
FEC0
00C0
6000
6000
7FC0
7FC0
ENDCHAR
STARTCHAR U+B10F
ENCODING 45327
SWIDTH 666 0
DWIDTH 12 0
BBX 10 11 0 0
BITMAP
C0C0
C7C0
C7C0
C0C0
FEC0
FEC0
0000
7FC0
6000
7FC0
7FC0
ENDCHAR
STARTCHAR U+B110
ENCODING 45328
SWIDTH 666 0
DWIDTH 12 0
BBX 10 11 0 0
BITMAP
C0C0
C7C0
C7C0
FEC0
FEC0
0000
7FC0
07C0
7800
7FC0
7FC0
ENDCHAR
STARTCHAR U+B111
ENCODING 45329
SWIDTH 666 0
DWIDTH 12 0
BBX 10 11 0 0
BITMAP
C0C0
C7C0
C7C0
FEC0
FEC0
0000
7BC0
1BC0
60C0
78C0
78C0
ENDCHAR
STARTCHAR U+B112
ENCODING 45330
SWIDTH 666 0
DWIDTH 12 0
BBX 10 11 0 0
BITMAP
C0C0
C7C0
C7C0
FEC0
FEC0
0000
7BC0
1AC0
62C0
7BC0
7BC0
ENDCHAR
STARTCHAR U+B113
ENCODING 45331
SWIDTH 666 0
DWIDTH 12 0
BBX 10 11 0 0
BITMAP
C0C0
C7C0
C7C0
FEC0
FEC0
0000
7AC0
1BC0
62C0
7BC0
7BC0
ENDCHAR
STARTCHAR U+B118
ENCODING 45336
SWIDTH 666 0
DWIDTH 12 0
BBX 10 11 0 0
BITMAP
C0C0
C7C0
C7C0
C0C0
FEC0
FEC0
0000
7FC0
60C0
7FC0
7FC0
ENDCHAR
STARTCHAR U+B119
ENCODING 45337
SWIDTH 666 0
DWIDTH 12 0
BBX 10 11 0 0
BITMAP
C0C0
C7C0
C7C0
C0C0
FEC0
FEC0
60C0
7FC0
60C0
7FC0
7FC0
ENDCHAR
STARTCHAR U+B11B
ENCODING 45339
SWIDTH 666 0
DWIDTH 12 0
BBX 10 11 0 0
BITMAP
C0C0
C7C0
C7C0
C0C0
FEC0
FEC0
00C0
0E00
1F00
7BC0
71C0
ENDCHAR
STARTCHAR U+B11C
ENCODING 45340
SWIDTH 666 0
DWIDTH 12 0
BBX 10 11 0 0
BITMAP
C0C0
C7C0
C7C0
C0C0
FEC0
FEC0
0000
1100
3B80
7FC0
6EC0
ENDCHAR
STARTCHAR U+B11D
ENCODING 45341
SWIDTH 666 0
DWIDTH 12 0
BBX 10 11 0 0
BITMAP
C0C0
C7C0
C7C0
C0C0
FEC0
FEC0
0000
3F80
60C0
7FC0
3F80
ENDCHAR
STARTCHAR U+B122
ENCODING 45346
SWIDTH 666 0
DWIDTH 12 0
BBX 10 11 0 0
BITMAP
C0C0
C7C0
C7C0
C0C0
FEC0
FEC0
0000
7FC0
3180
7FC0
7FC0
ENDCHAR
STARTCHAR U+B123
ENCODING 45347
SWIDTH 666 0
DWIDTH 12 0
BBX 10 11 0 0
BITMAP
C0C0
C7C0
C7C0
C0C0
FEC0
FEC0
0400
7FC0
3180
3F80
1F00
ENDCHAR
STARTCHAR U+B124
ENCODING 45348
SWIDTH 666 0
DWIDTH 12 0
BBX 10 11 0 0
BITMAP
C2C0
C2C0
C2C0
CEC0
CEC0
C2C0
C2C0
C2C0
FAC0
FAC0
02C0
ENDCHAR
STARTCHAR U+B125
ENCODING 45349
SWIDTH 666 0
DWIDTH 12 0
BBX 10 11 0 0
BITMAP
C2C0
CEC0
CEC0
C2C0
FAC0
FAC0
0000
7FC0
7FC0
00C0
00C0
ENDCHAR
STARTCHAR U+B128
ENCODING 45352
SWIDTH 666 0
DWIDTH 12 0
BBX 10 11 0 0
BITMAP
C2C0
CEC0
CEC0
C2C0
FAC0
FAC0
02C0
6000
6000
7FC0
7FC0
ENDCHAR
STARTCHAR U+B12B
ENCODING 45355
SWIDTH 666 0
DWIDTH 12 0
BBX 10 11 0 0
BITMAP
C2C0
CEC0
CEC0
C2C0
FAC0
FAC0
0000
7FC0
6000
7FC0
7FC0
ENDCHAR
STARTCHAR U+B12C
ENCODING 45356
SWIDTH 666 0
DWIDTH 12 0
BBX 10 11 0 0
BITMAP
C2C0
CEC0
CEC0
FAC0
FAC0
0000
7FC0
07C0
7800
7FC0
7FC0
ENDCHAR
STARTCHAR U+B134
ENCODING 45364
SWIDTH 666 0
DWIDTH 12 0
BBX 10 11 0 0
BITMAP
C2C0
CEC0
CEC0
C2C0
FAC0
FAC0
0000
7FC0
60C0
7FC0
7FC0
ENDCHAR
STARTCHAR U+B135
ENCODING 45365
SWIDTH 666 0
DWIDTH 12 0
BBX 10 11 0 0
BITMAP
C2C0
CEC0
CEC0
C2C0
FAC0
FAC0
60C0
7FC0
60C0
7FC0
7FC0
ENDCHAR
STARTCHAR U+B137
ENCODING 45367
SWIDTH 666 0
DWIDTH 12 0
BBX 10 11 0 0
BITMAP
C2C0
CEC0
CEC0
C2C0
FAC0
FAC0
0400
0E00
1F00
7BC0
71C0
ENDCHAR
STARTCHAR U+B138
ENCODING 45368
SWIDTH 666 0
DWIDTH 12 0
BBX 10 11 0 0
BITMAP
C2C0
CEC0
CEC0
C2C0
FAC0
FAC0
0000
1100
3B80
7FC0
6EC0
ENDCHAR
STARTCHAR U+B139
ENCODING 45369
SWIDTH 666 0
DWIDTH 12 0
BBX 10 11 0 0
BITMAP
C2C0
CEC0
CEC0
C2C0
FAC0
FAC0
0000
3F80
60C0
7FC0
3F80
ENDCHAR
STARTCHAR U+B13E
ENCODING 45374
SWIDTH 666 0
DWIDTH 12 0
BBX 10 11 0 0
BITMAP
C2C0
CEC0
CEC0
C2C0
FAC0
FAC0
0000
7FC0
3180
7FC0
7FC0
ENDCHAR
STARTCHAR U+B140
ENCODING 45376
SWIDTH 666 0
DWIDTH 12 0
BBX 10 11 0 0
BITMAP
C0C0
C0C0
C7C0
C7C0
C0C0
C7C0
C7C0
C0C0
FEC0
FEC0
00C0
ENDCHAR
STARTCHAR U+B141
ENCODING 45377
SWIDTH 666 0
DWIDTH 12 0
BBX 10 11 0 0
BITMAP
C0C0
C3C0
C0C0
C3C0
FFC0
FCC0
0000
7FC0
7FC0
00C0
00C0
ENDCHAR
STARTCHAR U+B144
ENCODING 45380
SWIDTH 666 0
DWIDTH 12 0
BBX 10 11 0 0
BITMAP
C0C0
C3C0
C0C0
C3C0
FFC0
FCC0
00C0
6000
6000
7FC0
7FC0
ENDCHAR
STARTCHAR U+B147
ENCODING 45383
SWIDTH 666 0
DWIDTH 12 0
BBX 10 11 0 0
BITMAP
C0C0
C3C0
C0C0
C3C0
FFC0
FCC0
0000
7FC0
6000
7FC0
7FC0
ENDCHAR
STARTCHAR U+B148
ENCODING 45384
SWIDTH 666 0
DWIDTH 12 0
BBX 10 11 0 0
BITMAP
C0C0
C3C0
C0C0
FFC0
FCC0
0000
7FC0
07C0
7800
7FC0
7FC0
ENDCHAR
STARTCHAR U+B150
ENCODING 45392
SWIDTH 666 0
DWIDTH 12 0
BBX 10 11 0 0
BITMAP
C0C0
C3C0
C0C0
C3C0
FFC0
FCC0
0000
7FC0
60C0
7FC0
7FC0
ENDCHAR
STARTCHAR U+B151
ENCODING 45393
SWIDTH 666 0
DWIDTH 12 0
BBX 10 11 0 0
BITMAP
C0C0
C3C0
C0C0
C3C0
FFC0
FCC0
60C0
7FC0
60C0
7FC0
7FC0
ENDCHAR
STARTCHAR U+B154
ENCODING 45396
SWIDTH 666 0
DWIDTH 12 0
BBX 10 11 0 0
BITMAP
C0C0
C3C0
C0C0
C3C0
FFC0
FCC0
0000
1100
3B80
7FC0
6EC0
ENDCHAR
STARTCHAR U+B155
ENCODING 45397
SWIDTH 666 0
DWIDTH 12 0
BBX 10 11 0 0
BITMAP
C0C0
C3C0
C0C0
C3C0
FFC0
FCC0
0000
3F80
60C0
7FC0
3F80
ENDCHAR
STARTCHAR U+B158
ENCODING 45400
SWIDTH 666 0
DWIDTH 12 0
BBX 10 11 0 0
BITMAP
C0C0
C3C0
C0C0
C3C0
FFC0
FCC0
0000
7FC0
00C0
7FC0
00C0
ENDCHAR
STARTCHAR U+B15C
ENCODING 45404
SWIDTH 666 0
DWIDTH 12 0
BBX 10 11 0 0
BITMAP
C2C0
C2C0
CEC0
CEC0
C2C0
CEC0
CEC0
C2C0
FAC0
FAC0
02C0
ENDCHAR
STARTCHAR U+B160
ENCODING 45408
SWIDTH 666 0
DWIDTH 12 0
BBX 10 11 0 0
BITMAP
C2C0
CEC0
C2C0
CEC0
FEC0
F2C0
02C0
6000
6000
7FC0
7FC0
ENDCHAR
STARTCHAR U+B171
ENCODING 45425
SWIDTH 666 0
DWIDTH 12 0
BBX 10 11 0 0
BITMAP
C2C0
CEC0
C2C0
CEC0
FEC0
F2C0
0000
3F80
60C0
7FC0
3F80
ENDCHAR
STARTCHAR U+B178
ENCODING 45432
SWIDTH 666 0
DWIDTH 12 0
BBX 11 10 0 1
BITMAP
6000
6000
6000
6000
7FC0
7FC0
0600
0600
FFE0
FFE0
ENDCHAR
STARTCHAR U+B179
ENCODING 45433
SWIDTH 666 0
DWIDTH 12 0
BBX 11 11 0 0
BITMAP
6000
6000
7FC0
7FC0
0600
FFE0
0000
7FC0
7FC0
00C0
00C0
ENDCHAR
STARTCHAR U+B17C
ENCODING 45436
SWIDTH 666 0
DWIDTH 12 0
BBX 11 11 0 0
BITMAP
6000
6000
7FC0
7FC0
0600
FFE0
FFE0
0000
6000
7FC0
7FC0
ENDCHAR
STARTCHAR U+B180
ENCODING 45440
SWIDTH 666 0
DWIDTH 12 0
BBX 11 11 0 0
BITMAP
6000
6000
7FC0
0600
FFE0
0000
7FC0
07C0
7800
7FC0
7FC0
ENDCHAR
STARTCHAR U+B181
ENCODING 45441
SWIDTH 666 0
DWIDTH 12 0
BBX 11 11 0 0
BITMAP
6000
6000
7FC0
0600
FFE0
0000
7BC0
1BC0
60C0
78C0
78C0
ENDCHAR
STARTCHAR U+B182
ENCODING 45442
SWIDTH 666 0
DWIDTH 12 0
BBX 11 11 0 0
BITMAP
6000
6000
7FC0
0600
FFE0
0000
7BC0
1AC0
62C0
7BC0
7BC0
ENDCHAR
STARTCHAR U+B188
ENCODING 45448
SWIDTH 666 0
DWIDTH 12 0
BBX 11 11 0 0
BITMAP
6000
6000
7FC0
7FC0
0600
FFE0
0000
7FC0
60C0
7FC0
7FC0
ENDCHAR
STARTCHAR U+B189
ENCODING 45449
SWIDTH 666 0
DWIDTH 12 0
BBX 11 11 0 0
BITMAP
6000
6000
7FC0
7FC0
0600
FFE0
60C0
7FC0
60C0
7FC0
7FC0
ENDCHAR
STARTCHAR U+B18B
ENCODING 45451
SWIDTH 666 0
DWIDTH 12 0
BBX 11 11 0 0
BITMAP
6000
6000
7FC0
7FC0
0600
FFE0
0000
0E00
1F00
7BC0
71C0
ENDCHAR
STARTCHAR U+B18D
ENCODING 45453
SWIDTH 666 0
DWIDTH 12 0
BBX 11 11 0 0
BITMAP
6000
6000
7FC0
7FC0
0600
FFE0
0000
3F80
60C0
7FC0
3F80
ENDCHAR
STARTCHAR U+B191
ENCODING 45457
SWIDTH 666 0
DWIDTH 12 0
BBX 11 11 0 0
BITMAP
6000
6000
6000
7FC0
0600
FFE0
6000
7FC0
6000
7FC0
7FC0
ENDCHAR
STARTCHAR U+B192
ENCODING 45458
SWIDTH 666 0
DWIDTH 12 0
BBX 11 11 0 0
BITMAP
6000
6000
7FC0
7FC0
0600
FFE0
0000
7FC0
3180
7FC0
7FC0
ENDCHAR
STARTCHAR U+B193
ENCODING 45459
SWIDTH 666 0
DWIDTH 12 0
BBX 11 11 0 0
BITMAP
6000
6000
7FC0
7FC0
0600
FFE0
0600
7FC0
3180
3F80
1F00
ENDCHAR
STARTCHAR U+B194
ENCODING 45460
SWIDTH 666 0
DWIDTH 12 0
BBX 11 11 0 0
BITMAP
C0C0
C0C0
C0C0
C0C0
FEE0
FEE0
18C0
18C0
FFC0
FFC0
00C0
ENDCHAR
STARTCHAR U+B198
ENCODING 45464
SWIDTH 666 0
DWIDTH 12 0
BBX 11 11 0 0
BITMAP
C0C0
C0C0
FEE0
FEE0
18C0
FFC0
00C0
6000
6000
7FC0
7FC0
ENDCHAR
STARTCHAR U+B19C
ENCODING 45468
SWIDTH 666 0
DWIDTH 12 0
BBX 11 11 0 0
BITMAP
C0C0
C0C0
FEE0
18E0
FFC0
0000
7FC0
07C0
7800
7FC0
7FC0
ENDCHAR
STARTCHAR U+B1A5
ENCODING 45477
SWIDTH 666 0
DWIDTH 12 0
BBX 11 11 0 0
BITMAP
C0C0
C0C0
FEE0
FEE0
18C0
FFC0
60C0
7FC0
60C0
7FC0
7FC0
ENDCHAR
STARTCHAR U+B1A8
ENCODING 45480
SWIDTH 666 0
DWIDTH 12 0
BBX 11 11 0 0
BITMAP
C0C0
C0C0
FEE0
FEE0
18C0
FFC0
0000
1100
3B80
7FC0
6EC0
ENDCHAR
STARTCHAR U+B1B0
ENCODING 45488
SWIDTH 666 0
DWIDTH 12 0
BBX 10 11 0 0
BITMAP
C2C0
C2C0
C2C0
C2C0
FBC0
FBC0
32C0
32C0
FEC0
FEC0
02C0
ENDCHAR
STARTCHAR U+B1C4
ENCODING 45508
SWIDTH 666 0
DWIDTH 12 0
BBX 10 11 0 0
BITMAP
C2C0
C2C0
FBC0
FBC0
32C0
FEC0
0000
1100
3B80
7FC0
6EC0
ENDCHAR
STARTCHAR U+B1CC
ENCODING 45516
SWIDTH 666 0
DWIDTH 12 0
BBX 10 11 0 0
BITMAP
C0C0
C0C0
C0C0
C0C0
FEC0
FEC0
18C0
18C0
FFC0
FFC0
00C0
ENDCHAR
STARTCHAR U+B1CD
ENCODING 45517
SWIDTH 666 0
DWIDTH 12 0
BBX 10 11 0 0
BITMAP
60C0
60C0
7EC0
7EC0
18C0
FFC0
0000
7FC0
7FC0
00C0
00C0
ENDCHAR
STARTCHAR U+B1D0
ENCODING 45520
SWIDTH 666 0
DWIDTH 12 0
BBX 10 11 0 0
BITMAP
60C0
60C0
7EC0
7EC0
18C0
FFC0
00C0
6000
6000
7FC0
7FC0
ENDCHAR
STARTCHAR U+B1D4
ENCODING 45524
SWIDTH 666 0
DWIDTH 12 0
BBX 10 11 0 0
BITMAP
60C0
60C0
7EC0
18C0
FFC0
0000
7FC0
07C0
7800
7FC0
7FC0
ENDCHAR
STARTCHAR U+B1DC
ENCODING 45532
SWIDTH 666 0
DWIDTH 12 0
BBX 10 11 0 0
BITMAP
60C0
60C0
7EC0
7EC0
18C0
FFC0
0000
7FC0
60C0
7FC0
7FC0
ENDCHAR
STARTCHAR U+B1DD
ENCODING 45533
SWIDTH 666 0
DWIDTH 12 0
BBX 10 11 0 0
BITMAP
60C0
60C0
7EC0
7EC0
18C0
FFC0
60C0
7FC0
60C0
7FC0
7FC0
ENDCHAR
STARTCHAR U+B1DF
ENCODING 45535
SWIDTH 666 0
DWIDTH 12 0
BBX 10 11 0 0
BITMAP
60C0
60C0
7EC0
7EC0
18C0
FFC0
00C0
0E00
1F00
7BC0
71C0
ENDCHAR
STARTCHAR U+B1E1
ENCODING 45537
SWIDTH 666 0
DWIDTH 12 0
BBX 10 11 0 0
BITMAP
60C0
60C0
7EC0
7EC0
18C0
FFC0
0000
3F80
60C0
7FC0
3F80
ENDCHAR
STARTCHAR U+B1E8
ENCODING 45544
SWIDTH 666 0
DWIDTH 12 0
BBX 11 10 0 1
BITMAP
6000
6000
6000
6000
7FC0
7FC0
3180
3180
FFE0
FFE0
ENDCHAR
STARTCHAR U+B1E9
ENCODING 45545
SWIDTH 666 0
DWIDTH 12 0
BBX 11 11 0 0
BITMAP
6000
6000
7FC0
7FC0
3180
FFE0
0000
7FC0
7FC0
00C0
00C0
ENDCHAR
STARTCHAR U+B1EC
ENCODING 45548
SWIDTH 666 0
DWIDTH 12 0
BBX 11 11 0 0
BITMAP
6000
6000
7FC0
7FC0
3180
FFE0
FFE0
0000
6000
7FC0
7FC0
ENDCHAR
STARTCHAR U+B1F0
ENCODING 45552
SWIDTH 666 0
DWIDTH 12 0
BBX 11 11 0 0
BITMAP
6000
6000
7FC0
3180
FFE0
0000
7FC0
07C0
7800
7FC0
7FC0
ENDCHAR
STARTCHAR U+B1F8
ENCODING 45560
SWIDTH 666 0
DWIDTH 12 0
BBX 11 11 0 0
BITMAP
6000
6000
7FC0
7FC0
3180
FFE0
0000
7FC0
60C0
7FC0
7FC0
ENDCHAR
STARTCHAR U+B1F9
ENCODING 45561
SWIDTH 666 0
DWIDTH 12 0
BBX 11 11 0 0
BITMAP
6000
6000
7FC0
7FC0
3180
FFE0
60C0
7FC0
60C0
7FC0
7FC0
ENDCHAR
STARTCHAR U+B1FB
ENCODING 45563
SWIDTH 666 0
DWIDTH 12 0
BBX 11 11 0 0
BITMAP
6000
6000
7FC0
7FC0
3180
FFE0
0000
0E00
1F00
7BC0
71C0
ENDCHAR
STARTCHAR U+B1FD
ENCODING 45565
SWIDTH 666 0
DWIDTH 12 0
BBX 11 11 0 0
BITMAP
6000
6000
7FC0
7FC0
3180
FFE0
0000
3F80
60C0
7FC0
3F80
ENDCHAR
STARTCHAR U+B204
ENCODING 45572
SWIDTH 666 0
DWIDTH 12 0
BBX 11 11 0 0
BITMAP
6000
6000
6000
7FC0
7FC0
0000
FFE0
FFE0
0600
0600
0600
ENDCHAR
STARTCHAR U+B205
ENCODING 45573
SWIDTH 666 0
DWIDTH 12 0
BBX 11 11 0 0
BITMAP
6000
6000
7FC0
7FC0
0000
FFE0
0600
7FC0
7FC0
00C0
00C0
ENDCHAR
STARTCHAR U+B208
ENCODING 45576
SWIDTH 666 0
DWIDTH 12 0
BBX 11 11 0 0
BITMAP
6000
6000
7FC0
7FC0
0000
FFE0
0600
6600
6000
7FC0
7FC0
ENDCHAR
STARTCHAR U+B20B
ENCODING 45579
SWIDTH 666 0
DWIDTH 12 0
BBX 11 11 0 0
BITMAP
6000
6000
7FC0
7FC0
0000
FFE0
0600
7FC0
6000
7FC0
7FC0
ENDCHAR
STARTCHAR U+B20C
ENCODING 45580
SWIDTH 666 0
DWIDTH 12 0
BBX 11 11 0 0
BITMAP
6000
6000
7FC0
0000
FFE0
0600
7FC0
07C0
7800
7FC0
7FC0
ENDCHAR
STARTCHAR U+B20D
ENCODING 45581
SWIDTH 666 0
DWIDTH 12 0
BBX 11 11 0 0
BITMAP
6000
6000
7FC0
0000
FFE0
0600
7BC0
1BC0
60C0
78C0
78C0
ENDCHAR
STARTCHAR U+B214
ENCODING 45588
SWIDTH 666 0
DWIDTH 12 0
BBX 11 11 0 0
BITMAP
6000
6000
7FC0
7FC0
0000
FFE0
0600
7FC0
60C0
7FC0
7FC0
ENDCHAR
STARTCHAR U+B215
ENCODING 45589
SWIDTH 666 0
DWIDTH 12 0
BBX 11 11 0 0
BITMAP
6000
6000
7FC0
7FC0
0000
FFE0
66C0
7FC0
60C0
7FC0
7FC0
ENDCHAR
STARTCHAR U+B217
ENCODING 45591
SWIDTH 666 0
DWIDTH 12 0
BBX 11 11 0 0
BITMAP
6000
6000
7FC0
7FC0
0000
FFE0
0600
0E00
1F00
7BC0
71C0
ENDCHAR
STARTCHAR U+B219
ENCODING 45593
SWIDTH 666 0
DWIDTH 12 0
BBX 11 11 0 0
BITMAP
6000
6000
7FC0
7FC0
0000
FFE0
0600
3F80
60C0
7FC0
3F80
ENDCHAR
STARTCHAR U+B21D
ENCODING 45597
SWIDTH 666 0
DWIDTH 12 0
BBX 11 11 0 0
BITMAP
6000
6000
7FC0
FFE0
0600
7FC0
6000
7FC0
6000
7FC0
7FC0
ENDCHAR
STARTCHAR U+B220
ENCODING 45600
SWIDTH 666 0
DWIDTH 12 0
BBX 10 11 0 0
BITMAP
C0C0
C0C0
C0C0
FEC0
FEC0
00C0
FEC0
FEC0
33C0
33C0
30C0
ENDCHAR
STARTCHAR U+B234
ENCODING 45620
SWIDTH 666 0
DWIDTH 12 0
BBX 10 11 0 0
BITMAP
C0C0
C0C0
FEC0
00C0
FEC0
1BC0
18C0
0100
3B80
7FC0
6EC0
ENDCHAR
STARTCHAR U+B23C
ENCODING 45628
SWIDTH 666 0
DWIDTH 12 0
BBX 10 11 0 0
BITMAP
C2C0
C2C0
C2C0
FAC0
FAC0
02C0
FAC0
FAC0
6EC0
6EC0
62C0
ENDCHAR
STARTCHAR U+B258
ENCODING 45656
SWIDTH 666 0
DWIDTH 12 0
BBX 10 11 0 0
BITMAP
60C0
60C0
60C0
7EC0
7EC0
00C0
FFC0
FFC0
18C0
18C0
18C0
ENDCHAR
STARTCHAR U+B25C
ENCODING 45660
SWIDTH 666 0
DWIDTH 12 0
BBX 10 11 0 0
BITMAP
60C0
60C0
7EC0
7EC0
00C0
FFC0
0CC0
6CC0
6000
7FC0
7FC0
ENDCHAR
STARTCHAR U+B260
ENCODING 45664
SWIDTH 666 0
DWIDTH 12 0
BBX 10 11 0 0
BITMAP
60C0
60C0
7EC0
00C0
FFC0
1800
7FC0
07C0
7800
7FC0
7FC0
ENDCHAR
STARTCHAR U+B268
ENCODING 45672
SWIDTH 666 0
DWIDTH 12 0
BBX 10 11 0 0
BITMAP
60C0
60C0
7EC0
7EC0
00C0
FFC0
1800
7FC0
60C0
7FC0
7FC0
ENDCHAR
STARTCHAR U+B269
ENCODING 45673
SWIDTH 666 0
DWIDTH 12 0
BBX 10 11 0 0
BITMAP
60C0
60C0
7EC0
7EC0
00C0
FFC0
6CC0
7FC0
60C0
7FC0
7FC0
ENDCHAR
STARTCHAR U+B274
ENCODING 45684
SWIDTH 666 0
DWIDTH 12 0
BBX 11 11 0 0
BITMAP
6000
6000
6000
7FC0
7FC0
0000
FFE0
FFE0
3180
3180
3180
ENDCHAR
STARTCHAR U+B275
ENCODING 45685
SWIDTH 666 0
DWIDTH 12 0
BBX 11 11 0 0
BITMAP
6000
6000
7FC0
7FC0
0000
FFE0
3180
7FC0
7FC0
00C0
00C0
ENDCHAR
STARTCHAR U+B27B
ENCODING 45691
SWIDTH 666 0
DWIDTH 12 0
BBX 11 11 0 0
BITMAP
6000
6000
7FC0
7FC0
0000
FFE0
3180
7FC0
6000
7FC0
7FC0
ENDCHAR
STARTCHAR U+B27C
ENCODING 45692
SWIDTH 666 0
DWIDTH 12 0
BBX 11 11 0 0
BITMAP
6000
6000
7FC0
0000
FFE0
3180
7FC0
07C0
7800
7FC0
7FC0
ENDCHAR
STARTCHAR U+B284
ENCODING 45700
SWIDTH 666 0
DWIDTH 12 0
BBX 11 11 0 0
BITMAP
6000
6000
7FC0
7FC0
0000
FFE0
3180
7FC0
60C0
7FC0
7FC0
ENDCHAR
STARTCHAR U+B285
ENCODING 45701
SWIDTH 666 0
DWIDTH 12 0
BBX 11 11 0 0
BITMAP
6000
6000
7FC0
7FC0
0000
FFE0
6AC0
7FC0
60C0
7FC0
7FC0
ENDCHAR
STARTCHAR U+B289
ENCODING 45705
SWIDTH 666 0
DWIDTH 12 0
BBX 11 11 0 0
BITMAP
6000
6000
7FC0
7FC0
0000
FFE0
3180
3F80
60C0
7FC0
3F80
ENDCHAR
STARTCHAR U+B290
ENCODING 45712
SWIDTH 666 0
DWIDTH 12 0
BBX 11 10 0 1
BITMAP
6000
6000
6000
6000
7FC0
7FC0
0000
0000
FFE0
FFE0
ENDCHAR
STARTCHAR U+B291
ENCODING 45713
SWIDTH 666 0
DWIDTH 12 0
BBX 11 11 0 0
BITMAP
6000
6000
7FC0
7FC0
0000
FFE0
0000
7FC0
7FC0
00C0
00C0
ENDCHAR
STARTCHAR U+B294
ENCODING 45716
SWIDTH 666 0
DWIDTH 12 0
BBX 11 11 0 0
BITMAP
6000
6000
7FC0
7FC0
0000
FFE0
FFE0
0000
6000
7FC0
7FC0
ENDCHAR
STARTCHAR U+B297
ENCODING 45719
SWIDTH 666 0
DWIDTH 12 0
BBX 11 11 0 0
BITMAP
6000
6000
7FC0
7FC0
0000
FFE0
0000
7FC0
6000
7FC0
7FC0
ENDCHAR
STARTCHAR U+B298
ENCODING 45720
SWIDTH 666 0
DWIDTH 12 0
BBX 11 11 0 0
BITMAP
6000
6000
7FC0
0000
FFE0
0000
7FC0
07C0
7800
7FC0
7FC0
ENDCHAR
STARTCHAR U+B299
ENCODING 45721
SWIDTH 666 0
DWIDTH 12 0
BBX 11 11 0 0
BITMAP
6000
6000
7FC0
0000
FFE0
0000
7BC0
1BC0
60C0
78C0
78C0
ENDCHAR
STARTCHAR U+B29A
ENCODING 45722
SWIDTH 666 0
DWIDTH 12 0
BBX 11 11 0 0
BITMAP
6000
6000
7FC0
0000
FFE0
0000
7BC0
1AC0
62C0
7BC0
7BC0
ENDCHAR
STARTCHAR U+B2A0
ENCODING 45728
SWIDTH 666 0
DWIDTH 12 0
BBX 11 11 0 0
BITMAP
6000
6000
7FC0
7FC0
0000
FFE0
0000
7FC0
60C0
7FC0
7FC0
ENDCHAR
STARTCHAR U+B2A1
ENCODING 45729
SWIDTH 666 0
DWIDTH 12 0
BBX 11 11 0 0
BITMAP
6000
6000
7FC0
7FC0
0000
FFE0
60C0
7FC0
60C0
7FC0
7FC0
ENDCHAR
STARTCHAR U+B2A3
ENCODING 45731
SWIDTH 666 0
DWIDTH 12 0
BBX 11 11 0 0
BITMAP
6000
6000
7FC0
7FC0
0000
FFE0
0000
0E00
1F00
7BC0
71C0
ENDCHAR
STARTCHAR U+B2A5
ENCODING 45733
SWIDTH 666 0
DWIDTH 12 0
BBX 11 11 0 0
BITMAP
6000
6000
7FC0
7FC0
0000
FFE0
0000
3F80
60C0
7FC0
3F80
ENDCHAR
STARTCHAR U+B2A6
ENCODING 45734
SWIDTH 666 0
DWIDTH 12 0
BBX 11 11 0 0
BITMAP
6000
6000
7FC0
7FC0
0000
FFE0
0000
7FC0
1F00
7BC0
71C0
ENDCHAR
STARTCHAR U+B2A7
ENCODING 45735
SWIDTH 666 0
DWIDTH 12 0
BBX 11 11 0 0
BITMAP
6000
6000
7FC0
7FC0
0000
FFE0
0600
7FC0
1F00
7BC0
71C0
ENDCHAR
STARTCHAR U+B2AA
ENCODING 45738
SWIDTH 666 0
DWIDTH 12 0
BBX 11 11 0 0
BITMAP
6000
6000
7FC0
7FC0
0000
FFE0
0000
7FC0
3180
7FC0
7FC0
ENDCHAR
STARTCHAR U+B2AB
ENCODING 45739
SWIDTH 666 0
DWIDTH 12 0
BBX 11 11 0 0
BITMAP
6000
6000
7FC0
7FC0
0000
FFE0
0600
7FC0
3180
3F80
1F00
ENDCHAR
STARTCHAR U+B2AC
ENCODING 45740
SWIDTH 666 0
DWIDTH 12 0
BBX 10 11 0 0
BITMAP
C0C0
C0C0
C0C0
C0C0
FEC0
FEC0
00C0
00C0
FFC0
FFC0
00C0
ENDCHAR
STARTCHAR U+B2B0
ENCODING 45744
SWIDTH 666 0
DWIDTH 12 0
BBX 10 11 0 0
BITMAP
60C0
60C0
7EC0
7EC0
00C0
FFC0
00C0
6000
6000
7FC0
7FC0
ENDCHAR
STARTCHAR U+B2B4
ENCODING 45748
SWIDTH 666 0
DWIDTH 12 0
BBX 10 11 0 0
BITMAP
60C0
60C0
7EC0
00C0
FFC0
0000
7FC0
07C0
7800
7FC0
7FC0
ENDCHAR
STARTCHAR U+B2BC
ENCODING 45756
SWIDTH 666 0
DWIDTH 12 0
BBX 10 11 0 0
BITMAP
60C0
60C0
7EC0
7EC0
00C0
FFC0
0000
7FC0
60C0
7FC0
7FC0
ENDCHAR
STARTCHAR U+B2BF
ENCODING 45759
SWIDTH 666 0
DWIDTH 12 0
BBX 10 11 0 0
BITMAP
60C0
60C0
7EC0
7EC0
00C0
FFC0
00C0
0400
1F00
7BC0
60C0
ENDCHAR
STARTCHAR U+B2C1
ENCODING 45761
SWIDTH 666 0
DWIDTH 12 0
BBX 10 11 0 0
BITMAP
60C0
60C0
7EC0
7EC0
00C0
FFC0
0000
3F80
60C0
7FC0
3F80
ENDCHAR
STARTCHAR U+B2C8
ENCODING 45768
SWIDTH 666 0
DWIDTH 12 0
BBX 10 11 0 0
BITMAP
C0C0
C0C0
C0C0
C0C0
C0C0
C0C0
C0C0
C0C0
FEC0
FEC0
00C0
ENDCHAR
STARTCHAR U+B2C9
ENCODING 45769
SWIDTH 666 0
DWIDTH 12 0
BBX 10 11 0 0
BITMAP
C0C0
C0C0
C0C0
C0C0
FEC0
FEC0
0000
7FC0
7FC0
00C0
00C0
ENDCHAR
STARTCHAR U+B2CC
ENCODING 45772
SWIDTH 666 0
DWIDTH 12 0
BBX 10 11 0 0
BITMAP
C0C0
C0C0
C0C0
C0C0
FEC0
FEC0
00C0
6000
6000
7FC0
7FC0
ENDCHAR
STARTCHAR U+B2CF
ENCODING 45775
SWIDTH 666 0
DWIDTH 12 0
BBX 10 11 0 0
BITMAP
C0C0
C0C0
C0C0
C0C0
FEC0
FEC0
0000
7FC0
6000
7FC0
7FC0
ENDCHAR
STARTCHAR U+B2D0
ENCODING 45776
SWIDTH 666 0
DWIDTH 12 0
BBX 10 11 0 0
BITMAP
C0C0
C0C0
C0C0
FEC0
FEC0
0000
7FC0
07C0
7800
7FC0
7FC0
ENDCHAR
STARTCHAR U+B2D2
ENCODING 45778
SWIDTH 666 0
DWIDTH 12 0
BBX 10 11 0 0
BITMAP
C0C0
C0C0
C0C0
FEC0
FEC0
0000
7BC0
1AC0
62C0
7BC0
7BC0
ENDCHAR
STARTCHAR U+B2D8
ENCODING 45784
SWIDTH 666 0
DWIDTH 12 0
BBX 10 11 0 0
BITMAP
C0C0
C0C0
C0C0
C0C0
FEC0
FEC0
0000
7FC0
60C0
7FC0
7FC0
ENDCHAR
STARTCHAR U+B2D9
ENCODING 45785
SWIDTH 666 0
DWIDTH 12 0
BBX 10 11 0 0
BITMAP
C0C0
C0C0
C0C0
C0C0
FEC0
FEC0
60C0
7FC0
60C0
7FC0
7FC0
ENDCHAR
STARTCHAR U+B2DB
ENCODING 45787
SWIDTH 666 0
DWIDTH 12 0
BBX 10 11 0 0
BITMAP
C0C0
C0C0
C0C0
C0C0
FEC0
FEC0
00C0
0E00
1F00
7BC0
71C0
ENDCHAR
STARTCHAR U+B2DD
ENCODING 45789
SWIDTH 666 0
DWIDTH 12 0
BBX 10 11 0 0
BITMAP
C0C0
C0C0
C0C0
C0C0
FEC0
FEC0
0000
3F80
60C0
7FC0
3F80
ENDCHAR
STARTCHAR U+B2DE
ENCODING 45790
SWIDTH 666 0
DWIDTH 12 0
BBX 10 11 0 0
BITMAP
C0C0
C0C0
C0C0
C0C0
FEC0
FEC0
0000
7FC0
1F00
7BC0
71C0
ENDCHAR
STARTCHAR U+B2E0
ENCODING 45792
SWIDTH 666 0
DWIDTH 12 0
BBX 10 11 0 0
BITMAP
C0C0
C0C0
C0C0
C0C0
FEC0
FEC0
0000
7FC0
00C0
7FC0
00C0
ENDCHAR
STARTCHAR U+B2E2
ENCODING 45794
SWIDTH 666 0
DWIDTH 12 0
BBX 10 11 0 0
BITMAP
C0C0
C0C0
C0C0
C0C0
FEC0
FEC0
0000
7FC0
3180
7FC0
7FC0
ENDCHAR
STARTCHAR U+B2E4
ENCODING 45796
SWIDTH 666 0
DWIDTH 12 0
BBX 11 11 0 0
BITMAP
FEC0
FEC0
C0C0
C0C0
C0E0
C0E0
C0C0
C0C0
FEC0
FEC0
00C0
ENDCHAR
STARTCHAR U+B2E5
ENCODING 45797
SWIDTH 666 0
DWIDTH 12 0
BBX 11 11 0 0
BITMAP
FCC0
FCC0
C0E0
C0E0
FCC0
FCC0
0000
7FC0
7FC0
00C0
00C0
ENDCHAR
STARTCHAR U+B2E6
ENCODING 45798
SWIDTH 666 0
DWIDTH 12 0
BBX 11 11 0 0
BITMAP
FCC0
FCC0
C0E0
C0E0
FCC0
FCC0
0000
7FC0
7FC0
0CC0
0CC0
ENDCHAR
STARTCHAR U+B2E8
ENCODING 45800
SWIDTH 666 0
DWIDTH 12 0
BBX 11 11 0 0
BITMAP
FCC0
FCC0
C0E0
C0E0
FCC0
FCC0
00C0
6000
6000
7FC0
7FC0
ENDCHAR
STARTCHAR U+B2EB
ENCODING 45803
SWIDTH 666 0
DWIDTH 12 0
BBX 11 11 0 0
BITMAP
FCC0
FCC0
C0E0
C0E0
FCC0
FCC0
0000
7FC0
6000
7FC0
7FC0
ENDCHAR
STARTCHAR U+B2EC
ENCODING 45804
SWIDTH 666 0
DWIDTH 12 0
BBX 11 11 0 0
BITMAP
FCC0
FCC0
C0E0
FCE0
FCC0
0000
7FC0
07C0
7800
7FC0
7FC0
ENDCHAR
STARTCHAR U+B2ED
ENCODING 45805
SWIDTH 666 0
DWIDTH 12 0
BBX 11 11 0 0
BITMAP
FCC0
FCC0
C0E0
FCE0
FCC0
0000
7BC0
1BC0
60C0
78C0
78C0
ENDCHAR
STARTCHAR U+B2EE
ENCODING 45806
SWIDTH 666 0
DWIDTH 12 0
BBX 11 11 0 0
BITMAP
FCC0
FCC0
C0E0
FCE0
FCC0
0000
7BC0
1AC0
62C0
7BC0
7BC0
ENDCHAR
STARTCHAR U+B2EF
ENCODING 45807
SWIDTH 666 0
DWIDTH 12 0
BBX 11 11 0 0
BITMAP
FCC0
FCC0
C0E0
FCE0
FCC0
0000
7AC0
1BC0
62C0
7BC0
7BC0
ENDCHAR
STARTCHAR U+B2F3
ENCODING 45811
SWIDTH 666 0
DWIDTH 12 0
BBX 11 11 0 0
BITMAP
FCC0
FCC0
C0E0
FCE0
FCC0
0300
7FC0
1B80
66C0
7FC0
7B80
ENDCHAR
STARTCHAR U+B2F4
ENCODING 45812
SWIDTH 666 0
DWIDTH 12 0
BBX 11 11 0 0
BITMAP
FCC0
FCC0
C0E0
C0E0
FCC0
FCC0
0000
7FC0
60C0
7FC0
7FC0
ENDCHAR
STARTCHAR U+B2F5
ENCODING 45813
SWIDTH 666 0
DWIDTH 12 0
BBX 11 11 0 0
BITMAP
FCC0
FCC0
C0E0
C0E0
FCC0
FCC0
60C0
7FC0
60C0
7FC0
7FC0
ENDCHAR
STARTCHAR U+B2F7
ENCODING 45815
SWIDTH 666 0
DWIDTH 12 0
BBX 11 11 0 0
BITMAP
FCC0
FCC0
C0E0
C0E0
FCC0
FCC0
00C0
0E00
1F00
7BC0
71C0
ENDCHAR
STARTCHAR U+B2F8
ENCODING 45816
SWIDTH 666 0
DWIDTH 12 0
BBX 11 11 0 0
BITMAP
FCC0
FCC0
C0E0
C0E0
FCC0
FCC0
0000
1100
3B80
7FC0
6EC0
ENDCHAR
STARTCHAR U+B2F9
ENCODING 45817
SWIDTH 666 0
DWIDTH 12 0
BBX 11 11 0 0
BITMAP
FCC0
FCC0
C0E0
C0E0
FCC0
FCC0
0000
3F80
60C0
7FC0
3F80
ENDCHAR
STARTCHAR U+B2FA
ENCODING 45818
SWIDTH 666 0
DWIDTH 12 0
BBX 11 11 0 0
BITMAP
FCC0
FCC0
C0E0
C0E0
FCC0
FCC0
0000
7FC0
1F00
7BC0
71C0
ENDCHAR
STARTCHAR U+B2FB
ENCODING 45819
SWIDTH 666 0
DWIDTH 12 0
BBX 11 11 0 0
BITMAP
FCC0
FCC0
C0E0
C0E0
FCC0
FCC0
0600
7FC0
1F00
7BC0
71C0
ENDCHAR
STARTCHAR U+B2FD
ENCODING 45821
SWIDTH 666 0
DWIDTH 12 0
BBX 11 11 0 0
BITMAP
FCC0
FCC0
C0E0
FCE0
FCC0
7FC0
6000
7FC0
6000
7FC0
7FC0
ENDCHAR
STARTCHAR U+B2FF
ENCODING 45823
SWIDTH 666 0
DWIDTH 12 0
BBX 11 11 0 0
BITMAP
FCC0
FCC0
C0E0
C0E0
FCC0
FCC0
0600
7FC0
3180
3F80
1F00
ENDCHAR
STARTCHAR U+B300
ENCODING 45824
SWIDTH 666 0
DWIDTH 12 0
BBX 10 11 0 0
BITMAP
FAC0
FAC0
C2C0
C2C0
C3C0
C3C0
C2C0
C2C0
FAC0
FAC0
02C0
ENDCHAR
STARTCHAR U+B301
ENCODING 45825
SWIDTH 666 0
DWIDTH 12 0
BBX 10 11 0 0
BITMAP
FAC0
FAC0
C3C0
C3C0
FAC0
FAC0
0000
7FC0
7FC0
00C0
00C0
ENDCHAR
STARTCHAR U+B304
ENCODING 45828
SWIDTH 666 0
DWIDTH 12 0
BBX 10 11 0 0
BITMAP
FAC0
FAC0
C3C0
C3C0
FAC0
FAC0
02C0
6000
6000
7FC0
7FC0
ENDCHAR
STARTCHAR U+B308
ENCODING 45832
SWIDTH 666 0
DWIDTH 12 0
BBX 10 11 0 0
BITMAP
FAC0
FAC0
C3C0
FBC0
FAC0
0000
7FC0
07C0
7800
7FC0
7FC0
ENDCHAR
STARTCHAR U+B310
ENCODING 45840
SWIDTH 666 0
DWIDTH 12 0
BBX 10 11 0 0
BITMAP
FAC0
FAC0
C3C0
C3C0
FAC0
FAC0
0000
7FC0
60C0
7FC0
7FC0
ENDCHAR
STARTCHAR U+B311
ENCODING 45841
SWIDTH 666 0
DWIDTH 12 0
BBX 10 11 0 0
BITMAP
FAC0
FAC0
C3C0
FBC0
FAC0
0000
60C0
7FC0
60C0
7FC0
7FC0
ENDCHAR
STARTCHAR U+B313
ENCODING 45843
SWIDTH 666 0
DWIDTH 12 0
BBX 10 11 0 0
BITMAP
FAC0
FAC0
C3C0
C3C0
FAC0
FAC0
0400
0E00
1F00
7BC0
71C0
ENDCHAR
STARTCHAR U+B314
ENCODING 45844
SWIDTH 666 0
DWIDTH 12 0
BBX 10 11 0 0
BITMAP
FAC0
FAC0
C3C0
C3C0
FAC0
FAC0
0000
1100
3B80
7FC0
6EC0
ENDCHAR
STARTCHAR U+B315
ENCODING 45845
SWIDTH 666 0
DWIDTH 12 0
BBX 10 11 0 0
BITMAP
FAC0
FAC0
C3C0
C3C0
FAC0
FAC0
0000
3F80
60C0
7FC0
3F80
ENDCHAR
STARTCHAR U+B316
ENCODING 45846
SWIDTH 666 0
DWIDTH 12 0
BBX 10 11 0 0
BITMAP
FAC0
FAC0
C3C0
C3C0
FAC0
FAC0
0000
7FC0
1F00
7BC0
71C0
ENDCHAR
STARTCHAR U+B31C
ENCODING 45852
SWIDTH 666 0
DWIDTH 12 0
BBX 11 11 0 0
BITMAP
FEC0
FEC0
C0E0
C0E0
C0C0
C0C0
C0E0
C0E0
FEC0
FEC0
00C0
ENDCHAR
STARTCHAR U+B320
ENCODING 45856
SWIDTH 666 0
DWIDTH 12 0
BBX 11 11 0 0
BITMAP
FCC0
FCE0
C0E0
C0C0
FCE0
FCE0
00C0
6000
6000
7FC0
7FC0
ENDCHAR
STARTCHAR U+B331
ENCODING 45873
SWIDTH 666 0
DWIDTH 12 0
BBX 11 11 0 0
BITMAP
FCC0
FCE0
C0C0
C0E0
FCE0
FCC0
0000
3F80
60C0
7FC0
3F80
ENDCHAR
STARTCHAR U+B354
ENCODING 45908
SWIDTH 666 0
DWIDTH 12 0
BBX 10 11 0 0
BITMAP
FEC0
FEC0
C0C0
C0C0
C7C0
C7C0
C0C0
C0C0
FEC0
FEC0
00C0
ENDCHAR
STARTCHAR U+B355
ENCODING 45909
SWIDTH 666 0
DWIDTH 12 0
BBX 10 11 0 0
BITMAP
FCC0
FCC0
C3C0
C3C0
FCC0
FCC0
0000
7FC0
7FC0
00C0
00C0
ENDCHAR
STARTCHAR U+B356
ENCODING 45910
SWIDTH 666 0
DWIDTH 12 0
BBX 10 11 0 0
BITMAP
FCC0
FCC0
C3C0
C3C0
FCC0
FCC0
0000
7FC0
7FC0
0CC0
0CC0
ENDCHAR
STARTCHAR U+B358
ENCODING 45912
SWIDTH 666 0
DWIDTH 12 0
BBX 10 11 0 0
BITMAP
FCC0
FCC0
C3C0
C3C0
FCC0
FCC0
00C0
6000
6000
7FC0
7FC0
ENDCHAR
STARTCHAR U+B35B
ENCODING 45915
SWIDTH 666 0
DWIDTH 12 0
BBX 10 11 0 0
BITMAP
FCC0
FCC0
C3C0
C3C0
FCC0
FCC0
0000
7FC0
6000
7FC0
7FC0
ENDCHAR
STARTCHAR U+B35C
ENCODING 45916
SWIDTH 666 0
DWIDTH 12 0
BBX 10 11 0 0
BITMAP
FCC0
FCC0
C3C0
FFC0
FCC0
0000
7FC0
07C0
7800
7FC0
7FC0
ENDCHAR
STARTCHAR U+B35E
ENCODING 45918
SWIDTH 666 0
DWIDTH 12 0
BBX 10 11 0 0
BITMAP
FCC0
FCC0
C3C0
FFC0
FCC0
0000
7BC0
1AC0
62C0
7BC0
7BC0
ENDCHAR
STARTCHAR U+B35F
ENCODING 45919
SWIDTH 666 0
DWIDTH 12 0
BBX 10 11 0 0
BITMAP
FCC0
FCC0
C3C0
FFC0
FCC0
0000
7AC0
1BC0
62C0
7BC0
7BC0
ENDCHAR
STARTCHAR U+B364
ENCODING 45924
SWIDTH 666 0
DWIDTH 12 0
BBX 10 11 0 0
BITMAP
FCC0
FCC0
C3C0
C3C0
FCC0
FCC0
0000
7FC0
60C0
7FC0
7FC0
ENDCHAR
STARTCHAR U+B365
ENCODING 45925
SWIDTH 666 0
DWIDTH 12 0
BBX 10 11 0 0
BITMAP
FCC0
FCC0
C3C0
C3C0
FCC0
FCC0
60C0
7FC0
60C0
7FC0
7FC0
ENDCHAR
STARTCHAR U+B367
ENCODING 45927
SWIDTH 666 0
DWIDTH 12 0
BBX 10 11 0 0
BITMAP
FCC0
FCC0
C3C0
C3C0
FCC0
FCC0
00C0
0E00
1F00
7BC0
71C0
ENDCHAR
STARTCHAR U+B369
ENCODING 45929
SWIDTH 666 0
DWIDTH 12 0
BBX 10 11 0 0
BITMAP
FCC0
FCC0
C3C0
C3C0
FCC0
FCC0
0000
3F80
60C0
7FC0
3F80
ENDCHAR
STARTCHAR U+B36B
ENCODING 45931
SWIDTH 666 0
DWIDTH 12 0
BBX 10 11 0 0
BITMAP
FCC0
FCC0
C3C0
C3C0
FCC0
FCC0
0600
7FC0
1F00
7BC0
71C0
ENDCHAR
STARTCHAR U+B36E
ENCODING 45934
SWIDTH 666 0
DWIDTH 12 0
BBX 10 11 0 0
BITMAP
FCC0
FCC0
C3C0
C3C0
FCC0
FCC0
0000
7FC0
3180
7FC0
7FC0
ENDCHAR
STARTCHAR U+B36F
ENCODING 45935
SWIDTH 666 0
DWIDTH 12 0
BBX 10 11 0 0
BITMAP
FCC0
FCC0
C3C0
C3C0
FCC0
FCC0
0600
7FC0
3180
3F80
1F00
ENDCHAR
STARTCHAR U+B370
ENCODING 45936
SWIDTH 666 0
DWIDTH 12 0
BBX 10 11 0 0
BITMAP
FAC0
FAC0
C2C0
C2C0
CEC0
CEC0
C2C0
C2C0
FAC0
FAC0
02C0
ENDCHAR
STARTCHAR U+B371
ENCODING 45937
SWIDTH 666 0
DWIDTH 12 0
BBX 10 11 0 0
BITMAP
FAC0
FAC0
C6C0
C6C0
FAC0
FAC0
0000
7FC0
7FC0
00C0
00C0
ENDCHAR
STARTCHAR U+B374
ENCODING 45940
SWIDTH 666 0
DWIDTH 12 0
BBX 10 11 0 0
BITMAP
FAC0
FAC0
C6C0
C6C0
FAC0
FAC0
02C0
6000
6000
7FC0
7FC0
ENDCHAR
STARTCHAR U+B378
ENCODING 45944
SWIDTH 666 0
DWIDTH 12 0
BBX 10 11 0 0
BITMAP
FAC0
FAC0
C6C0
FAC0
FAC0
0000
7FC0
07C0
7800
7FC0
7FC0
ENDCHAR
STARTCHAR U+B380
ENCODING 45952
SWIDTH 666 0
DWIDTH 12 0
BBX 10 11 0 0
BITMAP
FAC0
FAC0
C6C0
C6C0
FAC0
FAC0
0000
7FC0
60C0
7FC0
7FC0
ENDCHAR
STARTCHAR U+B381
ENCODING 45953
SWIDTH 666 0
DWIDTH 12 0
BBX 10 11 0 0
BITMAP
FAC0
FAC0
C6C0
C6C0
FAC0
FAC0
60C0
7FC0
60C0
7FC0
7FC0
ENDCHAR
STARTCHAR U+B383
ENCODING 45955
SWIDTH 666 0
DWIDTH 12 0
BBX 10 11 0 0
BITMAP
FAC0
FAC0
C6C0
C6C0
FAC0
FAC0
0400
0E00
1F00
7BC0
71C0
ENDCHAR
STARTCHAR U+B384
ENCODING 45956
SWIDTH 666 0
DWIDTH 12 0
BBX 10 11 0 0
BITMAP
FAC0
FAC0
C6C0
C6C0
FAC0
FAC0
0000
1100
3B80
7FC0
6EC0
ENDCHAR
STARTCHAR U+B385
ENCODING 45957
SWIDTH 666 0
DWIDTH 12 0
BBX 10 11 0 0
BITMAP
FAC0
FAC0
C6C0
C6C0
FAC0
FAC0
0000
3F80
60C0
7FC0
3F80
ENDCHAR
STARTCHAR U+B38C
ENCODING 45964
SWIDTH 666 0
DWIDTH 12 0
BBX 10 11 0 0
BITMAP
FEC0
FEC0
C0C0
C3C0
C0C0
C3C0
C3C0
C0C0
FEC0
FEC0
00C0
ENDCHAR
STARTCHAR U+B390
ENCODING 45968
SWIDTH 666 0
DWIDTH 12 0
BBX 10 11 0 0
BITMAP
F8C0
FBC0
C3C0
C0C0
FBC0
FBC0
00C0
6000
6000
7FC0
7FC0
ENDCHAR
STARTCHAR U+B394
ENCODING 45972
SWIDTH 666 0
DWIDTH 12 0
BBX 10 11 0 0
BITMAP
F8C0
FBC0
C0C0
FBC0
F8C0
0000
7FC0
07C0
7800
7FC0
7FC0
ENDCHAR
STARTCHAR U+B3A0
ENCODING 45984
SWIDTH 666 0
DWIDTH 12 0
BBX 10 11 0 0
BITMAP
F8C0
FBC0
C0C0
C3C0
FBC0
F8C0
0000
1B00
3B80
7FC0
6EC0
ENDCHAR
STARTCHAR U+B3A1
ENCODING 45985
SWIDTH 666 0
DWIDTH 12 0
BBX 10 11 0 0
BITMAP
F8C0
FBC0
C0C0
C3C0
FBC0
F8C0
0000
3F80
60C0
7FC0
3F80
ENDCHAR
STARTCHAR U+B3A8
ENCODING 45992
SWIDTH 666 0
DWIDTH 12 0
BBX 10 11 0 0
BITMAP
FAC0
FAC0
C2C0
CEC0
C2C0
CEC0
CEC0
C2C0
FAC0
FAC0
02C0
ENDCHAR
STARTCHAR U+B3AC
ENCODING 45996
SWIDTH 666 0
DWIDTH 12 0
BBX 10 11 0 0
BITMAP
FAC0
FAC0
C6C0
C2C0
FEC0
FAC0
02C0
6000
6000
7FC0
7FC0
ENDCHAR
STARTCHAR U+B3C4
ENCODING 46020
SWIDTH 666 0
DWIDTH 12 0
BBX 11 10 0 1
BITMAP
7FC0
7FC0
6000
6000
7FC0
7FC0
0600
0600
FFE0
FFE0
ENDCHAR
STARTCHAR U+B3C5
ENCODING 46021
SWIDTH 666 0
DWIDTH 12 0
BBX 11 11 0 0
BITMAP
7FC0
6000
7FC0
7FC0
0600
FFE0
0000
7FC0
7FC0
00C0
00C0
ENDCHAR
STARTCHAR U+B3C8
ENCODING 46024
SWIDTH 666 0
DWIDTH 12 0
BBX 11 11 0 0
BITMAP
7FC0
6000
7FC0
7FC0
0600
FFE0
FFE0
0000
6000
7FC0
7FC0
ENDCHAR
STARTCHAR U+B3CB
ENCODING 46027
SWIDTH 666 0
DWIDTH 12 0
BBX 11 11 0 0
BITMAP
7FC0
6000
7FC0
7FC0
0600
FFE0
0000
7FC0
6000
7FC0
7FC0
ENDCHAR
STARTCHAR U+B3CC
ENCODING 46028
SWIDTH 666 0
DWIDTH 12 0
BBX 11 11 0 0
BITMAP
7FC0
6000
7FC0
0600
FFE0
0000
7FC0
07C0
7800
7FC0
7FC0
ENDCHAR
STARTCHAR U+B3CE
ENCODING 46030
SWIDTH 666 0
DWIDTH 12 0
BBX 11 11 0 0
BITMAP
7FC0
6000
7FC0
0600
FFE0
0000
7BC0
1AC0
62C0
7BC0
7BC0
ENDCHAR
STARTCHAR U+B3D0
ENCODING 46032
SWIDTH 666 0
DWIDTH 12 0
BBX 11 11 0 0
BITMAP
7FC0
6000
7FC0
0600
FFE0
0000
7980
1980
6180
7BC0
7AC0
ENDCHAR
STARTCHAR U+B3D4
ENCODING 46036
SWIDTH 666 0
DWIDTH 12 0
BBX 11 11 0 0
BITMAP
7FC0
6000
7FC0
7FC0
0600
FFE0
0000
7FC0
60C0
7FC0
7FC0
ENDCHAR
STARTCHAR U+B3D5
ENCODING 46037
SWIDTH 666 0
DWIDTH 12 0
BBX 11 11 0 0
BITMAP
7FC0
6000
7FC0
7FC0
0600
FFE0
60C0
7FC0
60C0
7FC0
7FC0
ENDCHAR
STARTCHAR U+B3D7
ENCODING 46039
SWIDTH 666 0
DWIDTH 12 0
BBX 11 11 0 0
BITMAP
7FC0
6000
7FC0
7FC0
0600
FFE0
0000
0E00
1F00
7BC0
71C0
ENDCHAR
STARTCHAR U+B3D9
ENCODING 46041
SWIDTH 666 0
DWIDTH 12 0
BBX 11 11 0 0
BITMAP
7FC0
6000
7FC0
7FC0
0600
FFE0
0000
3F80
60C0
7FC0
3F80
ENDCHAR
STARTCHAR U+B3DB
ENCODING 46043
SWIDTH 666 0
DWIDTH 12 0
BBX 11 11 0 0
BITMAP
7FC0
6000
7FC0
7FC0
0600
FFE0
0400
7FC0
1F00
7BC0
71C0
ENDCHAR
STARTCHAR U+B3DD
ENCODING 46045
SWIDTH 666 0
DWIDTH 12 0
BBX 11 11 0 0
BITMAP
7FC0
6000
7FC0
7FC0
0600
FFE0
6000
7FC0
6000
7FC0
7FC0
ENDCHAR
STARTCHAR U+B3E0
ENCODING 46048
SWIDTH 666 0
DWIDTH 12 0
BBX 11 11 0 0
BITMAP
FEC0
FEC0
C0C0
C0C0
FEE0
FEE0
18C0
18C0
FFC0
FFC0
00C0
ENDCHAR
STARTCHAR U+B3E4
ENCODING 46052
SWIDTH 666 0
DWIDTH 12 0
BBX 11 11 0 0
BITMAP
FEC0
C0C0
FEE0
FEE0
18C0
FFC0
00C0
6000
6000
7FC0
7FC0
ENDCHAR
STARTCHAR U+B3E8
ENCODING 46056
SWIDTH 666 0
DWIDTH 12 0
BBX 11 11 0 0
BITMAP
FEC0
C0C0
FEE0
18C0
FFC0
0000
7FC0
07C0
7800
7FC0
7FC0
ENDCHAR
STARTCHAR U+B3FC
ENCODING 46076
SWIDTH 666 0
DWIDTH 12 0
BBX 10 11 0 0
BITMAP
FAC0
FAC0
C2C0
C2C0
FBC0
FBC0
32C0
32C0
FEC0
FEC0
02C0
ENDCHAR
STARTCHAR U+B40F
ENCODING 46095
SWIDTH 666 0
DWIDTH 12 0
BBX 10 11 0 0
BITMAP
FAC0
C2C0
FBC0
FBC0
32C0
FEC0
0000
0E00
1F00
7BC0
71C0
ENDCHAR
STARTCHAR U+B410
ENCODING 46096
SWIDTH 666 0
DWIDTH 12 0
BBX 10 11 0 0
BITMAP
FAC0
C2C0
FBC0
FBC0
32C0
FEC0
0000
1100
3B80
7FC0
6EC0
ENDCHAR
STARTCHAR U+B418
ENCODING 46104
SWIDTH 666 0
DWIDTH 12 0
BBX 10 11 0 0
BITMAP
FEC0
FEC0
C0C0
C0C0
FEC0
FEC0
18C0
18C0
FFC0
FFC0
00C0
ENDCHAR
STARTCHAR U+B41C
ENCODING 46108
SWIDTH 666 0
DWIDTH 12 0
BBX 10 11 0 0
BITMAP
7EC0
60C0
7EC0
7EC0
18C0
FFC0
00C0
6000
6000
7FC0
7FC0
ENDCHAR
STARTCHAR U+B420
ENCODING 46112
SWIDTH 666 0
DWIDTH 12 0
BBX 10 11 0 0
BITMAP
7EC0
60C0
7EC0
18C0
FFC0
0000
7FC0
07C0
7800
7FC0
7FC0
ENDCHAR
STARTCHAR U+B428
ENCODING 46120
SWIDTH 666 0
DWIDTH 12 0
BBX 10 11 0 0
BITMAP
7EC0
60C0
7EC0
7EC0
18C0
FFC0
0000
7FC0
60C0
7FC0
7FC0
ENDCHAR
STARTCHAR U+B429
ENCODING 46121
SWIDTH 666 0
DWIDTH 12 0
BBX 10 11 0 0
BITMAP
7EC0
60C0
7EC0
7EC0
18C0
FFC0
60C0
7FC0
60C0
7FC0
7FC0
ENDCHAR
STARTCHAR U+B42B
ENCODING 46123
SWIDTH 666 0
DWIDTH 12 0
BBX 10 11 0 0
BITMAP
7EC0
60C0
7EC0
7EC0
18C0
FFC0
00C0
0E00
1F00
7BC0
71C0
ENDCHAR
STARTCHAR U+B42C
ENCODING 46124
SWIDTH 666 0
DWIDTH 12 0
BBX 10 11 0 0
BITMAP
7EC0
60C0
7EC0
7EC0
18C0
FFC0
0000
1100
3B80
7FC0
6EC0
ENDCHAR
STARTCHAR U+B42D
ENCODING 46125
SWIDTH 666 0
DWIDTH 12 0
BBX 10 11 0 0
BITMAP
7EC0
60C0
7EC0
7EC0
18C0
FFC0
0000
3F80
60C0
7FC0
3F80
ENDCHAR
STARTCHAR U+B434
ENCODING 46132
SWIDTH 666 0
DWIDTH 12 0
BBX 11 10 0 1
BITMAP
7FC0
7FC0
6000
6000
7FC0
7FC0
3180
3180
FFE0
FFE0
ENDCHAR
STARTCHAR U+B450
ENCODING 46160
SWIDTH 666 0
DWIDTH 12 0
BBX 11 11 0 0
BITMAP
7FC0
7FC0
6000
7FC0
7FC0
0000
FFE0
FFE0
0600
0600
0600
ENDCHAR
STARTCHAR U+B451
ENCODING 46161
SWIDTH 666 0
DWIDTH 12 0
BBX 11 11 0 0
BITMAP
7FC0
6000
7FC0
7FC0
0000
FFE0
0600
7FC0
7FC0
00C0
00C0
ENDCHAR
STARTCHAR U+B454
ENCODING 46164
SWIDTH 666 0
DWIDTH 12 0
BBX 11 11 0 0
BITMAP
7FC0
6000
7FC0
7FC0
0000
FFE0
0600
6600
6000
7FC0
7FC0
ENDCHAR
STARTCHAR U+B457
ENCODING 46167
SWIDTH 666 0
DWIDTH 12 0
BBX 11 11 0 0
BITMAP
7FC0
6000
7FC0
7FC0
0000
FFE0
0600
7FC0
6000
7FC0
7FC0
ENDCHAR
STARTCHAR U+B458
ENCODING 46168
SWIDTH 666 0
DWIDTH 12 0
BBX 11 11 0 0
BITMAP
7FC0
6000
7FC0
0000
FFE0
0600
7FC0
07C0
7800
7FC0
7FC0
ENDCHAR
STARTCHAR U+B45A
ENCODING 46170
SWIDTH 666 0
DWIDTH 12 0
BBX 11 11 0 0
BITMAP
7FC0
6000
7FC0
0000
FFE0
0600
7BC0
1AC0
62C0
7BC0
7BC0
ENDCHAR
STARTCHAR U+B460
ENCODING 46176
SWIDTH 666 0
DWIDTH 12 0
BBX 11 11 0 0
BITMAP
7FC0
6000
7FC0
7FC0
0000
FFE0
0600
7FC0
60C0
7FC0
7FC0
ENDCHAR
STARTCHAR U+B461
ENCODING 46177
SWIDTH 666 0
DWIDTH 12 0
BBX 11 11 0 0
BITMAP
7FC0
6000
7FC0
7FC0
0000
FFE0
66C0
7FC0
60C0
7FC0
7FC0
ENDCHAR
STARTCHAR U+B463
ENCODING 46179
SWIDTH 666 0
DWIDTH 12 0
BBX 11 11 0 0
BITMAP
7FC0
6000
7FC0
7FC0
0000
FFE0
0600
0E00
1F00
7BC0
71C0
ENDCHAR
STARTCHAR U+B465
ENCODING 46181
SWIDTH 666 0
DWIDTH 12 0
BBX 11 11 0 0
BITMAP
7FC0
6000
7FC0
7FC0
0000
FFE0
0600
3F80
60C0
7FC0
3F80
ENDCHAR
STARTCHAR U+B46C
ENCODING 46188
SWIDTH 666 0
DWIDTH 12 0
BBX 10 11 0 0
BITMAP
FEC0
FEC0
C0C0
FEC0
FEC0
00C0
FEC0
FEC0
33C0
33C0
30C0
ENDCHAR
STARTCHAR U+B480
ENCODING 46208
SWIDTH 666 0
DWIDTH 12 0
BBX 10 11 0 0
BITMAP
FEC0
C0C0
FEC0
00C0
FEC0
33C0
30C0
0100
3B80
7FC0
6EC0
ENDCHAR
STARTCHAR U+B488
ENCODING 46216
SWIDTH 666 0
DWIDTH 12 0
BBX 10 11 0 0
BITMAP
FAC0
FAC0
C2C0
FAC0
FAC0
02C0
FAC0
FAC0
6EC0
6EC0
62C0
ENDCHAR
STARTCHAR U+B499
ENCODING 46233
SWIDTH 666 0
DWIDTH 12 0
BBX 10 11 0 0
BITMAP
FAC0
C2C0
FAC0
02C0
FAC0
36C0
62C0
7FC0
60C0
7FC0
7FC0
ENDCHAR
STARTCHAR U+B49D
ENCODING 46237
SWIDTH 666 0
DWIDTH 12 0
BBX 10 11 0 0
BITMAP
FAC0
C2C0
FAC0
02C0
FAC0
36C0
32C0
3F80
60C0
7FC0
3F80
ENDCHAR
STARTCHAR U+B4A4
ENCODING 46244
SWIDTH 666 0
DWIDTH 12 0
BBX 10 11 0 0
BITMAP
7EC0
7EC0
60C0
7EC0
7EC0
00C0
FFC0
FFC0
18C0
18C0
18C0
ENDCHAR
STARTCHAR U+B4A8
ENCODING 46248
SWIDTH 666 0
DWIDTH 12 0
BBX 10 11 0 0
BITMAP
FEC0
C0C0
FEC0
FEC0
00C0
FFC0
0CC0
6CC0
6000
7FC0
7FC0
ENDCHAR
STARTCHAR U+B4AC
ENCODING 46252
SWIDTH 666 0
DWIDTH 12 0
BBX 10 11 0 0
BITMAP
FEC0
C0C0
FEC0
00C0
FFC0
1800
7FC0
07C0
7800
7FC0
7FC0
ENDCHAR
STARTCHAR U+B4B5
ENCODING 46261
SWIDTH 666 0
DWIDTH 12 0
BBX 10 11 0 0
BITMAP
FEC0
C0C0
FEC0
FEC0
00C0
FFC0
6CC0
7FC0
60C0
7FC0
7FC0
ENDCHAR
STARTCHAR U+B4B7
ENCODING 46263
SWIDTH 666 0
DWIDTH 12 0
BBX 10 11 0 0
BITMAP
FEC0
C0C0
FEC0
FEC0
00C0
FFC0
30C0
0E00
1F00
7BC0
71C0
ENDCHAR
STARTCHAR U+B4B8
ENCODING 46264
SWIDTH 666 0
DWIDTH 12 0
BBX 10 11 0 0
BITMAP
FEC0
C0C0
FEC0
FEC0
00C0
FFC0
1800
0100
3B80
7FC0
6EC0
ENDCHAR
STARTCHAR U+B4B9
ENCODING 46265
SWIDTH 666 0
DWIDTH 12 0
BBX 10 11 0 0
BITMAP
FEC0
C0C0
FEC0
FEC0
00C0
FFC0
1800
3F80
60C0
7FC0
3F80
ENDCHAR
STARTCHAR U+B4C0
ENCODING 46272
SWIDTH 666 0
DWIDTH 12 0
BBX 11 11 0 0
BITMAP
7FC0
7FC0
6000
7FC0
7FC0
0000
FFE0
FFE0
3180
3180
3180
ENDCHAR
STARTCHAR U+B4C4
ENCODING 46276
SWIDTH 666 0
DWIDTH 12 0
BBX 11 11 0 0
BITMAP
7FC0
6000
7FC0
7FC0
0000
FFE0
0D80
6D80
6000
7FC0
7FC0
ENDCHAR
STARTCHAR U+B4C8
ENCODING 46280
SWIDTH 666 0
DWIDTH 12 0
BBX 11 11 0 0
BITMAP
7FC0
6000
7FC0
0000
FFE0
3180
7FC0
07C0
7800
7FC0
7FC0
ENDCHAR
STARTCHAR U+B4D0
ENCODING 46288
SWIDTH 666 0
DWIDTH 12 0
BBX 11 11 0 0
BITMAP
7FC0
6000
7FC0
7FC0
0000
FFE0
3180
7FC0
60C0
7FC0
7FC0
ENDCHAR
STARTCHAR U+B4D5
ENCODING 46293
SWIDTH 666 0
DWIDTH 12 0
BBX 11 11 0 0
BITMAP
7FC0
6000
7FC0
7FC0
0000
FFE0
3180
3F80
60C0
7FC0
3F80
ENDCHAR
STARTCHAR U+B4DC
ENCODING 46300
SWIDTH 666 0
DWIDTH 12 0
BBX 11 10 0 1
BITMAP
7FC0
7FC0
6000
6000
7FC0
7FC0
0000
0000
FFE0
FFE0
ENDCHAR
STARTCHAR U+B4DD
ENCODING 46301
SWIDTH 666 0
DWIDTH 12 0
BBX 11 11 0 0
BITMAP
7FC0
6000
7FC0
7FC0
0000
FFE0
0000
7FC0
7FC0
00C0
00C0
ENDCHAR
STARTCHAR U+B4E0
ENCODING 46304
SWIDTH 666 0
DWIDTH 12 0
BBX 11 11 0 0
BITMAP
7FC0
6000
7FC0
7FC0
0000
FFE0
FFE0
0000
6000
7FC0
7FC0
ENDCHAR
STARTCHAR U+B4E3
ENCODING 46307
SWIDTH 666 0
DWIDTH 12 0
BBX 11 11 0 0
BITMAP
7FC0
6000
7FC0
7FC0
0000
FFE0
0000
7FC0
6000
7FC0
7FC0
ENDCHAR
STARTCHAR U+B4E4
ENCODING 46308
SWIDTH 666 0
DWIDTH 12 0
BBX 11 11 0 0
BITMAP
7FC0
6000
7FC0
0000
FFE0
0000
7FC0
07C0
7800
7FC0
7FC0
ENDCHAR
STARTCHAR U+B4E5
ENCODING 46309
SWIDTH 666 0
DWIDTH 12 0
BBX 11 11 0 0
BITMAP
7FC0
6000
7FC0
0000
FFE0
0000
7BC0
1BC0
60C0
78C0
78C0
ENDCHAR
STARTCHAR U+B4E6
ENCODING 46310
SWIDTH 666 0
DWIDTH 12 0
BBX 11 11 0 0
BITMAP
7FC0
6000
7FC0
0000
FFE0
0000
7BC0
1AC0
62C0
7BC0
7BC0
ENDCHAR
STARTCHAR U+B4E7
ENCODING 46311
SWIDTH 666 0
DWIDTH 12 0
BBX 11 11 0 0
BITMAP
7FC0
6000
7FC0
0000
FFE0
0000
7AC0
1BC0
62C0
7BC0
7BC0
ENDCHAR
STARTCHAR U+B4EC
ENCODING 46316
SWIDTH 666 0
DWIDTH 12 0
BBX 11 11 0 0
BITMAP
7FC0
6000
7FC0
7FC0
0000
FFE0
0000
7FC0
60C0
7FC0
7FC0
ENDCHAR
STARTCHAR U+B4ED
ENCODING 46317
SWIDTH 666 0
DWIDTH 12 0
BBX 11 11 0 0
BITMAP
7FC0
6000
7FC0
7FC0
0000
FFE0
60C0
7FC0
60C0
7FC0
7FC0
ENDCHAR
STARTCHAR U+B4EF
ENCODING 46319
SWIDTH 666 0
DWIDTH 12 0
BBX 11 11 0 0
BITMAP
7FC0
6000
7FC0
7FC0
0000
FFE0
0000
0E00
1F00
7BC0
71C0
ENDCHAR
STARTCHAR U+B4F1
ENCODING 46321
SWIDTH 666 0
DWIDTH 12 0
BBX 11 11 0 0
BITMAP
7FC0
6000
7FC0
7FC0
0000
FFE0
0000
3F80
60C0
7FC0
3F80
ENDCHAR
STARTCHAR U+B4F8
ENCODING 46328
SWIDTH 666 0
DWIDTH 12 0
BBX 10 11 0 0
BITMAP
FEC0
FEC0
C0C0
C0C0
FEC0
FEC0
00C0
00C0
FFC0
FFC0
00C0
ENDCHAR
STARTCHAR U+B4FC
ENCODING 46332
SWIDTH 666 0
DWIDTH 12 0
BBX 10 11 0 0
BITMAP
7EC0
60C0
7EC0
7EC0
00C0
FFC0
00C0
6000
6000
7FC0
7FC0
ENDCHAR
STARTCHAR U+B500
ENCODING 46336
SWIDTH 666 0
DWIDTH 12 0
BBX 10 11 0 0
BITMAP
7EC0
60C0
7EC0
00C0
FFC0
0000
7FC0
07C0
7800
7FC0
7FC0
ENDCHAR
STARTCHAR U+B514
ENCODING 46356
SWIDTH 666 0
DWIDTH 12 0
BBX 10 11 0 0
BITMAP
FEC0
FEC0
C0C0
C0C0
C0C0
C0C0
C0C0
C0C0
FEC0
FEC0
00C0
ENDCHAR
STARTCHAR U+B515
ENCODING 46357
SWIDTH 666 0
DWIDTH 12 0
BBX 10 11 0 0
BITMAP
FCC0
FCC0
C0C0
C0C0
FCC0
FCC0
0000
7FC0
7FC0
00C0
00C0
ENDCHAR
STARTCHAR U+B518
ENCODING 46360
SWIDTH 666 0
DWIDTH 12 0
BBX 10 11 0 0
BITMAP
FCC0
FCC0
C0C0
C0C0
FCC0
FCC0
00C0
6000
6000
7FC0
7FC0
ENDCHAR
STARTCHAR U+B51B
ENCODING 46363
SWIDTH 666 0
DWIDTH 12 0
BBX 10 11 0 0
BITMAP
FCC0
FCC0
C0C0
C0C0
FCC0
FCC0
0000
7FC0
6000
7FC0
7FC0
ENDCHAR
STARTCHAR U+B51C
ENCODING 46364
SWIDTH 666 0
DWIDTH 12 0
BBX 10 11 0 0
BITMAP
FCC0
FCC0
C0C0
FCC0
FCC0
0000
7FC0
07C0
7800
7FC0
7FC0
ENDCHAR
STARTCHAR U+B524
ENCODING 46372
SWIDTH 666 0
DWIDTH 12 0
BBX 10 11 0 0
BITMAP
FCC0
FCC0
C0C0
C0C0
FCC0
FCC0
0000
7FC0
60C0
7FC0
7FC0
ENDCHAR
STARTCHAR U+B525
ENCODING 46373
SWIDTH 666 0
DWIDTH 12 0
BBX 10 11 0 0
BITMAP
FCC0
FCC0
C0C0
C0C0
FCC0
FCC0
60C0
7FC0
60C0
7FC0
7FC0
ENDCHAR
STARTCHAR U+B527
ENCODING 46375
SWIDTH 666 0
DWIDTH 12 0
BBX 10 11 0 0
BITMAP
FCC0
FCC0
C0C0
C0C0
FCC0
FCC0
00C0
0E00
1F00
7BC0
71C0
ENDCHAR
STARTCHAR U+B528
ENCODING 46376
SWIDTH 666 0
DWIDTH 12 0
BBX 10 11 0 0
BITMAP
FCC0
FCC0
C0C0
C0C0
FCC0
FCC0
0000
1100
3B80
7FC0
6EC0
ENDCHAR
STARTCHAR U+B529
ENCODING 46377
SWIDTH 666 0
DWIDTH 12 0
BBX 10 11 0 0
BITMAP
FCC0
FCC0
C0C0
C0C0
FCC0
FCC0
0000
3F80
60C0
7FC0
3F80
ENDCHAR
STARTCHAR U+B52A
ENCODING 46378
SWIDTH 666 0
DWIDTH 12 0
BBX 10 11 0 0
BITMAP
FCC0
FCC0
C0C0
C0C0
FCC0
FCC0
0000
7FC0
1F00
7BC0
71C0
ENDCHAR
STARTCHAR U+B52B
ENCODING 46379
SWIDTH 666 0
DWIDTH 12 0
BBX 10 11 0 0
BITMAP
FCC0
FCC0
C0C0
C0C0
FCC0
FCC0
0600
7FC0
1F00
7BC0
71C0
ENDCHAR
STARTCHAR U+B52E
ENCODING 46382
SWIDTH 666 0
DWIDTH 12 0
BBX 10 11 0 0
BITMAP
FCC0
FCC0
C0C0
C0C0
FCC0
FCC0
0000
7FC0
3180
7FC0
7FC0
ENDCHAR
STARTCHAR U+B530
ENCODING 46384
SWIDTH 666 0
DWIDTH 12 0
BBX 11 11 0 0
BITMAP
FEC0
FEC0
D8C0
D8C0
D8E0
D8E0
D8C0
D8C0
FEC0
FEC0
00C0
ENDCHAR
STARTCHAR U+B531
ENCODING 46385
SWIDTH 666 0
DWIDTH 12 0
BBX 11 11 0 0
BITMAP
FEC0
FEC0
D8E0
D8E0
FEC0
FEC0
0000
7FC0
7FC0
00C0
00C0
ENDCHAR
STARTCHAR U+B532
ENCODING 46386
SWIDTH 666 0
DWIDTH 12 0
BBX 11 11 0 0
BITMAP
FEC0
FEC0
D8E0
D8E0
FEC0
FEC0
0000
7FC0
7FC0
0CC0
0CC0
ENDCHAR
STARTCHAR U+B534
ENCODING 46388
SWIDTH 666 0
DWIDTH 12 0
BBX 11 11 0 0
BITMAP
FEC0
FEC0
D8E0
D8E0
FEC0
FEC0
00C0
6000
6000
7FC0
7FC0
ENDCHAR
STARTCHAR U+B537
ENCODING 46391
SWIDTH 666 0
DWIDTH 12 0
BBX 11 11 0 0
BITMAP
FEC0
FEC0
D8E0
D8E0
FEC0
FEC0
0000
7FC0
6000
7FC0
7FC0
ENDCHAR
STARTCHAR U+B538
ENCODING 46392
SWIDTH 666 0
DWIDTH 12 0
BBX 11 11 0 0
BITMAP
FEC0
FEC0
C8E0
FEC0
FEC0
0000
7FC0
07C0
7800
7FC0
7FC0
ENDCHAR
STARTCHAR U+B540
ENCODING 46400
SWIDTH 666 0
DWIDTH 12 0
BBX 11 11 0 0
BITMAP
FEC0
FEC0
D8E0
D8E0
FEC0
FEC0
0000
7FC0
60C0
7FC0
7FC0
ENDCHAR
STARTCHAR U+B541
ENCODING 46401
SWIDTH 666 0
DWIDTH 12 0
BBX 11 11 0 0
BITMAP
FEC0
FEC0
D8E0
D8E0
FEC0
FEC0
60C0
7FC0
60C0
7FC0
7FC0
ENDCHAR
STARTCHAR U+B543
ENCODING 46403
SWIDTH 666 0
DWIDTH 12 0
BBX 11 11 0 0
BITMAP
FEC0
FEC0
D8E0
D8E0
FEC0
FEC0
00C0
0E00
1F00
7BC0
71C0
ENDCHAR
STARTCHAR U+B544
ENCODING 46404
SWIDTH 666 0
DWIDTH 12 0
BBX 11 11 0 0
BITMAP
FEC0
FEC0
D8E0
D8E0
FEC0
FEC0
0000
1100
3B80
7FC0
6EC0
ENDCHAR
STARTCHAR U+B545
ENCODING 46405
SWIDTH 666 0
DWIDTH 12 0
BBX 11 11 0 0
BITMAP
FEC0
FEC0
D8E0
D8E0
FEC0
FEC0
0000
3F80
60C0
7FC0
3F80
ENDCHAR
STARTCHAR U+B54B
ENCODING 46411
SWIDTH 666 0
DWIDTH 12 0
BBX 11 11 0 0
BITMAP
FEC0
FEC0
D8E0
D8E0
FEC0
FEC0
0C00
7FC0
3180
3F80
1F00
ENDCHAR
STARTCHAR U+B54C
ENCODING 46412
SWIDTH 666 0
DWIDTH 12 0
BBX 10 11 0 0
BITMAP
FAC0
FAC0
D2C0
D2C0
D3C0
D3C0
D2C0
D2C0
FAC0
FAC0
02C0
ENDCHAR
STARTCHAR U+B54D
ENCODING 46413
SWIDTH 666 0
DWIDTH 12 0
BBX 10 11 0 0
BITMAP
FAC0
FAC0
D3C0
D3C0
FAC0
FAC0
0000
7FC0
7FC0
00C0
00C0
ENDCHAR
STARTCHAR U+B550
ENCODING 46416
SWIDTH 666 0
DWIDTH 12 0
BBX 10 11 0 0
BITMAP
FAC0
FAC0
D3C0
D3C0
FAC0
FAC0
02C0
6000
6000
7FC0
7FC0
ENDCHAR
STARTCHAR U+B554
ENCODING 46420
SWIDTH 666 0
DWIDTH 12 0
BBX 10 11 0 0
BITMAP
FAC0
D3C0
D3C0
FAC0
FAC0
0000
7FC0
07C0
7800
7FC0
7FC0
ENDCHAR
STARTCHAR U+B55C
ENCODING 46428
SWIDTH 666 0
DWIDTH 12 0
BBX 10 11 0 0
BITMAP
FAC0
FAC0
D3C0
D3C0
FAC0
FAC0
0000
7FC0
60C0
7FC0
7FC0
ENDCHAR
STARTCHAR U+B55D
ENCODING 46429
SWIDTH 666 0
DWIDTH 12 0
BBX 10 11 0 0
BITMAP
FAC0
FAC0
D3C0
D3C0
FAC0
FAC0
60C0
7FC0
60C0
7FC0
7FC0
ENDCHAR
STARTCHAR U+B55F
ENCODING 46431
SWIDTH 666 0
DWIDTH 12 0
BBX 10 11 0 0
BITMAP
FAC0
FAC0
D3C0
D3C0
FAC0
FAC0
0400
0E00
1F00
7BC0
71C0
ENDCHAR
STARTCHAR U+B560
ENCODING 46432
SWIDTH 666 0
DWIDTH 12 0
BBX 10 11 0 0
BITMAP
FAC0
FAC0
D3C0
D3C0
FAC0
FAC0
0000
1100
3B80
7FC0
6EC0
ENDCHAR
STARTCHAR U+B561
ENCODING 46433
SWIDTH 666 0
DWIDTH 12 0
BBX 10 11 0 0
BITMAP
FAC0
FAC0
D3C0
D3C0
FAC0
FAC0
0000
3F80
60C0
7FC0
3F80
ENDCHAR
STARTCHAR U+B584
ENCODING 46468
SWIDTH 666 0
DWIDTH 12 0
BBX 10 11 0 0
BITMAP
FAC0
FAC0
D2C0
D2C0
D3C0
D3C0
D2C0
D2C0
FAC0
FAC0
02C0
ENDCHAR
STARTCHAR U+B588
ENCODING 46472
SWIDTH 666 0
DWIDTH 12 0
BBX 10 11 0 0
BITMAP
FAC0
FAC0
D3C0
D3C0
FAC0
FAC0
02C0
6000
6000
7FC0
7FC0
ENDCHAR
STARTCHAR U+B594
ENCODING 46484
SWIDTH 666 0
DWIDTH 12 0
BBX 10 11 0 0
BITMAP
FAC0
FBC0
D2C0
D3C0
FBC0
FAC0
0000
7FC0
60C0
7FC0
7FC0
ENDCHAR
STARTCHAR U+B599
ENCODING 46489
SWIDTH 666 0
DWIDTH 12 0
BBX 10 11 0 0
BITMAP
FAC0
FBC0
D2C0
D3C0
FBC0
FAC0
0000
3F80
60C0
7FC0
3F80
ENDCHAR
STARTCHAR U+B5A0
ENCODING 46496
SWIDTH 666 0
DWIDTH 12 0
BBX 10 11 0 0
BITMAP
FEC0
FEC0
D8C0
D8C0
DBC0
DBC0
D8C0
D8C0
FEC0
FEC0
00C0
ENDCHAR
STARTCHAR U+B5A1
ENCODING 46497
SWIDTH 666 0
DWIDTH 12 0
BBX 10 11 0 0
BITMAP
FEC0
D8C0
DBC0
DBC0
FEC0
FEC0
0000
7FC0
7FC0
00C0
00C0
ENDCHAR
STARTCHAR U+B5A4
ENCODING 46500
SWIDTH 666 0
DWIDTH 12 0
BBX 10 11 0 0
BITMAP
FEC0
D8C0
DBC0
DBC0
FEC0
FEC0
00C0
6000
6000
7FC0
7FC0
ENDCHAR
STARTCHAR U+B5A8
ENCODING 46504
SWIDTH 666 0
DWIDTH 12 0
BBX 10 11 0 0
BITMAP
FEC0
DBC0
DBC0
FEC0
FEC0
0000
7FC0
07C0
7800
7FC0
7FC0
ENDCHAR
STARTCHAR U+B5AA
ENCODING 46506
SWIDTH 666 0
DWIDTH 12 0
BBX 10 11 0 0
BITMAP
FEC0
DBC0
DBC0
FEC0
FEC0
0000
7BC0
1AC0
62C0
7BC0
7BC0
ENDCHAR
STARTCHAR U+B5AB
ENCODING 46507
SWIDTH 666 0
DWIDTH 12 0
BBX 10 11 0 0
BITMAP
FEC0
DBC0
DBC0
FEC0
FEC0
0000
7AC0
1BC0
62C0
7BC0
7BC0
ENDCHAR
STARTCHAR U+B5B0
ENCODING 46512
SWIDTH 666 0
DWIDTH 12 0
BBX 10 11 0 0
BITMAP
FEC0
D8C0
DBC0
DBC0
FEC0
FEC0
0000
7FC0
60C0
7FC0
7FC0
ENDCHAR
STARTCHAR U+B5B1
ENCODING 46513
SWIDTH 666 0
DWIDTH 12 0
BBX 10 11 0 0
BITMAP
FEC0
D8C0
DBC0
DBC0
FEC0
FEC0
60C0
7FC0
60C0
7FC0
7FC0
ENDCHAR
STARTCHAR U+B5B3
ENCODING 46515
SWIDTH 666 0
DWIDTH 12 0
BBX 10 11 0 0
BITMAP
FEC0
D8C0
DBC0
DBC0
FEC0
FEC0
00C0
0E00
1F00
7BC0
71C0
ENDCHAR
STARTCHAR U+B5B4
ENCODING 46516
SWIDTH 666 0
DWIDTH 12 0
BBX 10 11 0 0
BITMAP
FEC0
D8C0
DBC0
DBC0
FEC0
FEC0
0000
1100
3B80
7FC0
6EC0
ENDCHAR
STARTCHAR U+B5B5
ENCODING 46517
SWIDTH 666 0
DWIDTH 12 0
BBX 10 11 0 0
BITMAP
FEC0
D8C0
DBC0
DBC0
FEC0
FEC0
0000
3F80
60C0
7FC0
3F80
ENDCHAR
STARTCHAR U+B5BB
ENCODING 46523
SWIDTH 666 0
DWIDTH 12 0
BBX 10 11 0 0
BITMAP
FEC0
D8C0
DBC0
DBC0
FEC0
FEC0
0C00
7FC0
3180
3F80
1F00
ENDCHAR
STARTCHAR U+B5BC
ENCODING 46524
SWIDTH 666 0
DWIDTH 12 0
BBX 10 11 0 0
BITMAP
FAC0
FAC0
D2C0
D2C0
D6C0
D6C0
D2C0
D2C0
FAC0
FAC0
02C0
ENDCHAR
STARTCHAR U+B5BD
ENCODING 46525
SWIDTH 666 0
DWIDTH 12 0
BBX 10 11 0 0
BITMAP
FAC0
D2C0
D6C0
D6C0
FAC0
FAC0
0000
7FC0
7FC0
00C0
00C0
ENDCHAR
STARTCHAR U+B5C0
ENCODING 46528
SWIDTH 666 0
DWIDTH 12 0
BBX 10 11 0 0
BITMAP
FAC0
D2C0
D6C0
D6C0
FAC0
FAC0
02C0
6000
6000
7FC0
7FC0
ENDCHAR
STARTCHAR U+B5C4
ENCODING 46532
SWIDTH 666 0
DWIDTH 12 0
BBX 10 11 0 0
BITMAP
FAC0
D6C0
D6C0
FAC0
FAC0
0000
7FC0
07C0
7800
7FC0
7FC0
ENDCHAR
STARTCHAR U+B5CC
ENCODING 46540
SWIDTH 666 0
DWIDTH 12 0
BBX 10 11 0 0
BITMAP
FAC0
D2C0
D6C0
D6C0
FAC0
FAC0
0000
7FC0
60C0
7FC0
7FC0
ENDCHAR
STARTCHAR U+B5CD
ENCODING 46541
SWIDTH 666 0
DWIDTH 12 0
BBX 10 11 0 0
BITMAP
FAC0
D2C0
D6C0
D6C0
FAC0
FAC0
60C0
7FC0
60C0
7FC0
7FC0
ENDCHAR
STARTCHAR U+B5CF
ENCODING 46543
SWIDTH 666 0
DWIDTH 12 0
BBX 10 11 0 0
BITMAP
FAC0
D2C0
D6C0
D6C0
FAC0
FAC0
0400
0E00
1F00
7BC0
71C0
ENDCHAR
STARTCHAR U+B5D0
ENCODING 46544
SWIDTH 666 0
DWIDTH 12 0
BBX 10 11 0 0
BITMAP
FAC0
D2C0
D6C0
D6C0
FAC0
FAC0
0000
1100
3B80
7FC0
6EC0
ENDCHAR
STARTCHAR U+B5D1
ENCODING 46545
SWIDTH 666 0
DWIDTH 12 0
BBX 10 11 0 0
BITMAP
FAC0
D2C0
D6C0
D6C0
FAC0
FAC0
0000
3F80
60C0
7FC0
3F80
ENDCHAR
STARTCHAR U+B5D8
ENCODING 46552
SWIDTH 666 0
DWIDTH 12 0
BBX 10 11 0 0
BITMAP
FEC0
FEC0
DBC0
DBC0
D8C0
DBC0
DBC0
D8C0
FEC0
FEC0
00C0
ENDCHAR
STARTCHAR U+B5EC
ENCODING 46572
SWIDTH 666 0
DWIDTH 12 0
BBX 10 11 0 0
BITMAP
FEC0
DBC0
D8C0
DBC0
FFC0
FEC0
0000
1100
3B80
7FC0
6EC0
ENDCHAR
STARTCHAR U+B610
ENCODING 46608
SWIDTH 666 0
DWIDTH 12 0
BBX 11 10 0 1
BITMAP
7FC0
7FC0
6600
6600
7FC0
7FC0
0600
0600
FFE0
FFE0
ENDCHAR
STARTCHAR U+B611
ENCODING 46609
SWIDTH 666 0
DWIDTH 12 0
BBX 11 11 0 0
BITMAP
7FC0
6600
7FC0
7FC0
0600
FFE0
0000
7FC0
7FC0
00C0
00C0
ENDCHAR
STARTCHAR U+B614
ENCODING 46612
SWIDTH 666 0
DWIDTH 12 0
BBX 11 11 0 0
BITMAP
7FC0
6600
7FC0
7FC0
0600
FFE0
FFE0
0000
6000
7FC0
7FC0
ENDCHAR
STARTCHAR U+B618
ENCODING 46616
SWIDTH 666 0
DWIDTH 12 0
BBX 11 11 0 0
BITMAP
7FC0
6600
7FC0
0600
FFE0
0000
7FC0
07C0
7800
7FC0
7FC0
ENDCHAR
STARTCHAR U+B620
ENCODING 46624
SWIDTH 666 0
DWIDTH 12 0
BBX 11 11 0 0
BITMAP
7FC0
6600
7FC0
7FC0
0600
FFE0
0000
7FC0
60C0
7FC0
7FC0
ENDCHAR
STARTCHAR U+B621
ENCODING 46625
SWIDTH 666 0
DWIDTH 12 0
BBX 11 11 0 0
BITMAP
7FC0
6600
7FC0
7FC0
0600
FFE0
60C0
7FC0
60C0
7FC0
7FC0
ENDCHAR
STARTCHAR U+B623
ENCODING 46627
SWIDTH 666 0
DWIDTH 12 0
BBX 11 11 0 0
BITMAP
7FC0
6600
7FC0
7FC0
0600
FFE0
0000
0E00
1F00
7BC0
71C0
ENDCHAR
STARTCHAR U+B625
ENCODING 46629
SWIDTH 666 0
DWIDTH 12 0
BBX 11 11 0 0
BITMAP
7FC0
6600
7FC0
7FC0
0600
FFE0
0000
3F80
60C0
7FC0
3F80
ENDCHAR
STARTCHAR U+B62C
ENCODING 46636
SWIDTH 666 0
DWIDTH 12 0
BBX 11 11 0 0
BITMAP
FEC0
FEC0
D8C0
D8C0
FEE0
FEE0
18C0
18C0
FFC0
FFC0
00C0
ENDCHAR
STARTCHAR U+B62D
ENCODING 46637
SWIDTH 666 0
DWIDTH 12 0
BBX 11 11 0 0
BITMAP
FEC0
C8C0
FEE0
FEE0
18C0
FFC0
0000
7FC0
7FC0
00C0
00C0
ENDCHAR
STARTCHAR U+B630
ENCODING 46640
SWIDTH 666 0
DWIDTH 12 0
BBX 11 11 0 0
BITMAP
FEC0
C8C0
FEE0
FEE0
18C0
FFC0
00C0
6000
6000
7FC0
7FC0
ENDCHAR
STARTCHAR U+B634
ENCODING 46644
SWIDTH 666 0
DWIDTH 12 0
BBX 11 11 0 0
BITMAP
FEC0
C8C0
FEE0
18E0
FFC0
0000
7FC0
07C0
7800
7FC0
7FC0
ENDCHAR
STARTCHAR U+B647
ENCODING 46663
SWIDTH 666 0
DWIDTH 12 0
BBX 11 11 0 0
BITMAP
FEC0
C8C0
FEE0
FEE0
18C0
FFC0
0600
7FC0
3180
3F80
1F00
ENDCHAR
STARTCHAR U+B648
ENCODING 46664
SWIDTH 666 0
DWIDTH 12 0
BBX 10 11 0 0
BITMAP
FAC0
FAC0
D2C0
D2C0
FBC0
FBC0
32C0
32C0
FEC0
FEC0
02C0
ENDCHAR
STARTCHAR U+B65C
ENCODING 46684
SWIDTH 666 0
DWIDTH 12 0
BBX 10 11 0 0
BITMAP
FAC0
D2C0
FBC0
FBC0
32C0
FEC0
0000
1100
3B80
7FC0
6EC0
ENDCHAR
STARTCHAR U+B664
ENCODING 46692
SWIDTH 666 0
DWIDTH 12 0
BBX 10 11 0 0
BITMAP
FEC0
FEC0
D8C0
D8C0
FEC0
FEC0
18C0
18C0
FFC0
FFC0
00C0
ENDCHAR
STARTCHAR U+B668
ENCODING 46696
SWIDTH 666 0
DWIDTH 12 0
BBX 10 11 0 0
BITMAP
FEC0
C8C0
FEC0
FEC0
18C0
FFC0
00C0
6000
6000
7FC0
7FC0
ENDCHAR
STARTCHAR U+B69C
ENCODING 46748
SWIDTH 666 0
DWIDTH 12 0
BBX 11 11 0 0
BITMAP
7FC0
7FC0
6600
7FC0
7FC0
0000
FFE0
FFE0
0600
0600
0600
ENDCHAR
STARTCHAR U+B69D
ENCODING 46749
SWIDTH 666 0
DWIDTH 12 0
BBX 11 11 0 0
BITMAP
7FC0
6600
7FC0
7FC0
0000
FFE0
0600
7FC0
7FC0
00C0
00C0
ENDCHAR
STARTCHAR U+B6A0
ENCODING 46752
SWIDTH 666 0
DWIDTH 12 0
BBX 11 11 0 0
BITMAP
7FC0
6600
7FC0
7FC0
0000
FFE0
0600
6600
6000
7FC0
7FC0
ENDCHAR
STARTCHAR U+B6A4
ENCODING 46756
SWIDTH 666 0
DWIDTH 12 0
BBX 11 11 0 0
BITMAP
7FC0
6600
7FC0
0000
FFE0
0600
7FC0
07C0
7800
7FC0
7FC0
ENDCHAR
STARTCHAR U+B6A7
ENCODING 46759
SWIDTH 666 0
DWIDTH 12 0
BBX 11 11 0 0
BITMAP
7FC0
6600
7FC0
0000
FFE0
0600
7AC0
1BC0
62C0
7BC0
7BC0
ENDCHAR
STARTCHAR U+B6AB
ENCODING 46763
SWIDTH 666 0
DWIDTH 12 0
BBX 11 11 0 0
BITMAP
7FC0
6600
7FC0
0000
FFE0
0D80
7FC0
1B80
66C0
7FC0
7B80
ENDCHAR
STARTCHAR U+B6AC
ENCODING 46764
SWIDTH 666 0
DWIDTH 12 0
BBX 11 11 0 0
BITMAP
7FC0
6600
7FC0
7FC0
0000
FFE0
0600
7FC0
60C0
7FC0
7FC0
ENDCHAR
STARTCHAR U+B6AF
ENCODING 46767
SWIDTH 666 0
DWIDTH 12 0
BBX 11 11 0 0
BITMAP
7FC0
6600
7FC0
7FC0
0000
FFE0
0600
0E00
1F00
7BC0
71C0
ENDCHAR
STARTCHAR U+B6B1
ENCODING 46769
SWIDTH 666 0
DWIDTH 12 0
BBX 11 11 0 0
BITMAP
7FC0
6600
7FC0
7FC0
0000
FFE0
0600
3F80
60C0
7FC0
3F80
ENDCHAR
STARTCHAR U+B6B8
ENCODING 46776
SWIDTH 666 0
DWIDTH 12 0
BBX 10 11 0 0
BITMAP
FEC0
FEC0
C8C0
FEC0
FEC0
00C0
FEC0
FEC0
33C0
33C0
30C0
ENDCHAR
STARTCHAR U+B6D4
ENCODING 46804
SWIDTH 666 0
DWIDTH 12 0
BBX 10 11 0 0
BITMAP
FAC0
FAC0
92C0
FAC0
FAC0
02C0
FAC0
FAC0
36C0
36C0
32C0
ENDCHAR
STARTCHAR U+B6F0
ENCODING 46832
SWIDTH 666 0
DWIDTH 12 0
BBX 10 11 0 0
BITMAP
FEC0
FEC0
C8C0
FEC0
FEC0
00C0
FFC0
FFC0
18C0
18C0
18C0
ENDCHAR
STARTCHAR U+B6F4
ENCODING 46836
SWIDTH 666 0
DWIDTH 12 0
BBX 10 11 0 0
BITMAP
FEC0
D8C0
FEC0
FEC0
00C0
FFC0
0CC0
6CC0
6000
7FC0
7FC0
ENDCHAR
STARTCHAR U+B6F8
ENCODING 46840
SWIDTH 666 0
DWIDTH 12 0
BBX 10 11 0 0
BITMAP
FEC0
C8C0
FEC0
00C0
FFC0
1800
7FC0
07C0
7800
7FC0
7FC0
ENDCHAR
STARTCHAR U+B700
ENCODING 46848
SWIDTH 666 0
DWIDTH 12 0
BBX 10 11 0 0
BITMAP
FEC0
C8C0
FEC0
FEC0
00C0
FFC0
1800
7FC0
60C0
7FC0
7FC0
ENDCHAR
STARTCHAR U+B701
ENCODING 46849
SWIDTH 666 0
DWIDTH 12 0
BBX 10 11 0 0
BITMAP
FEC0
C8C0
FEC0
FEC0
00C0
FFC0
6CC0
7FC0
60C0
7FC0
7FC0
ENDCHAR
STARTCHAR U+B704
ENCODING 46852
SWIDTH 666 0
DWIDTH 12 0
BBX 10 11 0 0
BITMAP
FEC0
C8C0
FEC0
FEC0
00C0
FFC0
1800
0100
3B80
7FC0
6EC0
ENDCHAR
STARTCHAR U+B705
ENCODING 46853
SWIDTH 666 0
DWIDTH 12 0
BBX 10 11 0 0
BITMAP
FEC0
C8C0
FEC0
FEC0
00C0
FFC0
1800
3F80
60C0
7FC0
3F80
ENDCHAR
STARTCHAR U+B70C
ENCODING 46860
SWIDTH 666 0
DWIDTH 12 0
BBX 11 11 0 0
BITMAP
7FC0
7FC0
6600
7FC0
7FC0
0000
FFE0
FFE0
3180
3180
3180
ENDCHAR
STARTCHAR U+B728
ENCODING 46888
SWIDTH 666 0
DWIDTH 12 0
BBX 11 10 0 1
BITMAP
7FC0
7FC0
6600
6600
7FC0
7FC0
0000
0000
FFE0
FFE0
ENDCHAR
STARTCHAR U+B729
ENCODING 46889
SWIDTH 666 0
DWIDTH 12 0
BBX 11 11 0 0
BITMAP
7FC0
6600
7FC0
7FC0
0000
FFE0
0000
7FC0
7FC0
00C0
00C0
ENDCHAR
STARTCHAR U+B72C
ENCODING 46892
SWIDTH 666 0
DWIDTH 12 0
BBX 11 11 0 0
BITMAP
7FC0
6600
7FC0
7FC0
0000
FFE0
FFE0
0000
6000
7FC0
7FC0
ENDCHAR
STARTCHAR U+B72F
ENCODING 46895
SWIDTH 666 0
DWIDTH 12 0
BBX 11 11 0 0
BITMAP
7FC0
6600
7FC0
7FC0
0000
FFE0
0000
7FC0
6000
7FC0
7FC0
ENDCHAR
STARTCHAR U+B730
ENCODING 46896
SWIDTH 666 0
DWIDTH 12 0
BBX 11 11 0 0
BITMAP
7FC0
6600
7FC0
0000
FFE0
0000
7FC0
07C0
7800
7FC0
7FC0
ENDCHAR
STARTCHAR U+B733
ENCODING 46899
SWIDTH 666 0
DWIDTH 12 0
BBX 11 11 0 0
BITMAP
7FC0
6600
7FC0
0000
FFE0
0000
7AC0
1BC0
62C0
7BC0
7BC0
ENDCHAR
STARTCHAR U+B738
ENCODING 46904
SWIDTH 666 0
DWIDTH 12 0
BBX 11 11 0 0
BITMAP
7FC0
6600
7FC0
7FC0
0000
FFE0
0000
7FC0
60C0
7FC0
7FC0
ENDCHAR
STARTCHAR U+B739
ENCODING 46905
SWIDTH 666 0
DWIDTH 12 0
BBX 11 11 0 0
BITMAP
7FC0
6600
7FC0
7FC0
0000
FFE0
60C0
7FC0
60C0
7FC0
7FC0
ENDCHAR
STARTCHAR U+B73B
ENCODING 46907
SWIDTH 666 0
DWIDTH 12 0
BBX 11 11 0 0
BITMAP
7FC0
6400
7FC0
7FC0
0000
FFE0
0000
0E00
1F00
7BC0
71C0
ENDCHAR
STARTCHAR U+B73D
ENCODING 46909
SWIDTH 666 0
DWIDTH 12 0
BBX 11 11 0 0
BITMAP
7FC0
6600
7FC0
7FC0
0000
FFE0
0000
3F80
60C0
7FC0
3F80
ENDCHAR
STARTCHAR U+B73E
ENCODING 46910
SWIDTH 666 0
DWIDTH 12 0
BBX 11 11 0 0
BITMAP
7FC0
6600
7FC0
7FC0
0000
FFE0
0000
7FC0
1F00
7BC0
71C0
ENDCHAR
STARTCHAR U+B743
ENCODING 46915
SWIDTH 666 0
DWIDTH 12 0
BBX 11 11 0 0
BITMAP
7FC0
6600
7FC0
7FC0
0000
FFE0
0400
7FC0
3180
3F80
1F00
ENDCHAR
STARTCHAR U+B744
ENCODING 46916
SWIDTH 666 0
DWIDTH 12 0
BBX 10 11 0 0
BITMAP
FEC0
FEC0
D8C0
D8C0
FEC0
FEC0
00C0
00C0
FFC0
FFC0
00C0
ENDCHAR
STARTCHAR U+B748
ENCODING 46920
SWIDTH 666 0
DWIDTH 12 0
BBX 10 11 0 0
BITMAP
FEC0
C8C0
FEC0
FEC0
00C0
FFC0
00C0
6000
6000
7FC0
7FC0
ENDCHAR
STARTCHAR U+B74C
ENCODING 46924
SWIDTH 666 0
DWIDTH 12 0
BBX 10 11 0 0
BITMAP
FEC0
C8C0
FEC0
00C0
FFC0
0000
7FC0
07C0
7800
7FC0
7FC0
ENDCHAR
STARTCHAR U+B754
ENCODING 46932
SWIDTH 666 0
DWIDTH 12 0
BBX 10 11 0 0
BITMAP
FEC0
C8C0
FEC0
FEC0
00C0
FFC0
0000
7FC0
60C0
7FC0
7FC0
ENDCHAR
STARTCHAR U+B755
ENCODING 46933
SWIDTH 666 0
DWIDTH 12 0
BBX 10 11 0 0
BITMAP
FEC0
C8C0
FEC0
FEC0
00C0
FFC0
60C0
7FC0
60C0
7FC0
7FC0
ENDCHAR
STARTCHAR U+B760
ENCODING 46944
SWIDTH 666 0
DWIDTH 12 0
BBX 10 11 0 0
BITMAP
FEC0
FEC0
D8C0
D8C0
D8C0
D8C0
D8C0
D8C0
FEC0
FEC0
00C0
ENDCHAR
STARTCHAR U+B761
ENCODING 46945
SWIDTH 666 0
DWIDTH 12 0
BBX 10 11 0 0
BITMAP
FEC0
FEC0
D8C0
D8C0
FEC0
FEC0
0000
7FC0
7FC0
00C0
00C0
ENDCHAR
STARTCHAR U+B764
ENCODING 46948
SWIDTH 666 0
DWIDTH 12 0
BBX 10 11 0 0
BITMAP
FEC0
FEC0
D8C0
D8C0
FEC0
FEC0
00C0
6000
6000
7FC0
7FC0
ENDCHAR
STARTCHAR U+B768
ENCODING 46952
SWIDTH 666 0
DWIDTH 12 0
BBX 10 11 0 0
BITMAP
FEC0
FEC0
D8C0
FEC0
FEC0
0000
7FC0
07C0
7800
7FC0
7FC0
ENDCHAR
STARTCHAR U+B770
ENCODING 46960
SWIDTH 666 0
DWIDTH 12 0
BBX 10 11 0 0
BITMAP
FEC0
FEC0
D8C0
D8C0
FEC0
FEC0
0000
7FC0
60C0
7FC0
7FC0
ENDCHAR
STARTCHAR U+B771
ENCODING 46961
SWIDTH 666 0
DWIDTH 12 0
BBX 10 11 0 0
BITMAP
FEC0
FEC0
D8C0
D8C0
FEC0
FEC0
60C0
7FC0
60C0
7FC0
7FC0
ENDCHAR
STARTCHAR U+B773
ENCODING 46963
SWIDTH 666 0
DWIDTH 12 0
BBX 10 11 0 0
BITMAP
FEC0
FEC0
D8C0
D8C0
FEC0
FEC0
00C0
0E00
1F00
7BC0
71C0
ENDCHAR
STARTCHAR U+B775
ENCODING 46965
SWIDTH 666 0
DWIDTH 12 0
BBX 10 11 0 0
BITMAP
FEC0
FEC0
D8C0
D8C0
FEC0
FEC0
0000
3F80
60C0
7FC0
3F80
ENDCHAR
STARTCHAR U+B77C
ENCODING 46972
SWIDTH 666 0
DWIDTH 12 0
BBX 11 11 0 0
BITMAP
FCC0
FCC0
0CC0
0CC0
FCE0
FCE0
C0C0
C0C0
FEC0
FEC0
00C0
ENDCHAR
STARTCHAR U+B77D
ENCODING 46973
SWIDTH 666 0
DWIDTH 12 0
BBX 11 11 0 0
BITMAP
FCC0
0CC0
FCE0
C0E0
FEC0
FEC0
0000
7FC0
7FC0
00C0
00C0
ENDCHAR
STARTCHAR U+B780
ENCODING 46976
SWIDTH 666 0
DWIDTH 12 0
BBX 11 11 0 0
BITMAP
FCC0
0CC0
FCE0
C0E0
FEC0
FEC0
00C0
6000
6000
7FC0
7FC0
ENDCHAR
STARTCHAR U+B783
ENCODING 46979
SWIDTH 666 0
DWIDTH 12 0
BBX 11 11 0 0
BITMAP
FCC0
0CC0
FCE0
C0E0
FEC0
FEC0
0000
7FC0
6000
7FC0
7FC0
ENDCHAR
STARTCHAR U+B784
ENCODING 46980
SWIDTH 666 0
DWIDTH 12 0
BBX 11 11 0 0
BITMAP
FCC0
1CE0
E0E0
FEC0
FEC0
0000
7FC0
07C0
7800
7FC0
7FC0
ENDCHAR
STARTCHAR U+B78C
ENCODING 46988
SWIDTH 666 0
DWIDTH 12 0
BBX 11 11 0 0
BITMAP
FCC0
0CC0
FCE0
C0E0
FEC0
FEC0
0000
7FC0
60C0
7FC0
7FC0
ENDCHAR
STARTCHAR U+B78D
ENCODING 46989
SWIDTH 666 0
DWIDTH 12 0
BBX 11 11 0 0
BITMAP
FCC0
0CC0
FCE0
C0E0
FEC0
FEC0
60C0
7FC0
60C0
7FC0
7FC0
ENDCHAR
STARTCHAR U+B78F
ENCODING 46991
SWIDTH 666 0
DWIDTH 12 0
BBX 11 11 0 0
BITMAP
FCC0
0CC0
FCE0
C0E0
FEC0
FEC0
00C0
0E00
1F00
7BC0
71C0
ENDCHAR
STARTCHAR U+B790
ENCODING 46992
SWIDTH 666 0
DWIDTH 12 0
BBX 11 11 0 0
BITMAP
FCC0
0CC0
FCE0
C0E0
FEC0
FEC0
0000
1100
3B80
7FC0
6EC0
ENDCHAR
STARTCHAR U+B791
ENCODING 46993
SWIDTH 666 0
DWIDTH 12 0
BBX 11 11 0 0
BITMAP
FCC0
0CC0
FCE0
C0E0
FEC0
FEC0
0000
3F80
60C0
7FC0
3F80
ENDCHAR
STARTCHAR U+B792
ENCODING 46994
SWIDTH 666 0
DWIDTH 12 0
BBX 11 11 0 0
BITMAP
FCC0
0CC0
FCE0
C0E0
FEC0
FEC0
0000
7FC0
1F00
7BC0
60C0
ENDCHAR
STARTCHAR U+B796
ENCODING 46998
SWIDTH 666 0
DWIDTH 12 0
BBX 11 11 0 0
BITMAP
FCC0
0CC0
FCE0
C0E0
FEC0
FEC0
0000
7FC0
3180
7FC0
7FC0
ENDCHAR
STARTCHAR U+B797
ENCODING 46999
SWIDTH 666 0
DWIDTH 12 0
BBX 11 11 0 0
BITMAP
FCC0
0CC0
FCE0
C0E0
FEC0
FEC0
0C00
7FC0
3180
3F80
1F00
ENDCHAR
STARTCHAR U+B798
ENCODING 47000
SWIDTH 666 0
DWIDTH 12 0
BBX 10 11 0 0
BITMAP
FAC0
FAC0
1AC0
1AC0
FBC0
FBC0
C2C0
C2C0
FAC0
FAC0
02C0
ENDCHAR
STARTCHAR U+B799
ENCODING 47001
SWIDTH 666 0
DWIDTH 12 0
BBX 10 11 0 0
BITMAP
FAC0
1AC0
FBC0
C3C0
FAC0
FAC0
0000
7FC0
7FC0
00C0
00C0
ENDCHAR
STARTCHAR U+B79C
ENCODING 47004
SWIDTH 666 0
DWIDTH 12 0
BBX 10 11 0 0
BITMAP
FAC0
1AC0
FBC0
C3C0
FAC0
FAC0
02C0
6000
6000
7FC0
7FC0
ENDCHAR
STARTCHAR U+B79F
ENCODING 47007
SWIDTH 666 0
DWIDTH 12 0
BBX 10 11 0 0
BITMAP
FAC0
1AC0
FBC0
C3C0
FAC0
FAC0
0000
7FC0
6000
7FC0
7FC0
ENDCHAR
STARTCHAR U+B7A0
ENCODING 47008
SWIDTH 666 0
DWIDTH 12 0
BBX 10 11 0 0
BITMAP
FAC0
1BC0
E3C0
FAC0
FAC0
0000
7FC0
07C0
7800
7FC0
7FC0
ENDCHAR
STARTCHAR U+B7A8
ENCODING 47016
SWIDTH 666 0
DWIDTH 12 0
BBX 10 11 0 0
BITMAP
FAC0
1AC0
FBC0
C3C0
FAC0
FAC0
0000
7FC0
60C0
7FC0
7FC0
ENDCHAR
STARTCHAR U+B7A9
ENCODING 47017
SWIDTH 666 0
DWIDTH 12 0
BBX 10 11 0 0
BITMAP
FAC0
1AC0
FBC0
C3C0
FAC0
FAC0
60C0
7FC0
60C0
7FC0
7FC0
ENDCHAR
STARTCHAR U+B7AB
ENCODING 47019
SWIDTH 666 0
DWIDTH 12 0
BBX 10 11 0 0
BITMAP
FAC0
1AC0
FBC0
C3C0
FAC0
FAC0
0400
0E00
1F00
7BC0
71C0
ENDCHAR
STARTCHAR U+B7AC
ENCODING 47020
SWIDTH 666 0
DWIDTH 12 0
BBX 10 11 0 0
BITMAP
FAC0
1AC0
FBC0
C3C0
FAC0
FAC0
0000
1100
3B80
7FC0
6EC0
ENDCHAR
STARTCHAR U+B7AD
ENCODING 47021
SWIDTH 666 0
DWIDTH 12 0
BBX 10 11 0 0
BITMAP
FAC0
1AC0
FBC0
C3C0
FAC0
FAC0
0000
3F80
60C0
7FC0
3F80
ENDCHAR
STARTCHAR U+B7B0
ENCODING 47024
SWIDTH 666 0
DWIDTH 12 0
BBX 10 11 0 0
BITMAP
FAC0
1AC0
FBC0
C3C0
FAC0
FAC0
0000
7FC0
00C0
7FC0
00C0
ENDCHAR
STARTCHAR U+B7B2
ENCODING 47026
SWIDTH 666 0
DWIDTH 12 0
BBX 10 11 0 0
BITMAP
FAC0
1AC0
FBC0
C3C0
FAC0
FAC0
0000
7FC0
3180
7FC0
7FC0
ENDCHAR
STARTCHAR U+B7B4
ENCODING 47028
SWIDTH 666 0
DWIDTH 12 0
BBX 11 11 0 0
BITMAP
FCC0
FCC0
0CE0
0CE0
FCC0
FCC0
C0E0
C0E0
FEC0
FEC0
00C0
ENDCHAR
STARTCHAR U+B7B5
ENCODING 47029
SWIDTH 666 0
DWIDTH 12 0
BBX 11 11 0 0
BITMAP
FCC0
0CE0
FCC0
C0E0
FEE0
FEC0
0000
7FC0
7FC0
00C0
00C0
ENDCHAR
STARTCHAR U+B7B8
ENCODING 47032
SWIDTH 666 0
DWIDTH 12 0
BBX 11 11 0 0
BITMAP
FCC0
0CE0
FCE0
C0C0
FEE0
FEE0
00C0
6000
6000
7FC0
7FC0
ENDCHAR
STARTCHAR U+B7C5
ENCODING 47045
SWIDTH 666 0
DWIDTH 12 0
BBX 11 11 0 0
BITMAP
FCC0
0CE0
FCC0
C0E0
FEE0
FEC0
60C0
7FC0
60C0
7FC0
7FC0
ENDCHAR
STARTCHAR U+B7C7
ENCODING 47047
SWIDTH 666 0
DWIDTH 12 0
BBX 11 11 0 0
BITMAP
FCC0
0CE0
FCE0
C0C0
FEE0
FEE0
00C0
0E00
1F00
7BC0
71C0
ENDCHAR
STARTCHAR U+B7C9
ENCODING 47049
SWIDTH 666 0
DWIDTH 12 0
BBX 11 11 0 0
BITMAP
FCC0
0CE0
FCC0
C0E0
FEE0
FEC0
0000
3F80
60C0
7FC0
3F80
ENDCHAR
STARTCHAR U+B7D0
ENCODING 47056
SWIDTH 666 0
DWIDTH 12 0
BBX 10 11 0 0
BITMAP
FAC0
FAC0
0BC0
0BC0
FAC0
FAC0
C3C0
C3C0
FAC0
FAC0
02C0
ENDCHAR
STARTCHAR U+B7D4
ENCODING 47060
SWIDTH 666 0
DWIDTH 12 0
BBX 10 11 0 0
BITMAP
FAC0
1BC0
FBC0
C2C0
FBC0
FBC0
02C0
6000
6000
7FC0
7FC0
ENDCHAR
STARTCHAR U+B7EC
ENCODING 47084
SWIDTH 666 0
DWIDTH 12 0
BBX 10 11 0 0
BITMAP
FCC0
FCC0
0CC0
0CC0
FFC0
FFC0
C0C0
C0C0
FEC0
FEC0
00C0
ENDCHAR
STARTCHAR U+B7ED
ENCODING 47085
SWIDTH 666 0
DWIDTH 12 0
BBX 10 11 0 0
BITMAP
FCC0
0CC0
FFC0
C3C0
FEC0
FEC0
0000
7FC0
7FC0
00C0
00C0
ENDCHAR
STARTCHAR U+B7F0
ENCODING 47088
SWIDTH 666 0
DWIDTH 12 0
BBX 10 11 0 0
BITMAP
FCC0
0CC0
FFC0
C3C0
FEC0
FEC0
00C0
6000
6000
7FC0
7FC0
ENDCHAR
STARTCHAR U+B7F2
ENCODING 47090
SWIDTH 666 0
DWIDTH 12 0
BBX 11 11 0 0
BITMAP
FCC0
0CC0
FFC0
C3C0
FEC0
FEC0
0300
6FE0
66C0
7FC0
7B80
ENDCHAR
STARTCHAR U+B7F3
ENCODING 47091
SWIDTH 666 0
DWIDTH 12 0
BBX 10 11 0 0
BITMAP
FCC0
0CC0
FFC0
C3C0
FEC0
FEC0
0000
7FC0
6000
7FC0
7FC0
ENDCHAR
STARTCHAR U+B7F4
ENCODING 47092
SWIDTH 666 0
DWIDTH 12 0
BBX 10 11 0 0
BITMAP
FCC0
1FC0
E3C0
FEC0
FEC0
0000
7FC0
07C0
7800
7FC0
7FC0
ENDCHAR
STARTCHAR U+B7FC
ENCODING 47100
SWIDTH 666 0
DWIDTH 12 0
BBX 10 11 0 0
BITMAP
FCC0
0CC0
FFC0
C3C0
FEC0
FEC0
0000
7FC0
60C0
7FC0
7FC0
ENDCHAR
STARTCHAR U+B7FD
ENCODING 47101
SWIDTH 666 0
DWIDTH 12 0
BBX 10 11 0 0
BITMAP
FCC0
0CC0
FFC0
C3C0
FEC0
FEC0
60C0
7FC0
60C0
7FC0
7FC0
ENDCHAR
STARTCHAR U+B7FF
ENCODING 47103
SWIDTH 666 0
DWIDTH 12 0
BBX 10 11 0 0
BITMAP
FCC0
0CC0
FFC0
C3C0
FEC0
FEC0
00C0
0E00
1F00
7BC0
71C0
ENDCHAR
STARTCHAR U+B800
ENCODING 47104
SWIDTH 666 0
DWIDTH 12 0
BBX 10 11 0 0
BITMAP
FCC0
0CC0
FFC0
C3C0
FEC0
FEC0
0000
1100
3B80
7FC0
6EC0
ENDCHAR
STARTCHAR U+B801
ENCODING 47105
SWIDTH 666 0
DWIDTH 12 0
BBX 10 11 0 0
BITMAP
FCC0
0CC0
FFC0
C3C0
FEC0
FEC0
0000
3F80
60C0
7FC0
3F80
ENDCHAR
STARTCHAR U+B807
ENCODING 47111
SWIDTH 666 0
DWIDTH 12 0
BBX 10 11 0 0
BITMAP
FCC0
0CC0
FFC0
C3C0
FEC0
FEC0
0C00
7FC0
3180
3F80
1F00
ENDCHAR
STARTCHAR U+B808
ENCODING 47112
SWIDTH 666 0
DWIDTH 12 0
BBX 10 11 0 0
BITMAP
FAC0
FAC0
1AC0
1AC0
FAC0
FEC0
CEC0
C2C0
FAC0
FAC0
02C0
ENDCHAR
STARTCHAR U+B809
ENCODING 47113
SWIDTH 666 0
DWIDTH 12 0
BBX 10 11 0 0
BITMAP
FAC0
1AC0
FEC0
CEC0
FAC0
FAC0
0000
7FC0
7FC0
00C0
00C0
ENDCHAR
STARTCHAR U+B80C
ENCODING 47116
SWIDTH 666 0
DWIDTH 12 0
BBX 10 11 0 0
BITMAP
FAC0
1AC0
FEC0
CEC0
FAC0
FAC0
02C0
6000
6000
7FC0
7FC0
ENDCHAR
STARTCHAR U+B810
ENCODING 47120
SWIDTH 666 0
DWIDTH 12 0
BBX 10 11 0 0
BITMAP
FAC0
3EC0
CEC0
FAC0
FAC0
0000
7FC0
07C0
7800
7FC0
7FC0
ENDCHAR
STARTCHAR U+B818
ENCODING 47128
SWIDTH 666 0
DWIDTH 12 0
BBX 10 11 0 0
BITMAP
FAC0
1AC0
FEC0
CEC0
FAC0
FAC0
0000
7FC0
60C0
7FC0
7FC0
ENDCHAR
STARTCHAR U+B819
ENCODING 47129
SWIDTH 666 0
DWIDTH 12 0
BBX 10 11 0 0
BITMAP
FAC0
1AC0
FEC0
CEC0
FAC0
FAC0
60C0
7FC0
60C0
7FC0
7FC0
ENDCHAR
STARTCHAR U+B81B
ENCODING 47131
SWIDTH 666 0
DWIDTH 12 0
BBX 10 11 0 0
BITMAP
FAC0
1AC0
FEC0
CEC0
FAC0
FAC0
0400
0E00
1F00
7BC0
71C0
ENDCHAR
STARTCHAR U+B81C
ENCODING 47132
SWIDTH 666 0
DWIDTH 12 0
BBX 10 11 0 0
BITMAP
FAC0
1AC0
FEC0
CEC0
FAC0
FAC0
0000
1100
3B80
7FC0
6EC0
ENDCHAR
STARTCHAR U+B81D
ENCODING 47133
SWIDTH 666 0
DWIDTH 12 0
BBX 10 11 0 0
BITMAP
FAC0
1AC0
FEC0
CEC0
FAC0
FAC0
0000
3F80
60C0
7FC0
3F80
ENDCHAR
STARTCHAR U+B824
ENCODING 47140
SWIDTH 666 0
DWIDTH 12 0
BBX 10 11 0 0
BITMAP
FCC0
FCC0
0FC0
0FC0
FCC0
FFC0
C3C0
C0C0
FEC0
FEC0
00C0
ENDCHAR
STARTCHAR U+B825
ENCODING 47141
SWIDTH 666 0
DWIDTH 12 0
BBX 10 11 0 0
BITMAP
FCC0
0FC0
FCC0
C3C0
FFC0
FEC0
0000
7FC0
7FC0
00C0
00C0
ENDCHAR
STARTCHAR U+B828
ENCODING 47144
SWIDTH 666 0
DWIDTH 12 0
BBX 10 11 0 0
BITMAP
FCC0
0FC0
FCC0
C3C0
FFC0
FEC0
00C0
6000
6000
7FC0
7FC0
ENDCHAR
STARTCHAR U+B82B
ENCODING 47147
SWIDTH 666 0
DWIDTH 12 0
BBX 10 11 0 0
BITMAP
FCC0
0FC0
FCC0
C3C0
FFC0
FEC0
0000
7FC0
6000
7FC0
7FC0
ENDCHAR
STARTCHAR U+B82C
ENCODING 47148
SWIDTH 666 0
DWIDTH 12 0
BBX 10 11 0 0
BITMAP
FCC0
1DC0
E0C0
FDC0
FCC0
0000
7FC0
07C0
7800
7FC0
7FC0
ENDCHAR
STARTCHAR U+B834
ENCODING 47156
SWIDTH 666 0
DWIDTH 12 0
BBX 10 11 0 0
BITMAP
FCC0
0FC0
FCC0
C3C0
FFC0
FEC0
0000
7FC0
60C0
7FC0
7FC0
ENDCHAR
STARTCHAR U+B835
ENCODING 47157
SWIDTH 666 0
DWIDTH 12 0
BBX 10 11 0 0
BITMAP
FCC0
0FC0
FCC0
C3C0
FFC0
FEC0
60C0
7FC0
60C0
7FC0
7FC0
ENDCHAR
STARTCHAR U+B837
ENCODING 47159
SWIDTH 666 0
DWIDTH 12 0
BBX 10 11 0 0
BITMAP
FCC0
0FC0
FCC0
C3C0
FFC0
FEC0
00C0
0E00
1F00
7BC0
71C0
ENDCHAR
STARTCHAR U+B838
ENCODING 47160
SWIDTH 666 0
DWIDTH 12 0
BBX 10 11 0 0
BITMAP
FCC0
0FC0
FCC0
C3C0
FFC0
FEC0
0000
1100
3B80
7FC0
6EC0
ENDCHAR
STARTCHAR U+B839
ENCODING 47161
SWIDTH 666 0
DWIDTH 12 0
BBX 10 11 0 0
BITMAP
FCC0
0FC0
FCC0
C3C0
FFC0
FEC0
0000
3F80
60C0
7FC0
3F80
ENDCHAR
STARTCHAR U+B840
ENCODING 47168
SWIDTH 666 0
DWIDTH 12 0
BBX 10 11 0 0
BITMAP
FAC0
FAC0
1EC0
1EC0
FAC0
FAC0
C6C0
C6C0
FAC0
FAC0
02C0
ENDCHAR
STARTCHAR U+B844
ENCODING 47172
SWIDTH 666 0
DWIDTH 12 0
BBX 10 11 0 0
BITMAP
FAC0
1EC0
FAC0
C6C0
FEC0
FAC0
02C0
6000
6000
7FC0
7FC0
ENDCHAR
STARTCHAR U+B851
ENCODING 47185
SWIDTH 666 0
DWIDTH 12 0
BBX 10 11 0 0
BITMAP
FAC0
1EC0
FAC0
C6C0
FEC0
FAC0
60C0
7FC0
60C0
7FC0
7FC0
ENDCHAR
STARTCHAR U+B853
ENCODING 47187
SWIDTH 666 0
DWIDTH 12 0
BBX 10 11 0 0
BITMAP
FAC0
1EC0
FAC0
C6C0
FEC0
FAC0
0400
0E00
1F00
7BC0
71C0
ENDCHAR
STARTCHAR U+B85C
ENCODING 47196
SWIDTH 666 0
DWIDTH 12 0
BBX 11 10 0 1
BITMAP
7FC0
7FC0
00C0
7FC0
6000
7FC0
7FC0
0600
FFE0
FFE0
ENDCHAR
STARTCHAR U+B85D
ENCODING 47197
SWIDTH 666 0
DWIDTH 12 0
BBX 11 11 0 0
BITMAP
7FC0
07C0
7800
7FC0
0600
FFE0
0000
7FC0
7FC0
00C0
00C0
ENDCHAR
STARTCHAR U+B860
ENCODING 47200
SWIDTH 666 0
DWIDTH 12 0
BBX 11 11 0 0
BITMAP
7FC0
07C0
7800
7FC0
7FC0
0600
FFE0
0000
6000
7FC0
7FC0
ENDCHAR
STARTCHAR U+B863
ENCODING 47203
SWIDTH 666 0
DWIDTH 12 0
BBX 11 11 0 0
BITMAP
7FC0
07C0
7800
7FC0
0600
FFE0
0000
7FC0
6000
7FC0
7FC0
ENDCHAR
STARTCHAR U+B864
ENCODING 47204
SWIDTH 666 0
DWIDTH 12 0
BBX 11 11 0 0
BITMAP
7FC0
07C0
7800
7FC0
0600
FFE0
7FC0
07C0
7800
7FC0
7FC0
ENDCHAR
STARTCHAR U+B86C
ENCODING 47212
SWIDTH 666 0
DWIDTH 12 0
BBX 11 11 0 0
BITMAP
7FC0
07C0
7800
7FC0
0600
FFE0
0000
7FC0
60C0
7FC0
7FC0
ENDCHAR
STARTCHAR U+B86D
ENCODING 47213
SWIDTH 666 0
DWIDTH 12 0
BBX 11 11 0 0
BITMAP
7FC0
07C0
7800
7FC0
0600
FFE0
60C0
7FC0
60C0
7FC0
7FC0
ENDCHAR
STARTCHAR U+B86F
ENCODING 47215
SWIDTH 666 0
DWIDTH 12 0
BBX 11 11 0 0
BITMAP
7FC0
07C0
7800
7FC0
0600
FFE0
0000
0E00
1F00
7BC0
71C0
ENDCHAR
STARTCHAR U+B871
ENCODING 47217
SWIDTH 666 0
DWIDTH 12 0
BBX 11 11 0 0
BITMAP
7FC0
07C0
7800
7FC0
0600
FFE0
0000
3F80
60C0
7FC0
3F80
ENDCHAR
STARTCHAR U+B878
ENCODING 47224
SWIDTH 666 0
DWIDTH 12 0
BBX 11 11 0 0
BITMAP
FEC0
FEC0
06C0
FEC0
C0E0
FEE0
FEC0
18C0
FFC0
FFC0
00C0
ENDCHAR
STARTCHAR U+B879
ENCODING 47225
SWIDTH 666 0
DWIDTH 12 0
BBX 11 11 0 0
BITMAP
FEC0
1EC0
E0E0
FEE0
18C0
FFC0
0000
7FC0
7FC0
00C0
00C0
ENDCHAR
STARTCHAR U+B87C
ENCODING 47228
SWIDTH 666 0
DWIDTH 12 0
BBX 11 11 0 0
BITMAP
FEC0
1EC0
E0C0
FEE0
FEE0
18C0
FFC0
00C0
6000
7FC0
7FC0
ENDCHAR
STARTCHAR U+B88D
ENCODING 47245
SWIDTH 666 0
DWIDTH 12 0
BBX 11 11 0 0
BITMAP
FEC0
1EC0
E0E0
FEE0
18C0
FFC0
0000
3F80
60C0
7FC0
3F80
ENDCHAR
STARTCHAR U+B894
ENCODING 47252
SWIDTH 666 0
DWIDTH 12 0
BBX 10 11 0 0
BITMAP
FAC0
FAC0
1AC0
FAC0
C3C0
FBC0
FAC0
32C0
FEC0
FEC0
02C0
ENDCHAR
STARTCHAR U+B8A8
ENCODING 47272
SWIDTH 666 0
DWIDTH 12 0
BBX 10 11 0 0
BITMAP
FAC0
3AC0
C3C0
FBC0
FAC0
32C0
FEC0
1100
3B80
7FC0
6EC0
ENDCHAR
STARTCHAR U+B8B0
ENCODING 47280
SWIDTH 666 0
DWIDTH 12 0
BBX 10 11 0 0
BITMAP
FEC0
FEC0
06C0
FEC0
C0C0
FEC0
FEC0
18C0
FFC0
FFC0
00C0
ENDCHAR
STARTCHAR U+B8B4
ENCODING 47284
SWIDTH 666 0
DWIDTH 12 0
BBX 10 11 0 0
BITMAP
FEC0
1EC0
E0C0
FEC0
FEC0
18C0
FFC0
00C0
6000
7FC0
7FC0
ENDCHAR
STARTCHAR U+B8B8
ENCODING 47288
SWIDTH 666 0
DWIDTH 12 0
BBX 10 11 0 0
BITMAP
FEC0
1EC0
E0C0
FEC0
18C0
FFC0
0000
7FC0
07C0
7800
7FC0
ENDCHAR
STARTCHAR U+B8C0
ENCODING 47296
SWIDTH 666 0
DWIDTH 12 0
BBX 10 11 0 0
BITMAP
FEC0
1EC0
E0C0
FEC0
18C0
FFC0
0000
7FC0
60C0
7FC0
7FC0
ENDCHAR
STARTCHAR U+B8C1
ENCODING 47297
SWIDTH 666 0
DWIDTH 12 0
BBX 10 11 0 0
BITMAP
FEC0
1EC0
E0C0
FEC0
18C0
FFC0
60C0
7FC0
60C0
7FC0
7FC0
ENDCHAR
STARTCHAR U+B8C3
ENCODING 47299
SWIDTH 666 0
DWIDTH 12 0
BBX 10 11 0 0
BITMAP
FEC0
1EC0
E0C0
FEC0
18C0
FFC0
0000
0E00
1F00
7BC0
71C0
ENDCHAR
STARTCHAR U+B8C5
ENCODING 47301
SWIDTH 666 0
DWIDTH 12 0
BBX 10 11 0 0
BITMAP
FEC0
1EC0
E0C0
FEC0
18C0
FFC0
0000
3F80
60C0
7FC0
3F80
ENDCHAR
STARTCHAR U+B8CC
ENCODING 47308
SWIDTH 666 0
DWIDTH 12 0
BBX 11 10 0 1
BITMAP
7FC0
7FC0
00C0
7FC0
6000
7FC0
7FC0
3180
FFE0
FFE0
ENDCHAR
STARTCHAR U+B8D0
ENCODING 47312
SWIDTH 666 0
DWIDTH 12 0
BBX 11 11 0 0
BITMAP
7FC0
07C0
7800
7FC0
7FC0
3180
FFE0
0000
6000
7FC0
7FC0
ENDCHAR
STARTCHAR U+B8D4
ENCODING 47316
SWIDTH 666 0
DWIDTH 12 0
BBX 11 11 0 0
BITMAP
7FC0
07C0
7800
7FC0
3180
FFE0
7FC0
07C0
7800
7FC0
7FC0
ENDCHAR
STARTCHAR U+B8DD
ENCODING 47325
SWIDTH 666 0
DWIDTH 12 0
BBX 11 11 0 0
BITMAP
7FC0
07C0
7800
7FC0
3180
FFE0
60C0
7FC0
60C0
7FC0
7FC0
ENDCHAR
STARTCHAR U+B8DF
ENCODING 47327
SWIDTH 666 0
DWIDTH 12 0
BBX 11 11 0 0
BITMAP
7FC0
07C0
7800
7FC0
3180
FFE0
0000
0E00
1F00
7BC0
71C0
ENDCHAR
STARTCHAR U+B8E1
ENCODING 47329
SWIDTH 666 0
DWIDTH 12 0
BBX 11 11 0 0
BITMAP
7FC0
07C0
7800
7FC0
3180
FFE0
0000
3F80
60C0
7FC0
3F80
ENDCHAR
STARTCHAR U+B8E8
ENCODING 47336
SWIDTH 666 0
DWIDTH 12 0
BBX 11 11 0 0
BITMAP
7FC0
00C0
7FC0
6000
7FC0
7FC0
0000
FFE0
0600
0600
0600
ENDCHAR
STARTCHAR U+B8E9
ENCODING 47337
SWIDTH 666 0
DWIDTH 12 0
BBX 11 11 0 0
BITMAP
7FC0
07C0
7800
7FC0
0000
FFE0
0600
7FC0
7FC0
00C0
00C0
ENDCHAR
STARTCHAR U+B8EC
ENCODING 47340
SWIDTH 666 0
DWIDTH 12 0
BBX 11 11 0 0
BITMAP
7FC0
07C0
7800
7FC0
0000
FFE0
0600
6600
6000
7FC0
7FC0
ENDCHAR
STARTCHAR U+B8F0
ENCODING 47344
SWIDTH 666 0
DWIDTH 12 0
BBX 11 11 0 0
BITMAP
7FC0
07C0
7800
7FC0
FFE0
0600
7FC0
07C0
7800
7FC0
7FC0
ENDCHAR
STARTCHAR U+B8F8
ENCODING 47352
SWIDTH 666 0
DWIDTH 12 0
BBX 11 11 0 0
BITMAP
7FC0
07C0
7800
7FC0
0000
FFE0
0600
7FC0
60C0
7FC0
7FC0
ENDCHAR
STARTCHAR U+B8F9
ENCODING 47353
SWIDTH 666 0
DWIDTH 12 0
BBX 11 11 0 0
BITMAP
7FC0
07C0
7800
7FC0
0000
FFE0
66C0
7FC0
60C0
7FC0
7FC0
ENDCHAR
STARTCHAR U+B8FB
ENCODING 47355
SWIDTH 666 0
DWIDTH 12 0
BBX 11 11 0 0
BITMAP
7FC0
07C0
7800
7FC0
0000
FFE0
0600
0E00
1F00
7BC0
71C0
ENDCHAR
STARTCHAR U+B8FD
ENCODING 47357
SWIDTH 666 0
DWIDTH 12 0
BBX 11 11 0 0
BITMAP
7FC0
07C0
7800
7FC0
0000
FFE0
0600
3F80
60C0
7FC0
3F80
ENDCHAR
STARTCHAR U+B904
ENCODING 47364
SWIDTH 666 0
DWIDTH 12 0
BBX 10 11 0 0
BITMAP
FEC0
1EC0
E0C0
FEC0
FEC0
00C0
FEC0
FEC0
33C0
33C0
30C0
ENDCHAR
STARTCHAR U+B908
ENCODING 47368
SWIDTH 666 0
DWIDTH 12 0
BBX 10 11 0 0
BITMAP
FEC0
1EC0
E0C0
FEC0
00C0
FEC0
1BC0
78C0
6000
7FC0
7FC0
ENDCHAR
STARTCHAR U+B918
ENCODING 47384
SWIDTH 666 0
DWIDTH 12 0
BBX 10 11 0 0
BITMAP
FEC0
1EC0
E0C0
FEC0
00C0
FEC0
31C0
0000
3B80
7FC0
6EC0
ENDCHAR
STARTCHAR U+B920
ENCODING 47392
SWIDTH 666 0
DWIDTH 12 0
BBX 10 11 0 0
BITMAP
FAC0
3AC0
C2C0
FAC0
FAC0
02C0
FAC0
6EC0
6EC0
62C0
62C0
ENDCHAR
STARTCHAR U+B924
ENCODING 47396
SWIDTH 666 0
DWIDTH 12 0
BBX 10 11 0 0
BITMAP
FAC0
3AC0
C2C0
FAC0
02C0
FAC0
36C0
72C0
6000
7FC0
7FC0
ENDCHAR
STARTCHAR U+B93C
ENCODING 47420
SWIDTH 666 0
DWIDTH 12 0
BBX 10 11 0 0
BITMAP
7EC0
0EC0
70C0
7EC0
7EC0
00C0
FFC0
FFC0
18C0
18C0
18C0
ENDCHAR
STARTCHAR U+B93D
ENCODING 47421
SWIDTH 666 0
DWIDTH 12 0
BBX 10 11 0 0
BITMAP
7EC0
0EC0
70C0
7EC0
00C0
FFC0
1800
7FC0
7FC0
00C0
00C0
ENDCHAR
STARTCHAR U+B940
ENCODING 47424
SWIDTH 666 0
DWIDTH 12 0
BBX 10 11 0 0
BITMAP
7EC0
0EC0
70C0
7EC0
00C0
FFC0
0CC0
6CC0
6000
7FC0
7FC0
ENDCHAR
STARTCHAR U+B944
ENCODING 47428
SWIDTH 666 0
DWIDTH 12 0
BBX 10 11 0 0
BITMAP
7EC0
0EC0
70C0
7EC0
FFC0
1800
7FC0
07C0
7800
7FC0
7FC0
ENDCHAR
STARTCHAR U+B94C
ENCODING 47436
SWIDTH 666 0
DWIDTH 12 0
BBX 10 11 0 0
BITMAP
7EC0
0EC0
70C0
7EC0
00C0
FFC0
1800
7FC0
60C0
7FC0
7FC0
ENDCHAR
STARTCHAR U+B94F
ENCODING 47439
SWIDTH 666 0
DWIDTH 12 0
BBX 10 11 0 0
BITMAP
7EC0
0EC0
70C0
7EC0
00C0
FFC0
30C0
0E00
1F00
7BC0
71C0
ENDCHAR
STARTCHAR U+B951
ENCODING 47441
SWIDTH 666 0
DWIDTH 12 0
BBX 10 11 0 0
BITMAP
7EC0
0EC0
70C0
7EC0
00C0
FFC0
1800
3F80
60C0
7FC0
3F80
ENDCHAR
STARTCHAR U+B958
ENCODING 47448
SWIDTH 666 0
DWIDTH 12 0
BBX 11 11 0 0
BITMAP
7FC0
00C0
7FC0
6000
7FC0
7FC0
0000
FFE0
3180
3180
3180
ENDCHAR
STARTCHAR U+B959
ENCODING 47449
SWIDTH 666 0
DWIDTH 12 0
BBX 11 11 0 0
BITMAP
7FC0
07C0
7800
7FC0
0000
FFE0
3180
7FC0
7FC0
00C0
00C0
ENDCHAR
STARTCHAR U+B95C
ENCODING 47452
SWIDTH 666 0
DWIDTH 12 0
BBX 11 11 0 0
BITMAP
7FC0
07C0
7800
7FC0
0000
FFE0
0D80
6D80
6000
7FC0
7FC0
ENDCHAR
STARTCHAR U+B960
ENCODING 47456
SWIDTH 666 0
DWIDTH 12 0
BBX 11 11 0 0
BITMAP
7FC0
07C0
7800
7FC0
FFE0
3180
7FC0
07C0
7800
7FC0
7FC0
ENDCHAR
STARTCHAR U+B968
ENCODING 47464
SWIDTH 666 0
DWIDTH 12 0
BBX 11 11 0 0
BITMAP
7FC0
07C0
7800
7FC0
0000
FFE0
3180
7FC0
60C0
7FC0
7FC0
ENDCHAR
STARTCHAR U+B969
ENCODING 47465
SWIDTH 666 0
DWIDTH 12 0
BBX 11 11 0 0
BITMAP
7FC0
07C0
7800
7FC0
FFE0
1B00
60C0
7FC0
60C0
7FC0
7FC0
ENDCHAR
STARTCHAR U+B96B
ENCODING 47467
SWIDTH 666 0
DWIDTH 12 0
BBX 11 11 0 0
BITMAP
7FC0
07C0
7800
7FC0
0000
FFE0
3180
0E00
1F00
7BC0
71C0
ENDCHAR
STARTCHAR U+B96D
ENCODING 47469
SWIDTH 666 0
DWIDTH 12 0
BBX 11 11 0 0
BITMAP
7FC0
07C0
7800
7FC0
0000
FFE0
3180
3F80
60C0
7FC0
3F80
ENDCHAR
STARTCHAR U+B974
ENCODING 47476
SWIDTH 666 0
DWIDTH 12 0
BBX 11 10 0 1
BITMAP
7FC0
7FC0
00C0
7FC0
6000
7FC0
7FC0
0000
FFE0
FFE0
ENDCHAR
STARTCHAR U+B975
ENCODING 47477
SWIDTH 666 0
DWIDTH 12 0
BBX 11 11 0 0
BITMAP
7FC0
07C0
7800
7FC0
0000
FFE0
0000
7FC0
7FC0
00C0
00C0
ENDCHAR
STARTCHAR U+B978
ENCODING 47480
SWIDTH 666 0
DWIDTH 12 0
BBX 11 11 0 0
BITMAP
7FC0
07C0
7800
7FC0
7FC0
0000
FFE0
0000
6000
7FC0
7FC0
ENDCHAR
STARTCHAR U+B97C
ENCODING 47484
SWIDTH 666 0
DWIDTH 12 0
BBX 11 11 0 0
BITMAP
7FC0
07C0
7800
7FC0
FFE0
0000
7FC0
07C0
7800
7FC0
7FC0
ENDCHAR
STARTCHAR U+B984
ENCODING 47492
SWIDTH 666 0
DWIDTH 12 0
BBX 11 11 0 0
BITMAP
7FC0
07C0
7800
7FC0
0000
FFE0
0000
7FC0
60C0
7FC0
7FC0
ENDCHAR
STARTCHAR U+B985
ENCODING 47493
SWIDTH 666 0
DWIDTH 12 0
BBX 11 11 0 0
BITMAP
7FC0
07C0
7800
7FC0
0000
FFE0
60C0
7FC0
60C0
7FC0
7FC0
ENDCHAR
STARTCHAR U+B987
ENCODING 47495
SWIDTH 666 0
DWIDTH 12 0
BBX 11 11 0 0
BITMAP
7FC0
07C0
7800
7FC0
0000
FFE0
0000
0E00
1F00
7BC0
71C0
ENDCHAR
STARTCHAR U+B989
ENCODING 47497
SWIDTH 666 0
DWIDTH 12 0
BBX 11 11 0 0
BITMAP
7FC0
07C0
7800
7FC0
0000
FFE0
0000
3F80
60C0
7FC0
3F80
ENDCHAR
STARTCHAR U+B98A
ENCODING 47498
SWIDTH 666 0
DWIDTH 12 0
BBX 11 11 0 0
BITMAP
7FC0
07C0
7800
7FC0
0000
FFE0
0000
7FC0
1F00
7BC0
71C0
ENDCHAR
STARTCHAR U+B98D
ENCODING 47501
SWIDTH 666 0
DWIDTH 12 0
BBX 11 11 0 0
BITMAP
7FC0
07C0
7800
7FC0
0000
FFE0
6000
7FC0
6000
7FC0
7FC0
ENDCHAR
STARTCHAR U+B98E
ENCODING 47502
SWIDTH 666 0
DWIDTH 12 0
BBX 11 11 0 0
BITMAP
7FC0
07C0
7800
7FC0
0000
FFE0
0000
7FC0
3180
7FC0
7FC0
ENDCHAR
STARTCHAR U+B98F
ENCODING 47503
SWIDTH 666 0
DWIDTH 12 0
BBX 11 11 0 0
BITMAP
7FC0
07C0
7800
7FC0
0000
FFE0
0600
7FC0
3180
3F80
1F00
ENDCHAR
STARTCHAR U+B990
ENCODING 47504
SWIDTH 666 0
DWIDTH 12 0
BBX 10 11 0 0
BITMAP
FEC0
FEC0
06C0
FEC0
C0C0
FEC0
FEC0
00C0
FFC0
FFC0
00C0
ENDCHAR
STARTCHAR U+B994
ENCODING 47508
SWIDTH 666 0
DWIDTH 12 0
BBX 10 11 0 0
BITMAP
7EC0
0EC0
70C0
7EC0
7EC0
00C0
FFC0
00C0
6000
7FC0
7FC0
ENDCHAR
STARTCHAR U+B9AC
ENCODING 47532
SWIDTH 666 0
DWIDTH 12 0
BBX 10 11 0 0
BITMAP
FCC0
FCC0
0CC0
0CC0
FCC0
FCC0
C0C0
C0C0
FEC0
FEC0
00C0
ENDCHAR
STARTCHAR U+B9AD
ENCODING 47533
SWIDTH 666 0
DWIDTH 12 0
BBX 10 11 0 0
BITMAP
FCC0
0CC0
FCC0
C0C0
FEC0
FEC0
0000
7FC0
7FC0
00C0
00C0
ENDCHAR
STARTCHAR U+B9B0
ENCODING 47536
SWIDTH 666 0
DWIDTH 12 0
BBX 10 11 0 0
BITMAP
FCC0
0CC0
FCC0
C0C0
FEC0
FEC0
00C0
6000
6000
7FC0
7FC0
ENDCHAR
STARTCHAR U+B9B4
ENCODING 47540
SWIDTH 666 0
DWIDTH 12 0
BBX 10 11 0 0
BITMAP
FCC0
1CC0
E0C0
FEC0
FEC0
0000
7FC0
07C0
7800
7FC0
7FC0
ENDCHAR
STARTCHAR U+B9BC
ENCODING 47548
SWIDTH 666 0
DWIDTH 12 0
BBX 10 11 0 0
BITMAP
FCC0
0CC0
FCC0
C0C0
FEC0
FEC0
0000
7FC0
60C0
7FC0
7FC0
ENDCHAR
STARTCHAR U+B9BD
ENCODING 47549
SWIDTH 666 0
DWIDTH 12 0
BBX 10 11 0 0
BITMAP
FCC0
0CC0
FCC0
C0C0
FEC0
FEC0
60C0
7FC0
60C0
7FC0
7FC0
ENDCHAR
STARTCHAR U+B9BF
ENCODING 47551
SWIDTH 666 0
DWIDTH 12 0
BBX 10 11 0 0
BITMAP
FCC0
0CC0
FCC0
C0C0
FEC0
FEC0
00C0
0E00
1F00
7BC0
71C0
ENDCHAR
STARTCHAR U+B9C0
ENCODING 47552
SWIDTH 666 0
DWIDTH 12 0
BBX 10 11 0 0
BITMAP
FCC0
0CC0
FCC0
C0C0
FEC0
FEC0
0000
1100
3B80
7FC0
6EC0
ENDCHAR
STARTCHAR U+B9C1
ENCODING 47553
SWIDTH 666 0
DWIDTH 12 0
BBX 10 11 0 0
BITMAP
FCC0
0CC0
FCC0
C0C0
FEC0
FEC0
0000
3F80
60C0
7FC0
3F80
ENDCHAR
STARTCHAR U+B9C6
ENCODING 47558
SWIDTH 666 0
DWIDTH 12 0
BBX 10 11 0 0
BITMAP
FCC0
0CC0
FCC0
C0C0
FEC0
FEC0
0000
7FC0
3180
7FC0
7FC0
ENDCHAR
STARTCHAR U+B9C8
ENCODING 47560
SWIDTH 666 0
DWIDTH 12 0
BBX 11 11 0 0
BITMAP
FEC0
FEC0
C6C0
C6C0
C6E0
C6E0
C6C0
C6C0
FEC0
FEC0
00C0
ENDCHAR
STARTCHAR U+B9C9
ENCODING 47561
SWIDTH 666 0
DWIDTH 12 0
BBX 11 11 0 0
BITMAP
FCC0
FCC0
CCE0
CCE0
FCC0
FCC0
0000
7FC0
7FC0
00C0
00C0
ENDCHAR
STARTCHAR U+B9CC
ENCODING 47564
SWIDTH 666 0
DWIDTH 12 0
BBX 11 11 0 0
BITMAP
FCC0
FCC0
CCE0
CCE0
FCC0
FCC0
00C0
6000
6000
7FC0
7FC0
ENDCHAR
STARTCHAR U+B9CE
ENCODING 47566
SWIDTH 666 0
DWIDTH 12 0
BBX 11 11 0 0
BITMAP
FCC0
FCC0
CCE0
CCE0
FCC0
FCC0
0300
6FE0
66C0
7FC0
7B80
ENDCHAR
STARTCHAR U+B9CF
ENCODING 47567
SWIDTH 666 0
DWIDTH 12 0
BBX 11 11 0 0
BITMAP
FCC0
FCC0
CCE0
CCE0
FCC0
FCC0
0000
7FC0
6000
7FC0
7FC0
ENDCHAR
STARTCHAR U+B9D0
ENCODING 47568
SWIDTH 666 0
DWIDTH 12 0
BBX 11 11 0 0
BITMAP
FCC0
FCC0
CCE0
FCE0
FCC0
0000
7FC0
07C0
7800
7FC0
7FC0
ENDCHAR
STARTCHAR U+B9D1
ENCODING 47569
SWIDTH 666 0
DWIDTH 12 0
BBX 11 11 0 0
BITMAP
FCC0
FCC0
CCE0
FCE0
FCC0
0000
7BC0
1BC0
60C0
78C0
78C0
ENDCHAR
STARTCHAR U+B9D2
ENCODING 47570
SWIDTH 666 0
DWIDTH 12 0
BBX 11 11 0 0
BITMAP
FCC0
FCC0
CCE0
FCE0
FCC0
0000
7BC0
1AC0
62C0
7BC0
7BC0
ENDCHAR
STARTCHAR U+B9D4
ENCODING 47572
SWIDTH 666 0
DWIDTH 12 0
BBX 11 11 0 0
BITMAP
FCC0
FCC0
CCE0
FCE0
FCC0
0000
7980
1980
6180
7BC0
7AC0
ENDCHAR
STARTCHAR U+B9D8
ENCODING 47576
SWIDTH 666 0
DWIDTH 12 0
BBX 11 11 0 0
BITMAP
FCC0
FCC0
CCE0
CCE0
FCC0
FCC0
0000
7FC0
60C0
7FC0
7FC0
ENDCHAR
STARTCHAR U+B9D9
ENCODING 47577
SWIDTH 666 0
DWIDTH 12 0
BBX 11 11 0 0
BITMAP
FCC0
FCC0
CCE0
CCE0
FCC0
FCC0
60C0
7FC0
60C0
7FC0
7FC0
ENDCHAR
STARTCHAR U+B9DB
ENCODING 47579
SWIDTH 666 0
DWIDTH 12 0
BBX 11 11 0 0
BITMAP
FCC0
FCC0
CCE0
CCE0
FCC0
FCC0
00C0
0E00
1F00
7BC0
71C0
ENDCHAR
STARTCHAR U+B9DC
ENCODING 47580
SWIDTH 666 0
DWIDTH 12 0
BBX 11 11 0 0
BITMAP
FCC0
FCC0
CCE0
CCE0
FCC0
FCC0
0000
1100
3B80
7FC0
6EC0
ENDCHAR
STARTCHAR U+B9DD
ENCODING 47581
SWIDTH 666 0
DWIDTH 12 0
BBX 11 11 0 0
BITMAP
FCC0
FCC0
CCE0
CCE0
FCC0
FCC0
0000
3F80
60C0
7FC0
3F80
ENDCHAR
STARTCHAR U+B9DE
ENCODING 47582
SWIDTH 666 0
DWIDTH 12 0
BBX 11 11 0 0
BITMAP
FCC0
FCC0
CCE0
CCE0
FCC0
FCC0
0000
7FC0
1F00
7BC0
71C0
ENDCHAR
STARTCHAR U+B9DF
ENCODING 47583
SWIDTH 666 0
DWIDTH 12 0
BBX 11 11 0 0
BITMAP
FCC0
FCC0
CCE0
CCE0
FCC0
FCC0
0600
7FC0
1F00
7BC0
71C0
ENDCHAR
STARTCHAR U+B9E1
ENCODING 47585
SWIDTH 666 0
DWIDTH 12 0
BBX 11 11 0 0
BITMAP
FCC0
FCC0
CCE0
FCE0
FCC0
7FC0
6000
7FC0
6000
7FC0
7FC0
ENDCHAR
STARTCHAR U+B9E2
ENCODING 47586
SWIDTH 666 0
DWIDTH 12 0
BBX 11 11 0 0
BITMAP
FCC0
FCC0
CCE0
CCE0
FCC0
FCC0
0000
7FC0
3180
7FC0
7FC0
ENDCHAR
STARTCHAR U+B9E3
ENCODING 47587
SWIDTH 666 0
DWIDTH 12 0
BBX 11 11 0 0
BITMAP
FCC0
FCC0
CCE0
CCE0
FCC0
FCC0
0600
7FC0
3180
3F80
1F00
ENDCHAR
STARTCHAR U+B9E4
ENCODING 47588
SWIDTH 666 0
DWIDTH 12 0
BBX 10 11 0 0
BITMAP
FAC0
FAC0
DAC0
DAC0
DBC0
DBC0
DAC0
DAC0
FAC0
FAC0
02C0
ENDCHAR
STARTCHAR U+B9E5
ENCODING 47589
SWIDTH 666 0
DWIDTH 12 0
BBX 10 11 0 0
BITMAP
FAC0
FAC0
DBC0
DBC0
FAC0
FAC0
0000
7FC0
7FC0
00C0
00C0
ENDCHAR
STARTCHAR U+B9E8
ENCODING 47592
SWIDTH 666 0
DWIDTH 12 0
BBX 10 11 0 0
BITMAP
FAC0
FAC0
DBC0
DBC0
FAC0
FAC0
02C0
6000
6000
7FC0
7FC0
ENDCHAR
STARTCHAR U+B9EB
ENCODING 47595
SWIDTH 666 0
DWIDTH 12 0
BBX 10 11 0 0
BITMAP
FAC0
FAC0
DBC0
DBC0
FAC0
FAC0
0000
7FC0
6000
7FC0
7FC0
ENDCHAR
STARTCHAR U+B9EC
ENCODING 47596
SWIDTH 666 0
DWIDTH 12 0
BBX 10 11 0 0
BITMAP
FAC0
DBC0
DBC0
FAC0
FAC0
0000
7FC0
07C0
7800
7FC0
7FC0
ENDCHAR
STARTCHAR U+B9F4
ENCODING 47604
SWIDTH 666 0
DWIDTH 12 0
BBX 10 11 0 0
BITMAP
FAC0
FAC0
DBC0
DBC0
FAC0
FAC0
0000
7FC0
60C0
7FC0
7FC0
ENDCHAR
STARTCHAR U+B9F5
ENCODING 47605
SWIDTH 666 0
DWIDTH 12 0
BBX 10 11 0 0
BITMAP
FAC0
FAC0
DBC0
DBC0
FAC0
FAC0
60C0
7FC0
60C0
7FC0
7FC0
ENDCHAR
STARTCHAR U+B9F7
ENCODING 47607
SWIDTH 666 0
DWIDTH 12 0
BBX 10 11 0 0
BITMAP
FAC0
FAC0
DBC0
DBC0
FAC0
FAC0
0400
0E00
1F00
7BC0
71C0
ENDCHAR
STARTCHAR U+B9F8
ENCODING 47608
SWIDTH 666 0
DWIDTH 12 0
BBX 10 11 0 0
BITMAP
FAC0
FAC0
DBC0
DBC0
FAC0
FAC0
0000
1100
3B80
7FC0
6EC0
ENDCHAR
STARTCHAR U+B9F9
ENCODING 47609
SWIDTH 666 0
DWIDTH 12 0
BBX 10 11 0 0
BITMAP
FAC0
FAC0
DBC0
DBC0
FAC0
FAC0
0000
3F80
60C0
7FC0
3F80
ENDCHAR
ENDFONT
